<svg width="120" height="43" viewBox="0 0 120 43" fill="none" xmlns="http://www.w3.org/2000/svg">
<g clip-path="url(#clip0_844_34344)">
<path d="M23.8578 0.526581C24.043 0.582692 24.2282 0.638675 24.4134 0.694539C24.911 0.844948 25.408 0.997028 25.9049 1.14944C26.422 1.30776 26.9396 1.46462 27.4572 1.62156C28.0914 1.81398 28.7257 2.00652 29.3598 2.19973C30.6537 2.59391 31.9489 2.98364 33.2457 3.36812C33.5138 3.4476 33.7818 3.5272 34.0498 3.60685C34.2228 3.65824 34.3958 3.70963 34.5687 3.76103C34.6525 3.78591 34.7362 3.8108 34.8225 3.83644C35.2348 3.95888 35.6472 4.08104 36.0597 4.20265C36.4437 4.31589 36.8275 4.42992 37.2111 4.54456C37.3504 4.58601 37.4898 4.62717 37.6292 4.66801C37.8186 4.72348 38.0077 4.78 38.1967 4.83679C38.3019 4.86797 38.4072 4.89914 38.5157 4.93127C39.0475 5.13219 39.3712 5.37563 39.641 5.87894C39.6884 6.14981 39.6863 6.41581 39.6836 6.69026C39.6844 6.81208 39.6844 6.81208 39.6852 6.93636C39.6865 7.20828 39.6855 7.48014 39.6844 7.75207C39.6849 7.94717 39.6855 8.14227 39.6862 8.33738C39.6877 8.86756 39.6871 9.39772 39.6861 9.9279C39.6853 10.4275 39.6859 10.927 39.6864 11.4266C39.6874 12.4778 39.6862 13.529 39.6844 14.5802C39.6829 15.4789 39.6832 16.3776 39.6848 17.2764C39.6866 18.3221 39.6873 19.3678 39.6862 20.4136C39.6857 20.9663 39.6856 21.519 39.6867 22.0717C39.6877 22.5927 39.687 23.1137 39.6851 23.6347C39.6847 23.8247 39.6848 24.0147 39.6855 24.2047C39.6915 25.8838 39.4828 27.4305 38.8011 28.9746C38.7654 29.0557 38.7654 29.0557 38.729 29.1384C38.1345 30.4595 37.3129 31.6614 36.3656 32.7539C36.2818 32.8531 36.1982 32.9523 36.1146 33.0515C35.3046 34.0071 34.4612 34.9051 33.4773 35.6842C33.2578 35.8616 33.0508 36.0478 32.8435 36.2393C32.432 36.6132 31.9969 36.9452 31.5478 37.2725C31.4072 37.3755 31.2677 37.4799 31.1284 37.5847C29.0386 39.1481 26.8054 40.5093 24.5076 41.7427C24.3521 41.8263 24.1968 41.9104 24.0416 41.9945C23.7799 42.1359 23.517 42.2746 23.2531 42.4116C23.1059 42.4884 22.9598 42.5672 22.8137 42.646C22.2006 42.959 21.6842 43.1458 20.9964 43C20.5209 42.8231 20.0792 42.5972 19.6317 42.3597C19.5052 42.2943 19.3786 42.2291 19.252 42.164C18.2584 41.6493 17.2861 41.0995 16.3291 40.5195C16.1483 40.4104 15.9667 40.3032 15.7841 40.1971C13.675 38.9654 11.5564 37.5323 9.76482 35.8656C9.56292 35.6829 9.35276 35.5155 9.13888 35.347C8.27925 34.6495 7.4948 33.8468 6.81126 32.9767C6.6229 32.7385 6.42458 32.5109 6.22567 32.2815C4.19005 29.835 3.30382 27.0776 3.31623 23.9259C3.31578 23.7288 3.31518 23.5316 3.31445 23.3344C3.31293 22.8044 3.31351 22.2744 3.31458 21.7443C3.31535 21.2444 3.31476 20.7445 3.31427 20.2446C3.31331 19.1956 3.3144 18.1467 3.31622 17.0978C3.31772 16.1987 3.31745 15.2996 3.31591 14.4005C3.31411 13.353 3.3134 12.3056 3.31443 11.2581C3.31496 10.7048 3.31503 10.1515 3.31392 9.59818C3.31295 9.07909 3.31362 8.56002 3.31556 8.04093C3.31601 7.85046 3.31588 7.65998 3.31514 7.46951C3.31422 7.20973 3.31537 6.95003 3.31704 6.69026C3.3163 6.61477 3.31555 6.53929 3.31477 6.46151C3.32053 6.00235 3.38903 5.73879 3.69564 5.37504C4.08939 5.05242 4.50463 4.92221 4.98485 4.78253C5.06304 4.75905 5.14122 4.73557 5.22178 4.71138C5.48225 4.63337 5.74307 4.55657 6.0039 4.47975C6.18983 4.42431 6.37573 4.36878 6.56162 4.31319C7.06269 4.16355 7.56407 4.01494 8.06552 3.86656C8.58682 3.71218 9.10789 3.55703 9.62896 3.40192C9.84019 3.33904 10.0514 3.27617 10.2627 3.2133C10.3677 3.18204 10.4728 3.15077 10.581 3.11855C10.8484 3.039 11.1159 2.95952 11.3833 2.88009C12.7331 2.47923 14.0812 2.07359 15.4278 1.66217C15.9492 1.50294 16.4709 1.34442 16.9926 1.18583C17.4009 1.06161 17.809 0.93688 18.2168 0.811051C18.5971 0.693745 18.9777 0.577738 19.3586 0.462689C19.4963 0.420834 19.6339 0.378498 19.7713 0.335621C21.3086 -0.143676 22.3444 0.0587092 23.8578 0.526581Z" fill="#242424"/>
<path d="M23.4704 4.00059C23.6252 4.04751 23.78 4.09432 23.9349 4.14103C24.3507 4.26679 24.7661 4.39395 25.1815 4.5214C25.6137 4.65377 26.0463 4.78493 26.4789 4.91615C27.0091 5.07704 27.5392 5.23803 28.0692 5.39959C29.1507 5.72918 30.2332 6.05505 31.3172 6.37653C31.5412 6.44299 31.7653 6.50955 31.9893 6.57614C32.1339 6.61911 32.2784 6.66208 32.423 6.70505C32.493 6.72586 32.563 6.74668 32.6351 6.76812C32.9797 6.87049 33.3244 6.97264 33.6692 7.07432C33.9902 7.169 34.311 7.26435 34.6316 7.3602C34.748 7.39487 34.8645 7.42928 34.9811 7.46342C35.1394 7.50981 35.2974 7.55707 35.4553 7.60455C35.5433 7.63062 35.6314 7.65669 35.722 7.68355C36.1665 7.85155 36.4371 8.0551 36.6625 8.47594C36.7022 8.70242 36.7005 8.92484 36.6982 9.15432C36.6988 9.25618 36.6988 9.25618 36.6995 9.36009C36.7006 9.58746 36.6997 9.81477 36.6989 10.0421C36.6992 10.2053 36.6997 10.3684 36.7004 10.5315C36.7016 10.9749 36.7011 11.4181 36.7003 11.8615C36.6996 12.2792 36.7001 12.6969 36.7005 13.1146C36.7013 13.9935 36.7004 14.8725 36.6989 15.7514C36.6976 16.5029 36.6978 17.2544 36.6991 18.0058C36.7006 18.8802 36.7012 19.7546 36.7004 20.629C36.6999 21.0911 36.6999 21.5533 36.7008 22.0154C36.7016 22.4511 36.701 22.8867 36.6994 23.3223C36.6991 23.4812 36.6992 23.64 36.6998 23.7989C36.7048 25.2029 36.5303 26.4961 35.9606 27.7873C35.9307 27.8551 35.9307 27.8551 35.9003 27.9242C35.4034 29.0289 34.7167 30.0338 33.9249 30.9473C33.8549 31.0302 33.7849 31.1131 33.7151 31.1961C33.0381 31.9951 32.3331 32.746 31.5107 33.3975C31.3273 33.5458 31.1542 33.7015 30.981 33.8616C30.6371 34.1743 30.2734 34.4519 29.898 34.7255C29.7805 34.8116 29.6639 34.8989 29.5474 34.9865C27.8008 36.2938 25.9341 37.4319 24.0136 38.4632C23.8836 38.5331 23.7538 38.6034 23.6241 38.6738C23.4054 38.792 23.1856 38.908 22.965 39.0225C22.842 39.0868 22.7199 39.1526 22.5978 39.2185C22.0853 39.4803 21.6537 39.6364 21.0788 39.5145C20.6814 39.3666 20.3122 39.1777 19.9381 38.9791C19.8324 38.9245 19.7266 38.8699 19.6208 38.8155C18.7903 38.3851 17.9776 37.9254 17.1777 37.4405C17.0266 37.3492 16.8748 37.2596 16.7222 37.1708C14.9594 36.141 13.1885 34.9427 11.6911 33.5491C11.5223 33.3963 11.3467 33.2564 11.1679 33.1155C10.4494 32.5323 9.79372 31.8611 9.22239 31.1336C9.06495 30.9344 8.89919 30.7442 8.73294 30.5523C7.0315 28.5067 6.29075 26.2011 6.30113 23.5658C6.30075 23.401 6.30025 23.2361 6.29964 23.0712C6.29837 22.628 6.29885 22.1849 6.29975 21.7417C6.30039 21.3237 6.2999 20.9057 6.29949 20.4877C6.29869 19.6106 6.2996 18.7336 6.30112 17.8565C6.30238 17.1047 6.30215 16.353 6.30086 15.6012C6.29936 14.7254 6.29877 13.8496 6.29963 12.9737C6.30006 12.5111 6.30012 12.0484 6.2992 11.5858C6.29839 11.1517 6.29895 10.7177 6.30057 10.2837C6.30094 10.1244 6.30083 9.96515 6.30022 9.80588C6.29945 9.58867 6.30041 9.37153 6.30181 9.15432C6.30118 9.0912 6.30056 9.02808 6.29991 8.96305C6.30472 8.57912 6.36198 8.35875 6.61825 8.0546C6.94736 7.78485 7.29444 7.67597 7.69582 7.55918C7.76117 7.53955 7.82652 7.51992 7.89385 7.49969C8.11156 7.43446 8.32956 7.37024 8.54757 7.30601C8.70298 7.25965 8.85836 7.21323 9.01373 7.16674C9.43255 7.04162 9.85161 6.91736 10.2707 6.7933C10.7065 6.66421 11.142 6.53449 11.5775 6.40479C11.7541 6.35222 11.9306 6.29965 12.1072 6.24708C12.195 6.22094 12.2828 6.19479 12.3733 6.16785C12.5968 6.10133 12.8203 6.03488 13.0439 5.96846C14.172 5.63329 15.2989 5.29412 16.4243 4.95011C16.8602 4.81697 17.2962 4.68442 17.7323 4.55182C18.0735 4.44795 18.4147 4.34366 18.7556 4.23845C19.0734 4.14037 19.3915 4.04337 19.7099 3.94717C19.825 3.91217 19.94 3.87677 20.0548 3.84092C21.3398 3.44016 22.2055 3.60938 23.4704 4.00059Z" fill="white"/>
<path d="M23.1547 6.79421C23.2847 6.83368 23.4147 6.87305 23.5447 6.91234C23.894 7.01812 24.2428 7.12508 24.5916 7.23227C24.9546 7.34362 25.3179 7.45394 25.6812 7.56431C26.1264 7.69964 26.5716 7.83505 27.0166 7.97094C27.9249 8.24817 28.834 8.52226 29.7443 8.79267C29.9324 8.84857 30.1206 8.90455 30.3087 8.96057C30.4301 8.99671 30.5515 9.03285 30.6729 9.069C30.7317 9.0865 30.7905 9.104 30.8511 9.12204C31.1404 9.20815 31.4299 9.29407 31.7194 9.37959C31.989 9.45923 32.2584 9.53943 32.5276 9.62005C32.6254 9.64921 32.7232 9.67816 32.8211 9.70688C32.954 9.74589 33.0867 9.78565 33.2194 9.82558C33.2933 9.84751 33.3672 9.86944 33.4434 9.89203C33.8166 10.0333 34.0439 10.2045 34.2332 10.5585C34.2665 10.749 34.265 10.9361 34.2631 11.1291C34.2637 11.2148 34.2637 11.2148 34.2642 11.3022C34.2652 11.4934 34.2644 11.6846 34.2637 11.8759C34.264 12.0131 34.2644 12.1503 34.2649 12.2875C34.266 12.6604 34.2656 13.0333 34.2649 13.4062C34.2643 13.7575 34.2647 14.1088 34.2651 14.4602C34.2657 15.1995 34.265 15.9388 34.2637 16.6781C34.2627 17.3102 34.2628 17.9423 34.2639 18.5743C34.2652 19.3098 34.2657 20.0453 34.265 20.7807C34.2646 21.1694 34.2645 21.5582 34.2653 21.9469C34.266 22.3133 34.2655 22.6797 34.2642 23.0462C34.2639 23.1798 34.2639 23.3134 34.2645 23.447C34.2687 24.6279 34.1222 25.7157 33.6437 26.8017C33.6186 26.8587 33.6186 26.8587 33.5931 26.9169C33.1758 27.846 32.5991 28.6913 31.9341 29.4597C31.8754 29.5294 31.8166 29.5992 31.758 29.669C31.1894 30.341 30.5974 30.9726 29.9068 31.5206C29.7527 31.6453 29.6074 31.7763 29.4619 31.9109C29.1731 32.1739 28.8677 32.4074 28.5525 32.6376C28.4538 32.71 28.3559 32.7835 28.2581 32.8572C26.7912 33.9567 25.2237 34.914 23.6108 35.7814C23.5017 35.8402 23.3927 35.8994 23.2838 35.9586C23.1001 36.058 22.9155 36.1556 22.7303 36.2519C22.627 36.306 22.5244 36.3614 22.4219 36.4168C21.9915 36.6369 21.6291 36.7683 21.1463 36.6658C20.8125 36.5413 20.5025 36.3825 20.1884 36.2154C20.0996 36.1694 20.0107 36.1236 19.9219 36.0778C19.2244 35.7158 18.542 35.3291 17.8702 34.9212C17.7433 34.8445 17.6158 34.7691 17.4877 34.6944C16.0073 33.8282 14.5202 32.8203 13.2627 31.6481C13.121 31.5196 12.9734 31.4019 12.8233 31.2834C12.2199 30.7928 11.6693 30.2283 11.1895 29.6164C11.0573 29.4489 10.9181 29.2888 10.7785 29.1274C9.34965 27.4068 8.72759 25.4676 8.73631 23.251C8.73599 23.1123 8.73557 22.9736 8.73506 22.8349C8.73399 22.4622 8.7344 22.0894 8.73515 21.7166C8.73569 21.365 8.73527 21.0134 8.73493 20.6618C8.73426 19.9241 8.73503 19.1864 8.7363 18.4487C8.73735 17.8164 8.73716 17.1841 8.73608 16.5517C8.73482 15.8151 8.73432 15.0784 8.73505 14.3417C8.73541 13.9526 8.73546 13.5634 8.73468 13.1743C8.734 12.8092 8.73447 12.4441 8.73584 12.0791C8.73615 11.9451 8.73606 11.8111 8.73554 11.6772C8.7349 11.4945 8.7357 11.3118 8.73688 11.1291C8.73635 11.076 8.73583 11.0229 8.73529 10.9682C8.73933 10.6453 8.78741 10.46 9.00262 10.2041C9.279 9.97723 9.57047 9.88566 9.90754 9.78742C9.96242 9.77091 10.0173 9.75439 10.0738 9.73738C10.2567 9.68251 10.4397 9.6285 10.6228 9.57448C10.7533 9.53548 10.8838 9.49643 11.0143 9.45733C11.366 9.35209 11.7179 9.24757 12.0699 9.14322C12.4358 9.03464 12.8016 8.92553 13.1673 8.81644C13.3156 8.77222 13.4638 8.728 13.6121 8.68378C13.6858 8.66179 13.7596 8.6398 13.8355 8.61715C14.0233 8.56119 14.211 8.5053 14.3987 8.44943C15.3461 8.16751 16.2924 7.88223 17.2376 7.59287C17.6036 7.48089 17.9698 7.3694 18.3359 7.25786C18.6225 7.1705 18.909 7.08278 19.1953 6.99428C19.4622 6.91178 19.7293 6.83019 19.9967 6.74928C20.0933 6.71984 20.1899 6.69007 20.2863 6.65991C21.3654 6.32282 22.0925 6.46516 23.1547 6.79421Z" fill="#242424"/>
</g>
<path d="M49.4274 30L54.5394 13.536H58.1634L63.2994 30H60.3234L56.2914 16.248H56.1954L52.2834 30H49.4274ZM52.2114 26.424V24.24H60.3954V26.424H52.2114ZM65.6101 30L63.2341 13.536H65.8021L67.6021 25.32H67.6981L69.4501 13.536H71.7301L73.4821 25.32H73.5781L75.3541 13.536H77.6341L75.2581 30H72.2101L70.4821 18.744H70.3861L68.6821 30H65.6101ZM77.5687 30L82.6807 13.536H86.3047L91.4407 30H88.4647L84.4327 16.248H84.3367L80.4247 30H77.5687ZM80.3527 26.424V24.24H88.5367V26.424H80.3527ZM104.335 30.144C103.887 30.144 103.463 30.064 103.063 29.904C102.679 29.728 102.367 29.416 102.127 28.968C101.903 28.52 101.791 27.88 101.791 27.048C101.791 26.344 101.711 25.752 101.551 25.272C101.407 24.776 101.207 24.384 100.951 24.096C100.711 23.792 100.431 23.568 100.111 23.424C99.7913 23.28 99.4633 23.208 99.1273 23.208H95.9113V30H93.0073V13.536H100.327C101.223 13.536 102.023 13.72 102.727 14.088C103.447 14.44 104.007 14.936 104.407 15.576C104.823 16.216 105.031 16.976 105.031 17.856C105.031 18.88 104.767 19.768 104.239 20.52C103.711 21.256 103.015 21.712 102.151 21.888V22.008C102.727 22.168 103.199 22.448 103.567 22.848C103.951 23.248 104.239 23.736 104.431 24.312C104.623 24.872 104.719 25.472 104.719 26.112C104.719 27.184 104.807 27.936 104.983 28.368C105.159 28.8 105.479 29.08 105.943 29.208V29.88C105.735 29.976 105.487 30.04 105.199 30.072C104.927 30.12 104.639 30.144 104.335 30.144ZM95.9113 20.928H99.5113C100.375 20.928 101.031 20.68 101.479 20.184C101.927 19.672 102.151 19.04 102.151 18.288C102.151 17.536 101.935 16.944 101.503 16.512C101.071 16.064 100.455 15.84 99.6553 15.84H95.9113V20.928ZM107.078 30V13.536H112.982C113.894 13.536 114.742 13.664 115.526 13.92C116.326 14.16 117.022 14.544 117.614 15.072C118.206 15.6 118.67 16.288 119.006 17.136C119.342 17.968 119.51 18.968 119.51 20.136V23.4C119.51 24.552 119.342 25.552 119.006 26.4C118.67 27.232 118.206 27.912 117.614 28.44C117.022 28.968 116.326 29.36 115.526 29.616C114.742 29.872 113.894 30 112.982 30H107.078ZM110.054 27.672H112.766C113.486 27.672 114.126 27.552 114.686 27.312C115.246 27.072 115.686 26.664 116.006 26.088C116.326 25.496 116.486 24.672 116.486 23.616V19.896C116.486 18.872 116.326 18.064 116.006 17.472C115.686 16.88 115.246 16.464 114.686 16.224C114.126 15.968 113.486 15.84 112.766 15.84H110.054V27.672Z" fill="#242424"/>
<defs>
<clipPath id="clip0_844_34344">
<rect width="43" height="43" fill="white"/>
</clipPath>
</defs>
</svg>
