<svg width="24" height="29" viewBox="0 0 24 29" fill="none" xmlns="http://www.w3.org/2000/svg">
<g clip-path="url(#clip0_4865_11305)">
<path d="M3.5 10.5598C3.5 10.2569 3.6 10.0046 3.8 9.80275C4 9.60092 4.25 9.5 4.55 9.5L7.79225 9.5C8.03458 9.5 8.25125 9.57983 8.44225 9.7395C8.63325 9.89917 8.76208 10.1053 8.82875 10.3578L9.39425 13.1345C9.42758 13.3743 9.41158 13.6054 9.34625 13.8277C9.28075 14.0502 9.16658 14.2398 9.00375 14.3963L6.74025 16.6402C7.14542 17.3569 7.58325 18.0243 8.05375 18.6423C8.52425 19.2603 9.03392 19.8436 9.58275 20.3923C10.1353 20.9488 10.715 21.4657 11.322 21.9432C11.9292 22.4209 12.5731 22.8456 13.2538 23.2172L15.502 20.9078C15.6353 20.7616 15.8001 20.6603 15.9962 20.6038C16.1924 20.5474 16.427 20.5391 16.7 20.5788L19.6423 21.152C19.8846 21.2045 20.0881 21.3273 20.2527 21.5203C20.4176 21.7133 20.5 21.936 20.5 22.1885L20.5 25.45C20.5 25.75 20.3991 26 20.1973 26.2C19.9954 26.4 19.7431 26.5 19.4402 26.5C17.5557 26.5 15.6642 26.0618 13.7655 25.1855C11.8667 24.3092 10.1192 23.0746 8.523 21.4818C6.927 19.8888 5.69083 18.1413 4.8145 16.2395C3.93817 14.3375 3.5 12.4443 3.5 10.5598ZM14.673 23.9115C15.3743 24.2205 16.0776 24.4612 16.7828 24.6338C17.4877 24.8061 18.1819 24.9179 18.8652 24.9693C18.9037 24.9693 18.9358 24.9564 18.9615 24.9307C18.9872 24.9051 19 24.873 19 24.8345L19 22.7115C19 22.6602 18.9872 22.6185 18.9615 22.5865C18.9358 22.5545 18.8974 22.5321 18.8462 22.5193L16.6115 22.0693C16.573 22.0564 16.5313 22.0548 16.4865 22.0645C16.4417 22.074 16.4064 22.0948 16.3807 22.127L14.673 23.9115ZM6.0615 15.2115L7.84625 13.4463C7.87825 13.4141 7.89908 13.3836 7.90875 13.3548C7.91825 13.3259 7.91658 13.2923 7.90375 13.2537L7.4615 11.1537C7.44867 11.1026 7.42625 11.0642 7.39425 11.0385C7.36225 11.0128 7.32058 11 7.26925 11L5.1655 11C5.127 11 5.09492 11.0128 5.06925 11.0385C5.04358 11.0642 5.03075 11.0963 5.03075 11.1348C5.06158 11.7603 5.16383 12.4304 5.3375 13.1453C5.51117 13.8599 5.7525 14.5487 6.0615 15.2115Z" fill="#FFF9F4"/>
</g>
<defs>
<clipPath id="clip0_4865_11305">
<rect width="29" height="24" fill="white" transform="translate(24) rotate(90)"/>
</clipPath>
</defs>
</svg>
