<svg width="24" height="29" viewBox="0 0 24 29" fill="none" xmlns="http://www.w3.org/2000/svg">
<path d="M12.0018 16.8652C12.4993 16.8652 12.9246 16.6881 13.2778 16.3338C13.6311 15.9794 13.8078 15.5535 13.8078 15.056C13.8078 14.5585 13.6306 14.1331 13.2763 13.7798C12.9219 13.4266 12.4959 13.25 11.9983 13.25C11.5008 13.25 11.0754 13.4272 10.7223 13.7815C10.3689 14.1358 10.1923 14.5618 10.1923 15.0595C10.1923 15.557 10.3694 15.9823 10.7238 16.3355C11.0781 16.6887 11.5041 16.8652 12.0018 16.8652ZM12 24.5135C13.9564 22.7622 15.4534 21.0823 16.4913 19.474C17.5291 17.8657 18.048 16.457 18.048 15.248C18.048 13.425 17.4689 11.9263 16.3105 10.752C15.1522 9.57767 13.7154 8.9905 12 8.9905C10.2847 8.9905 8.84786 9.57767 7.68953 10.752C6.53119 11.9263 5.95203 13.425 5.95203 15.248C5.95203 16.457 6.47094 17.8657 7.50878 19.474C8.54661 21.0823 10.0437 22.7622 12 24.5135ZM12 26.5095C9.48336 24.3288 7.59619 22.2994 6.33853 20.4212C5.08086 18.5429 4.45203 16.8185 4.45203 15.248C4.45203 12.9403 5.19844 11.0721 6.69128 9.64325C8.18428 8.21442 9.95386 7.5 12 7.5C14.0462 7.5 15.8158 8.21442 17.3088 9.64325C18.8016 11.0721 19.548 12.9403 19.548 15.248C19.548 16.8185 18.9192 18.5429 17.6615 20.4212C16.4039 22.2994 14.5167 24.3288 12 26.5095Z" fill="#FFF9F4"/>
</svg>
