<svg width="24" height="29" viewBox="0 0 24 29" fill="none" xmlns="http://www.w3.org/2000/svg">
<path d="M4.30775 26.5C3.80258 26.5 3.375 26.325 3.025 25.975C2.675 25.625 2.5 25.1974 2.5 24.6923V13.3077C2.5 12.8026 2.675 12.375 3.025 12.025C3.375 11.675 3.80258 11.5 4.30775 11.5H19.6923C20.1974 11.5 20.625 11.675 20.975 12.025C21.325 12.375 21.5 12.8026 21.5 13.3077V24.6923C21.5 25.1974 21.325 25.625 20.975 25.975C20.625 26.325 20.1974 26.5 19.6923 26.5H4.30775ZM12 19.5577L4 14.4423V24.6923C4 24.7821 4.02883 24.8558 4.0865 24.9135C4.14417 24.9712 4.21792 25 4.30775 25H19.6923C19.7821 25 19.8558 24.9712 19.9135 24.9135C19.9712 24.8558 20 24.7821 20 24.6923V14.4423L12 19.5577ZM12 18L19.8463 13H4.15375L12 18ZM4 14.4423V13V24.6923C4 24.7821 4.02883 24.8558 4.0865 24.9135C4.14417 24.9712 4.21792 25 4.30775 25H4V14.4423Z" fill="#FFF9F4"/>
</svg>
