<svg width="24" height="29" viewBox="0 0 24 29" fill="none" xmlns="http://www.w3.org/2000/svg">
<g clip-path="url(#clip0_4865_13732)">
<path d="M12.7557 27.2617C12.8684 27.2617 12.983 27.2349 13.0995 27.1814C13.2158 27.1279 13.3076 27.0669 13.375 26.9986L22.5094 17.7282C22.7671 17.4666 22.9612 17.1872 23.0916 16.8899C23.2218 16.5928 23.2869 16.2808 23.2869 15.9539C23.2869 15.6151 23.2218 15.2889 23.0916 14.9754C22.9612 14.6616 22.7671 14.38 22.5094 14.1304L17.9411 9.49406C17.6951 9.23249 17.4286 9.04115 17.1416 8.92002C16.8547 8.79909 16.5444 8.73863 16.2105 8.73863C15.8884 8.73863 15.5791 8.79909 15.2826 8.92002C14.986 9.04115 14.7126 9.23249 14.4623 9.49406L13.8076 10.1585L15.9204 12.3205C16.1766 12.5687 16.3659 12.8518 16.4883 13.1698C16.6105 13.4878 16.6716 13.8176 16.6716 14.1594C16.6716 14.8668 16.4388 15.4568 15.9732 15.9293C15.5076 16.4018 14.9263 16.6381 14.2293 16.6381C13.8925 16.6381 13.5664 16.5816 13.2508 16.4686C12.9354 16.3557 12.6554 16.1752 12.4108 15.927L10.2474 13.7493L5.28389 18.7867C5.19747 18.8744 5.13265 18.9726 5.08945 19.0811C5.04624 19.1895 5.02463 19.301 5.02463 19.4155C5.02463 19.6294 5.09639 19.8121 5.23991 19.9638C5.38344 20.1154 5.56056 20.1912 5.77127 20.1912C5.88415 20.1912 5.99874 20.1645 6.11504 20.111C6.23153 20.0575 6.32347 19.9965 6.39085 19.9281L10.142 16.1211L11.3455 17.3425L7.61174 21.1495C7.52551 21.2372 7.4608 21.3354 7.41759 21.4439C7.37438 21.5523 7.35277 21.6638 7.35277 21.7783C7.35277 21.9848 7.42634 22.1628 7.57348 22.3121C7.72062 22.4614 7.89593 22.5361 8.09941 22.5361C8.21229 22.5361 8.32688 22.5093 8.44318 22.4558C8.55967 22.4023 8.65152 22.3414 8.71871 22.273L12.6018 18.35L13.8056 19.5714L9.93988 23.5123C9.86089 23.5807 9.79798 23.6739 9.75115 23.7919C9.70433 23.9102 9.68092 24.0265 9.68092 24.1408C9.68092 24.3475 9.75448 24.5255 9.90162 24.6749C10.0488 24.8242 10.2241 24.8989 10.4276 24.8989C10.5402 24.8989 10.6501 24.8769 10.757 24.8331C10.8638 24.7892 10.9604 24.7235 11.0469 24.6358L14.9299 20.7128L16.1337 21.9342L12.2506 25.8751C12.1642 25.9628 12.0994 26.0646 12.0562 26.1805C12.013 26.2964 11.9914 26.4079 11.9914 26.5149C11.9914 26.7288 12.0697 26.9067 12.2263 27.0487C12.383 27.1907 12.5594 27.2617 12.7557 27.2617ZM12.738 29C12.0923 29 11.5294 28.7727 11.0491 28.3182C10.5689 27.8634 10.3178 27.2972 10.2959 26.6195C9.64875 26.5749 9.10806 26.3416 8.67388 25.9197C8.2397 25.4976 8.00433 24.9433 7.96779 24.2567C7.29129 24.2123 6.74442 23.9724 6.32718 23.5369C5.90975 23.1015 5.68638 22.5538 5.65706 21.8939C4.97771 21.8495 4.41695 21.5995 3.97477 21.144C3.53259 20.6885 3.3115 20.1123 3.3115 19.4155C3.3115 19.0738 3.37556 18.739 3.50366 18.4112C3.63176 18.0836 3.81811 17.7957 4.06271 17.5477L10.2474 11.2886L13.5926 14.6833C13.6598 14.7635 13.7479 14.8274 13.857 14.8751C13.9662 14.9226 14.0845 14.9464 14.2119 14.9464C14.4197 14.9464 14.599 14.8766 14.7498 14.7369C14.9007 14.5972 14.9762 14.4144 14.9762 14.1884C14.9762 14.0591 14.9528 13.9391 14.906 13.8285C14.8589 13.7178 14.7959 13.6282 14.7169 13.5598L10.7108 9.49406C10.4649 9.23249 10.1966 9.04115 9.90591 8.92002C9.61525 8.79909 9.30298 8.73863 8.96911 8.73863C8.64704 8.73863 8.34144 8.79909 8.0523 8.92002C7.76297 9.04115 7.48954 9.23249 7.232 9.49406L3.48053 13.319C3.27267 13.53 3.1025 13.7793 2.97002 14.0669C2.83754 14.3544 2.75959 14.6475 2.73618 14.9464C2.71257 15.1931 2.72352 15.4372 2.76901 15.6786C2.81431 15.9201 2.89407 16.1471 3.00828 16.3596L1.7477 17.6389C1.48997 17.2615 1.29601 16.8387 1.16581 16.3706C1.03542 15.9025 0.981933 15.4278 1.00535 14.9464C1.02876 14.4128 1.14735 13.8975 1.36111 13.4005C1.57487 12.9034 1.87428 12.4595 2.25936 12.0687L5.99969 8.27267C6.4274 7.85057 6.8927 7.53298 7.3956 7.31991C7.8985 7.10664 8.42671 7 8.98025 7C9.53359 7 10.0599 7.10664 10.5592 7.31991C11.0587 7.53298 11.5162 7.85057 11.932 8.27267L12.5867 8.93683L13.2411 8.27267C13.6686 7.85057 14.132 7.53298 14.6313 7.31991C15.1306 7.10664 15.657 7 16.2105 7C16.764 7 17.2923 7.10664 17.7952 7.31991C18.298 7.53298 18.7575 7.85057 19.1734 8.27267L23.7132 12.88C24.1289 13.3021 24.4473 13.7825 24.6685 14.3211C24.8895 14.8597 25 15.4098 25 15.9716C25 16.5334 24.8895 17.0676 24.6685 17.5743C24.4473 18.081 24.1289 18.5453 23.7132 18.9673L14.5785 28.2199C14.3266 28.4755 14.043 28.6695 13.7276 28.8018C13.412 28.9339 13.0821 29 12.738 29Z" fill="#FFF9F4"/>
</g>
<defs>
<clipPath id="clip0_4865_13732">
<rect width="24" height="29" fill="white"/>
</clipPath>
</defs>
</svg>
