<svg width="24" height="40" viewBox="0 0 24 40" fill="none" xmlns="http://www.w3.org/2000/svg">
<g clip-path="url(#clip0_892_112829)">
<path d="M10.9988 -0.0310962C11.0749 -0.0313205 11.151 -0.0315447 11.2293 -0.0317757C11.3897 -0.0319348 11.5502 -0.0315055 11.7106 -0.030524C11.9551 -0.0292707 12.1995 -0.0305129 12.444 -0.0320118C12.6003 -0.0318569 12.7566 -0.0315565 12.9129 -0.0310962C12.9855 -0.0315707 13.0581 -0.0320451 13.1329 -0.0325339C13.623 -0.0272738 14.0487 0.0174206 14.4122 0.380891C14.5899 0.716456 14.5895 1.07046 14.5974 1.44382C14.6 1.54125 14.6026 1.63869 14.6052 1.73908C14.61 1.94211 14.6144 2.14516 14.6187 2.34821C14.6196 3.18209 14.6196 3.18209 14.8126 3.98441C15.0439 4.19071 15.2333 4.26268 15.5352 4.3262C15.67 4.35551 15.67 4.35551 15.8075 4.38541C16.0602 4.43759 16.3134 4.48665 16.5667 4.53555C20.0803 5.2236 20.0803 5.2236 20.9353 6.13498C21.3141 6.94239 20.9293 7.82409 20.6792 8.62272C20.6135 8.8325 20.5495 9.04273 20.4858 9.25311C19.9528 10.9997 19.9528 10.9997 19.6417 11.3819C19.2831 11.5492 18.917 11.4733 18.5477 11.3484C18.3733 11.2754 18.2018 11.1978 18.0304 11.1182C16.374 10.3898 14.7529 10.0613 12.9474 10.0489C12.8462 10.0478 12.745 10.0467 12.6407 10.0455C11.5917 10.0508 10.5312 10.2042 9.72409 10.9314C9.18882 11.5092 9.05989 11.9914 9.07651 12.7722C9.15571 13.4322 9.5326 13.9868 10.0384 14.4059C10.1255 14.4694 10.213 14.5324 10.3009 14.5948C10.3613 14.6402 10.3613 14.6402 10.4229 14.6865C11.3786 15.3715 12.5329 15.7968 13.6084 16.2531C14.6566 16.6984 15.7039 17.1455 16.7315 17.6367C16.8041 17.6711 16.8767 17.7055 16.9515 17.7409C19.2733 18.8697 21.0942 20.7677 21.9589 23.2068C22.712 25.4382 22.5323 27.7993 21.5371 29.9198C20.3915 32.2158 18.3628 33.7599 15.9796 34.585C15.8949 34.6129 15.8103 34.6407 15.7231 34.6694C15.264 34.8245 14.9181 34.9619 14.5782 35.3125C14.4137 35.6639 14.4168 35.9648 14.4201 36.3504C14.4226 36.9553 14.4164 37.5594 14.4024 38.1641C14.4013 38.267 14.4002 38.3699 14.3991 38.476C14.3966 38.5753 14.394 38.6746 14.3914 38.7769C14.3898 38.8657 14.3882 38.9544 14.3865 39.0459C14.3191 39.4427 14.1554 39.677 13.8295 39.91C13.4594 40.0348 13.1182 40.0351 12.7301 40.0339C12.6503 40.0343 12.5706 40.0347 12.4885 40.0351C12.3204 40.0356 12.1523 40.0355 11.9842 40.0349C11.7275 40.0342 11.4709 40.0365 11.2143 40.0389C11.0506 40.0391 10.8869 40.039 10.7232 40.0388C10.6468 40.0397 10.5704 40.0405 10.4916 40.0415C10.032 40.0368 9.77334 39.991 9.42197 39.6875C9.06394 39.2307 9.09812 38.6507 9.09024 38.0951C9.08767 37.9705 9.08507 37.8459 9.08246 37.7213C9.07875 37.5271 9.07527 37.3328 9.07221 37.1386C9.06911 36.9496 9.06508 36.7607 9.06094 36.5717C9.06028 36.5139 9.05963 36.4561 9.05895 36.3966C9.05147 36.0831 9.03345 35.8215 8.87509 35.5469C8.41084 35.2525 7.72119 35.2202 7.19102 35.1259C2.86109 34.3476 2.86109 34.3476 1.68759 33.0274C1.42018 32.292 1.726 31.4987 1.93173 30.7813C1.96419 30.6659 1.99661 30.5505 2.02901 30.4351C2.12163 30.1072 2.21668 29.7801 2.31259 29.4532C2.33668 29.3705 2.36078 29.2879 2.3856 29.2028C2.444 29.0056 2.5044 28.8093 2.5665 28.6133C2.58282 28.5595 2.59915 28.5058 2.61597 28.4503C2.7325 28.1005 2.87195 27.8734 3.17197 27.6563C3.74727 27.5563 4.15963 27.7981 4.66611 28.0518C7.12102 29.224 10.3425 30.1286 13.0157 29.2188C13.954 28.8475 14.5271 28.3983 14.9588 27.482C15.2384 26.796 15.188 26.1152 14.9106 25.4346C14.0069 23.5879 11.5864 22.9001 9.81826 22.1768C6.2517 20.7174 6.2517 20.7174 4.81259 19.4532C4.74894 19.3989 4.6853 19.3446 4.61972 19.2887C3.09001 17.9549 2.0299 16.273 1.84384 14.2188C1.70736 11.7311 2.29303 9.41644 3.98251 7.52689C5.40721 6.04739 7.34009 5.17316 9.26572 4.53128C9.42687 4.11655 9.44488 3.73023 9.44607 3.28922C9.44804 3.15535 9.45002 3.02148 9.45202 2.8876C9.45427 2.67917 9.45614 2.47074 9.45761 2.2623C9.45932 2.05933 9.4624 1.85642 9.46561 1.65347C9.46561 1.59217 9.46562 1.53087 9.46563 1.46771C9.47329 1.03309 9.52588 0.622119 9.73446 0.234407C10.1102 -0.0657027 10.5384 -0.0340983 10.9988 -0.0310962Z" fill="white"/>
</g>
<defs>
<clipPath id="clip0_892_112829">
<rect width="24" height="40" fill="white"/>
</clipPath>
</defs>
</svg>
