<svg width="93" height="134" viewBox="0 0 93 134" fill="none" xmlns="http://www.w3.org/2000/svg">
<g clip-path="url(#clip0_1174_376)">
<path d="M51.5991 1.13871C51.9996 1.26007 52.4001 1.38115 52.8008 1.50197C53.8769 1.82728 54.9518 2.15619 56.0266 2.48584C57.145 2.82825 58.2644 3.16749 59.3837 3.50692C60.7556 3.92308 62.1273 4.33951 63.4987 4.75739C66.2972 5.60992 69.0984 6.45282 71.9032 7.28436C72.483 7.45627 73.0626 7.62843 73.6423 7.80069C74.0164 7.91184 74.3905 8.02299 74.7646 8.13414C74.9457 8.18797 75.1269 8.2418 75.3135 8.29725C76.2052 8.56206 77.097 8.82627 77.9892 9.08929C78.8198 9.3342 79.6499 9.58082 80.4795 9.82875C80.7808 9.91842 81.0822 10.0074 81.3838 10.0957C81.7934 10.2157 82.2023 10.338 82.611 10.4608C82.8388 10.5282 83.0665 10.5957 83.3011 10.6651C84.4512 11.0997 85.1514 11.6262 85.7347 12.7148C85.8374 13.3006 85.8329 13.8759 85.827 14.4695C85.8287 14.7329 85.8287 14.7329 85.8305 15.0017C85.8333 15.5898 85.831 16.1778 85.8288 16.7659C85.8298 17.1879 85.831 17.6099 85.8326 18.0318C85.8359 19.1785 85.8346 20.3251 85.8324 21.4718C85.8307 22.5522 85.832 23.6327 85.833 24.7131C85.8351 26.9867 85.8327 29.2602 85.8288 31.5337C85.8256 33.4775 85.8261 35.4212 85.8295 37.365C85.8334 39.6267 85.8349 41.8884 85.8327 44.1501C85.8315 45.3455 85.8314 46.5409 85.8338 47.7363C85.8359 48.8632 85.8344 49.99 85.8302 51.1168C85.8293 51.5277 85.8295 51.9386 85.8311 52.3495C85.8441 55.981 85.3927 59.3262 83.9183 62.6659C83.8412 62.8413 83.8412 62.8413 83.7624 63.0202C82.4766 65.8774 80.6996 68.4767 78.6508 70.8398C78.4697 71.0541 78.2887 71.2687 78.108 71.4833C76.3561 73.5501 74.532 75.4922 72.404 77.1773C71.9293 77.5611 71.4816 77.9638 71.0332 78.3778C70.1433 79.1866 69.2023 79.9047 68.2309 80.6124C67.9268 80.8353 67.6251 81.0611 67.3238 81.2876C62.8041 84.6691 57.9741 87.6129 53.0045 90.2804C52.6681 90.4613 52.3323 90.6432 51.9966 90.8252C51.4307 91.1309 50.8621 91.4309 50.2912 91.7272C49.973 91.8934 49.6569 92.0638 49.3409 92.2343C48.0149 92.9112 46.898 93.3151 45.4105 92.9999C44.3821 92.6172 43.4269 92.1287 42.4589 91.6149C42.1853 91.4736 41.9116 91.3325 41.6377 91.1917C39.4887 90.0784 37.3859 88.8894 35.316 87.6351C34.9251 87.3991 34.5322 87.1672 34.1375 86.9377C29.5759 84.2738 24.9937 81.1743 21.1189 77.5697C20.6823 77.1744 20.2277 76.8124 19.7651 76.4479C17.9059 74.9395 16.2094 73.2033 14.731 71.3215C14.3236 70.8064 13.8947 70.3142 13.4645 69.818C9.06186 64.5267 7.14512 58.5631 7.17198 51.7466C7.17099 51.3202 7.1697 50.8937 7.16812 50.4672C7.16484 49.3209 7.16608 48.1746 7.1684 47.0282C7.17006 45.947 7.16878 44.8658 7.16772 43.7846C7.16566 41.5159 7.16802 39.2473 7.17194 36.9787C7.17519 35.0341 7.17461 33.0896 7.17127 31.1451C7.16738 28.8797 7.16585 26.6143 7.16808 24.3488C7.16922 23.1521 7.16937 21.9554 7.16697 20.7587C7.16487 19.636 7.16632 18.5134 7.17052 17.3907C7.17148 16.9787 7.17121 16.5668 7.16961 16.1548C7.16762 15.593 7.17011 15.0313 7.17373 14.4695C7.17211 14.3062 7.17049 14.1429 7.16882 13.9747C7.18127 12.9817 7.32942 12.4116 7.99256 11.6249C8.84415 10.9272 9.74224 10.6455 10.7808 10.3435C10.9499 10.2927 11.119 10.2419 11.2933 10.1896C11.8566 10.0208 12.4207 9.85473 12.9848 9.68859C13.387 9.56868 13.789 9.44859 14.1911 9.32835C15.2748 9.00471 16.3592 8.6833 17.4437 8.36239C18.5711 8.02849 19.6981 7.69295 20.8251 7.35747C21.2819 7.22149 21.7388 7.08551 22.1956 6.94953C22.4228 6.88191 22.65 6.81428 22.8841 6.7446C23.4625 6.57254 24.0409 6.40064 24.6194 6.22886C27.5386 5.36188 30.4544 4.48458 33.3667 3.59475C34.4945 3.25038 35.6228 2.90753 36.751 2.56453C37.6341 2.29586 38.5169 2.0261 39.3989 1.75396C40.2212 1.50026 41.0444 1.24936 41.8682 1.00053C42.1661 0.910007 42.4636 0.818443 42.7608 0.725707C46.0858 -0.310911 48.326 0.126805 51.5991 1.13871Z" fill="#333333"/>
<path d="M50.7617 8.65244C51.0964 8.75391 51.4312 8.85515 51.7661 8.95618C52.6655 9.22818 53.564 9.5032 54.4623 9.77883C55.3971 10.0651 56.3327 10.3488 57.2683 10.6326C58.415 10.9806 59.5615 11.3288 60.7077 11.6782C63.0468 12.391 65.3881 13.0958 67.7325 13.7911C68.2171 13.9348 68.7016 14.0788 69.1861 14.2228C69.4988 14.3158 69.8115 14.4087 70.1241 14.5016C70.2756 14.5466 70.427 14.5916 70.583 14.638C71.3283 14.8594 72.0737 15.0804 72.8194 15.3003C73.5136 15.5051 74.2074 15.7113 74.9009 15.9186C75.1527 15.9935 75.4046 16.068 75.6567 16.1418C75.9991 16.2421 76.3408 16.3444 76.6825 16.447C76.8728 16.5034 77.0632 16.5598 77.2593 16.6179C78.2206 16.9813 78.8058 17.4215 79.2934 18.3317C79.3792 18.8215 79.3754 19.3026 79.3705 19.7989C79.3719 20.0192 79.3719 20.0192 79.3734 20.2439C79.3758 20.7357 79.3739 21.2273 79.372 21.7191C79.3728 22.0719 79.3739 22.4247 79.3752 22.7775C79.378 23.7363 79.3769 24.6951 79.375 25.6538C79.3736 26.5572 79.3746 27.4606 79.3755 28.3641C79.3773 30.2651 79.3753 32.1661 79.372 34.0671C79.3693 35.6924 79.3697 37.3176 79.3726 38.9429C79.3758 40.834 79.3771 42.7251 79.3752 44.6162C79.3743 45.6157 79.3741 46.6153 79.3762 47.6148C79.3779 48.557 79.3767 49.4991 79.3732 50.4413C79.3724 50.7849 79.3726 51.1285 79.3739 51.472C79.3848 54.5086 79.0075 57.3056 77.7752 60.0981C77.7107 60.2447 77.7107 60.2447 77.6448 60.3943C76.5701 62.7834 75.0849 64.9567 73.3724 66.9326C73.221 67.1118 73.0698 67.2912 72.9187 67.4707C71.4544 69.1988 69.9297 70.8227 68.1511 72.2317C67.7544 72.5526 67.3801 72.8893 67.0054 73.2355C66.2615 73.9118 65.475 74.5122 64.6631 75.104C64.4089 75.2903 64.1568 75.4791 63.9049 75.6685C60.1272 78.4959 56.0901 80.9574 51.9363 83.1878C51.6552 83.339 51.3746 83.4912 51.0939 83.6433C50.6209 83.8989 50.1456 84.1498 49.6685 84.3975C49.4025 84.5365 49.1383 84.679 48.8742 84.8215C47.7659 85.3875 46.8324 85.7253 45.5891 85.4617C44.7295 85.1417 43.9311 84.7333 43.122 84.3036C42.8933 84.1855 42.6645 84.0675 42.4356 83.9497C40.6394 83.0189 38.8819 82.0247 37.1517 80.976C36.825 80.7786 36.4966 80.5847 36.1667 80.3928C32.354 78.1654 28.5241 75.5738 25.2854 72.5598C24.9204 72.2293 24.5404 71.9266 24.1538 71.6218C22.5998 70.3605 21.1818 68.9089 19.9461 67.3354C19.6056 66.9047 19.2471 66.4932 18.8875 66.0783C15.2077 61.6539 13.6056 56.6675 13.628 50.968C13.6272 50.6114 13.6261 50.2548 13.6248 49.8982C13.6221 48.9397 13.6231 47.9812 13.625 47.0227C13.6264 46.1187 13.6254 45.2146 13.6245 44.3105C13.6228 42.4136 13.6247 40.5167 13.628 38.6198C13.6307 36.9939 13.6302 35.368 13.6274 33.7421C13.6242 31.8479 13.6229 29.9537 13.6248 28.0595C13.6257 27.0588 13.6258 26.0582 13.6238 25.0576C13.6221 24.1189 13.6233 23.1802 13.6268 22.2414C13.6276 21.897 13.6274 21.5525 13.626 21.2081C13.6244 20.7383 13.6265 20.2687 13.6295 19.7989C13.6281 19.6624 13.6268 19.5259 13.6254 19.3852C13.6358 18.5549 13.7596 18.0782 14.3139 17.4204C15.0257 16.837 15.7763 16.6015 16.6444 16.3489C16.7858 16.3065 16.9271 16.264 17.0727 16.2203C17.5436 16.0792 18.0151 15.9403 18.4866 15.8014C18.8227 15.7011 19.1588 15.6007 19.4948 15.5002C20.4006 15.2296 21.307 14.9608 22.2135 14.6925C23.1558 14.4133 24.0978 14.1327 25.0398 13.8522C25.4216 13.7385 25.8034 13.6248 26.1853 13.5111C26.3752 13.4546 26.5651 13.398 26.7608 13.3398C27.2442 13.1959 27.7277 13.0522 28.2112 12.9085C30.6511 12.1836 33.0882 11.4501 35.5224 10.706C36.4651 10.4181 37.4081 10.1314 38.3512 9.84463C39.0893 9.61998 39.8271 9.39443 40.5643 9.16688C41.2517 8.95474 41.9397 8.74496 42.6283 8.5369C42.8773 8.46121 43.1259 8.38465 43.3743 8.30711C46.1535 7.44035 48.0259 7.80634 50.7617 8.65244Z" fill="white"/>
<path d="M50.0789 14.6945C50.36 14.7798 50.6411 14.865 50.9224 14.9499C51.6777 15.1787 52.4322 15.4101 53.1866 15.6419C53.9716 15.8827 54.7573 16.1213 55.543 16.36C56.5059 16.6527 57.4688 16.9456 58.4314 17.2395C60.3957 17.8391 62.3619 18.4319 64.3306 19.0167C64.7376 19.1376 65.1445 19.2587 65.5513 19.3798C65.8139 19.458 66.0765 19.5362 66.3391 19.6143C66.4662 19.6522 66.5934 19.6901 66.7244 19.7291C67.3503 19.9153 67.9763 20.1011 68.6025 20.2861C69.1855 20.4583 69.7681 20.6318 70.3505 20.8062C70.5619 20.8692 70.7735 20.9318 70.9852 20.9939C71.2727 21.0783 71.5597 21.1643 71.8466 21.2507C72.0065 21.2981 72.1663 21.3455 72.331 21.3944C73.1383 21.7 73.6297 22.0703 74.0392 22.8359C74.1113 23.2479 74.1081 23.6525 74.104 24.07C74.1051 24.2553 74.1052 24.2553 74.1064 24.4443C74.1084 24.8579 74.1068 25.2715 74.1052 25.6851C74.1059 25.9818 74.1068 26.2786 74.1079 26.5754C74.1102 27.3818 74.1093 28.1883 74.1077 28.9947C74.1065 29.7546 74.1074 30.5145 74.1082 31.2743C74.1096 32.8733 74.108 34.4723 74.1052 36.0713C74.1029 37.4383 74.1033 38.8053 74.1057 40.1724C74.1084 41.763 74.1095 43.3537 74.1079 44.9443C74.1071 45.7851 74.107 46.6258 74.1087 47.4665C74.1102 48.259 74.1091 49.0515 74.1062 49.844C74.1055 50.133 74.1057 50.422 74.1069 50.7109C74.116 53.265 73.7991 55.6177 72.7642 57.9665C72.7101 58.0898 72.7101 58.0898 72.6548 58.2156C71.7522 60.2252 70.505 62.0532 69.0668 63.7152C68.9397 63.8659 68.8127 64.0168 68.6858 64.1678C67.4562 65.6213 66.1758 66.9872 64.6822 68.1724C64.349 68.4422 64.0347 68.7255 63.72 69.0167C63.0953 69.5855 62.4348 70.0905 61.753 70.5883C61.5395 70.745 61.3278 70.9038 61.1163 71.0631C57.9438 73.4413 54.5536 75.5117 51.0653 77.3878C50.8292 77.515 50.5936 77.6429 50.3579 77.7709C49.9607 77.9859 49.5615 78.1969 49.1608 78.4053C48.9375 78.5222 48.7156 78.642 48.4938 78.7619C47.5631 79.238 46.7791 79.5221 45.735 79.3004C45.0132 79.0312 44.3427 78.6877 43.6632 78.3263C43.4712 78.2269 43.279 78.1277 43.0868 78.0286C41.5784 77.2457 40.1024 76.4094 38.6495 75.5273C38.3751 75.3613 38.0994 75.1982 37.8223 75.0368C34.6205 73.1633 31.4042 70.9834 28.6844 68.4483C28.3779 68.1703 28.0588 67.9157 27.7341 67.6594C26.4291 66.5985 25.2383 65.3774 24.2006 64.054C23.9146 63.6917 23.6136 63.3455 23.3116 62.9966C20.2213 59.2752 18.876 55.081 18.8948 50.287C18.8941 49.9871 18.8932 49.6871 18.8921 49.3872C18.8898 48.581 18.8907 47.7748 18.8923 46.9685C18.8935 46.2081 18.8926 45.4477 18.8918 44.6873C18.8904 43.0917 18.892 41.4962 18.8948 39.9007C18.8971 38.5331 18.8967 37.1655 18.8943 35.7979C18.8916 34.2046 18.8905 32.6114 18.8921 31.0181C18.8929 30.1765 18.893 29.3348 18.8913 28.4932C18.8898 27.7036 18.8908 26.914 18.8938 26.1245C18.8945 25.8347 18.8943 25.545 18.8931 25.2553C18.8918 24.8601 18.8935 24.4651 18.896 24.07C18.8949 23.9551 18.8938 23.8403 18.8926 23.722C18.9013 23.0236 19.0053 22.6227 19.4708 22.0694C20.0685 21.5787 20.6989 21.3806 21.4279 21.1681C21.5466 21.1324 21.6653 21.0967 21.7876 21.0599C22.183 20.9412 22.579 20.8244 22.9749 20.7076C23.2572 20.6233 23.5394 20.5388 23.8216 20.4542C24.5823 20.2266 25.3434 20.0006 26.1047 19.7749C26.8961 19.54 27.6871 19.3041 28.4781 19.0681C28.7988 18.9725 29.1195 18.8768 29.4401 18.7812C29.5996 18.7336 29.7591 18.6861 29.9234 18.6371C30.3294 18.5161 30.7354 18.3952 31.1414 18.2744C33.1904 17.6646 35.2371 17.0476 37.2813 16.4218C38.0729 16.1796 38.8648 15.9385 39.6568 15.6972C40.2766 15.5083 40.8962 15.3186 41.5154 15.1272C42.0926 14.9487 42.6704 14.7723 43.2486 14.5973C43.4577 14.5336 43.6665 14.4692 43.8751 14.404C46.209 13.6749 47.7814 13.9828 50.0789 14.6945Z" fill="url(#paint0_linear_1174_376)"/>
</g>
<path d="M11.4274 130L16.5394 113.536H20.1634L25.2994 130H22.3234L18.2914 116.248H18.1954L14.2834 130H11.4274ZM14.2114 126.424V124.24H22.3954V126.424H14.2114ZM27.6101 130L25.2341 113.536H27.8021L29.6021 125.32H29.6981L31.4501 113.536H33.7301L35.4821 125.32H35.5781L37.3541 113.536H39.6341L37.2581 130H34.2101L32.4821 118.744H32.3861L30.6821 130H27.6101ZM39.5687 130L44.6807 113.536H48.3047L53.4407 130H50.4647L46.4327 116.248H46.3367L42.4247 130H39.5687ZM42.3527 126.424V124.24H50.5367V126.424H42.3527ZM66.3353 130.144C65.8873 130.144 65.4633 130.064 65.0633 129.904C64.6793 129.728 64.3673 129.416 64.1273 128.968C63.9033 128.52 63.7913 127.88 63.7913 127.048C63.7913 126.344 63.7113 125.752 63.5513 125.272C63.4073 124.776 63.2073 124.384 62.9513 124.096C62.7113 123.792 62.4313 123.568 62.1113 123.424C61.7913 123.28 61.4633 123.208 61.1273 123.208H57.9113V130H55.0073V113.536H62.3273C63.2233 113.536 64.0233 113.72 64.7273 114.088C65.4473 114.44 66.0073 114.936 66.4073 115.576C66.8233 116.216 67.0313 116.976 67.0313 117.856C67.0313 118.88 66.7673 119.768 66.2393 120.52C65.7113 121.256 65.0153 121.712 64.1513 121.888V122.008C64.7273 122.168 65.1993 122.448 65.5673 122.848C65.9513 123.248 66.2393 123.736 66.4313 124.312C66.6233 124.872 66.7193 125.472 66.7193 126.112C66.7193 127.184 66.8073 127.936 66.9833 128.368C67.1593 128.8 67.4793 129.08 67.9433 129.208V129.88C67.7353 129.976 67.4873 130.04 67.1993 130.072C66.9273 130.12 66.6393 130.144 66.3353 130.144ZM57.9113 120.928H61.5113C62.3753 120.928 63.0313 120.68 63.4793 120.184C63.9273 119.672 64.1513 119.04 64.1513 118.288C64.1513 117.536 63.9353 116.944 63.5033 116.512C63.0713 116.064 62.4553 115.84 61.6553 115.84H57.9113V120.928ZM69.0779 130V113.536H74.9819C75.8939 113.536 76.7419 113.664 77.5259 113.92C78.3259 114.16 79.0219 114.544 79.6139 115.072C80.2059 115.6 80.6699 116.288 81.0059 117.136C81.3419 117.968 81.5099 118.968 81.5099 120.136V123.4C81.5099 124.552 81.3419 125.552 81.0059 126.4C80.6699 127.232 80.2059 127.912 79.6139 128.44C79.0219 128.968 78.3259 129.36 77.5259 129.616C76.7419 129.872 75.8939 130 74.9819 130H69.0779ZM72.0539 127.672H74.7659C75.4859 127.672 76.1259 127.552 76.6859 127.312C77.2459 127.072 77.6859 126.664 78.0059 126.088C78.3259 125.496 78.4859 124.672 78.4859 123.616V119.896C78.4859 118.872 78.3259 118.064 78.0059 117.472C77.6859 116.88 77.2459 116.464 76.6859 116.224C76.1259 115.968 75.4859 115.84 74.7659 115.84H72.0539V127.672Z" fill="black"/>
<defs>
<linearGradient id="paint0_linear_1174_376" x1="18.8906" y1="26.0957" x2="79.1599" y2="30.5789" gradientUnits="userSpaceOnUse">
<stop stop-color="#009AE6"/>
<stop offset="1" stop-color="#0B34FF"/>
</linearGradient>
<clipPath id="clip0_1174_376">
<rect width="93" height="93" fill="white"/>
</clipPath>
</defs>
</svg>
