<svg width="46" height="46" viewBox="0 0 46 46" fill="none" xmlns="http://www.w3.org/2000/svg">
<path d="M31.3552 28.3906C31.7231 28.6973 32.0545 29.0374 32.3884 29.3799C32.486 29.4783 32.5837 29.5766 32.6815 29.6749C32.9371 29.9322 33.1913 30.1909 33.4453 30.4498C33.7053 30.7144 33.9666 30.9778 34.2278 31.2412C34.739 31.7572 35.2487 32.2746 35.7576 32.7929C36.1061 32.6316 36.3209 32.4245 36.5886 32.1472C36.9305 31.7971 37.28 31.465 37.6527 31.148C37.8443 30.978 38.0216 30.7978 38.2002 30.6142C38.5504 30.2626 38.7942 30.0329 39.3008 29.9685C39.6907 30.0163 39.8635 30.1103 40.1599 30.3671C40.5092 30.8673 40.5713 31.2307 40.5644 31.8327C40.5651 31.9549 40.5651 31.9549 40.5658 32.0795C40.567 32.3473 40.5655 32.615 40.5639 32.8828C40.5639 33.0697 40.564 33.2566 40.5643 33.4436C40.5644 33.8348 40.5633 34.226 40.5612 34.6172C40.5587 35.1178 40.5589 35.6183 40.56 36.1189C40.5607 36.5047 40.56 36.8906 40.5589 37.2764C40.5584 37.461 40.5584 37.6455 40.5588 37.83C40.559 38.0883 40.5575 38.3465 40.5556 38.6047C40.5562 38.7183 40.5562 38.7183 40.5568 38.8341C40.5508 39.3112 40.4798 39.6491 40.2498 40.0703C39.9724 40.2551 39.9155 40.2724 39.6023 40.2728C39.5254 40.2733 39.4484 40.2738 39.3691 40.2743C39.2429 40.2738 39.2429 40.2738 39.1141 40.2732C39.0253 40.2735 38.9364 40.2738 38.8449 40.2742C38.5505 40.2749 38.2562 40.2744 37.9619 40.2738C37.7577 40.2739 37.5535 40.2741 37.3493 40.2743C36.9209 40.2746 36.4926 40.2742 36.0643 40.2734C35.515 40.2723 34.9656 40.2729 34.4162 40.274C33.9944 40.2747 33.5726 40.2745 33.1508 40.274C32.9482 40.2739 32.7456 40.274 32.5431 40.2744C32.26 40.2749 31.977 40.2742 31.6939 40.2732C31.6099 40.2736 31.526 40.2739 31.4394 40.2743C31.3622 40.2738 31.285 40.2733 31.2055 40.2728C31.1386 40.2727 31.0717 40.2726 31.0027 40.2726C30.687 40.2343 30.5039 40.1257 30.2996 39.885C30.1407 39.5117 30.0985 39.2111 30.1873 38.8124C30.5043 38.2321 31.0291 37.7799 31.4974 37.3223C31.7427 37.0773 31.9681 36.8202 32.1933 36.5569C32.4399 36.2775 32.7054 36.0175 32.9724 35.7578C32.8359 35.4349 32.646 35.2314 32.3972 34.9868C32.2744 34.8653 32.2744 34.8653 32.1492 34.7414C32.1054 34.6985 32.0617 34.6556 32.0166 34.6115C31.879 34.4767 31.7421 34.3412 31.6053 34.2056C31.2164 33.8203 30.8264 33.4361 30.4361 33.0522C30.1971 32.817 29.9587 32.5812 29.7207 32.3449C29.6302 32.2554 29.5394 32.166 29.4483 32.077C29.3206 31.9521 29.1938 31.8263 29.067 31.7004C28.9948 31.6293 28.9225 31.5582 28.848 31.4849C28.4829 31.0592 28.3261 30.628 28.2725 30.0808C28.3237 29.4552 28.5456 29.002 29.0081 28.5759C29.7112 28.0155 30.5674 27.9426 31.3552 28.3906Z" fill="white"/>
<path d="M31.0033 5.73618C31.08 5.73541 31.1567 5.73463 31.2357 5.73384C31.32 5.73345 31.4044 5.73307 31.4913 5.73268C31.58 5.73194 31.6686 5.73121 31.76 5.73045C32.0544 5.72822 32.3488 5.72673 32.6432 5.72544C32.7937 5.72472 32.7937 5.72472 32.9473 5.72399C33.4785 5.72159 34.0097 5.71985 34.541 5.71855C35.0902 5.71705 35.6395 5.71303 36.1887 5.70846C36.6105 5.70543 37.0324 5.70439 37.4542 5.70389C37.6567 5.70328 37.8592 5.70191 38.0617 5.69976C38.345 5.69693 38.6281 5.69691 38.9114 5.69758C38.9952 5.69611 39.079 5.69463 39.1654 5.69312C39.5449 5.69678 39.7499 5.71825 40.0775 5.92257C40.3215 6.31384 40.3125 6.63131 40.3067 7.08433C40.3077 7.21741 40.3077 7.21741 40.3087 7.35319C40.3102 7.64615 40.3085 7.93898 40.3065 8.23194C40.3066 8.43568 40.3068 8.63942 40.3072 8.84317C40.3075 9.27004 40.3061 9.69688 40.3037 10.1237C40.3006 10.6709 40.3012 11.218 40.3028 11.7651C40.3038 12.1858 40.303 12.6065 40.3016 13.0271C40.3012 13.2289 40.3012 13.4306 40.3018 13.6324C40.3023 13.9144 40.3004 14.1962 40.298 14.4782C40.2989 14.6032 40.2989 14.6032 40.2997 14.7308C40.2941 15.1089 40.283 15.3106 40.0786 15.6376C39.7761 15.9192 39.5366 15.9556 39.1323 15.9497C38.4036 15.7996 37.8178 15.0095 37.3192 14.4992C37.0754 14.255 36.8191 14.0307 36.557 13.8065C36.2776 13.5599 36.0176 13.2944 35.7579 13.0273C35.435 13.1639 35.2315 13.3537 34.9869 13.6025C34.9059 13.6844 34.8249 13.7663 34.7415 13.8506C34.6986 13.8943 34.6557 13.9381 34.6116 13.9832C34.4768 14.1207 34.3413 14.2577 34.2057 14.3944C33.8204 14.7833 33.4362 15.1733 33.0523 15.5637C32.8171 15.8027 32.5813 16.0411 32.345 16.2791C32.2554 16.3696 32.1661 16.4604 32.0771 16.5515C31.9522 16.6792 31.8264 16.806 31.7005 16.9327C31.6294 17.005 31.5583 17.0773 31.485 17.1517C30.9863 17.5795 30.4724 17.7132 29.8282 17.6992C29.2404 17.5984 28.7761 17.2438 28.3907 16.8008C28.0549 16.2392 28.0492 15.6676 28.1962 15.046C28.4277 14.4571 28.9358 14.0444 29.38 13.6113C29.4784 13.5138 29.5767 13.4161 29.675 13.3183C29.9323 13.0627 30.191 12.8084 30.4499 12.5544C30.7145 12.2944 30.9779 12.0332 31.2413 11.772C31.7573 11.2608 32.2747 10.751 32.793 10.2422C32.6317 9.89364 32.4246 9.67891 32.1473 9.41114C31.7951 9.06726 31.4608 8.71558 31.1418 8.34073C30.9899 8.16868 30.8297 8.00973 30.6648 7.8501C30.3097 7.49656 30.0392 7.20278 29.9573 6.69336C30.0244 6.27584 30.1605 6.13638 30.4571 5.83985C30.6616 5.73759 30.776 5.73788 31.0033 5.73618Z" fill="white"/>
<path d="M7.08457 5.69332C7.21766 5.69236 7.21766 5.69236 7.35344 5.69137C7.64639 5.68986 7.93923 5.6916 8.23218 5.69352C8.43593 5.69344 8.63967 5.69322 8.84341 5.69286C9.27029 5.6926 9.69712 5.69393 10.124 5.69639C10.6711 5.69945 11.2182 5.69891 11.7654 5.69723C12.1861 5.69628 12.6067 5.69708 13.0274 5.69843C13.2291 5.6989 13.4309 5.69886 13.6326 5.69829C13.9146 5.6978 14.1965 5.69963 14.4784 5.70209C14.5618 5.70151 14.6452 5.70092 14.7311 5.70032C15.1091 5.70592 15.3109 5.7171 15.6378 5.92147C15.8994 6.20249 15.9513 6.42168 15.9451 6.80915C15.8595 7.20916 15.5473 7.45663 15.2625 7.7322C15.1309 7.86552 14.9994 7.99888 14.868 8.13228C14.801 8.19905 14.734 8.26582 14.665 8.33461C14.3562 8.6445 14.0566 8.96271 13.7576 9.282C13.7047 9.33731 13.6519 9.39262 13.5975 9.44961C13.5486 9.50143 13.4998 9.55324 13.4494 9.60663C13.4068 9.65149 13.3642 9.69635 13.3203 9.74256C13.1939 9.89946 13.1116 10.0596 13.0276 10.2422C13.0839 10.2978 13.0839 10.2978 13.1413 10.3545C13.4412 10.6511 13.7404 10.9485 14.0383 11.247C14.1235 11.3322 14.1235 11.3322 14.2103 11.4191C14.4267 11.6432 14.6298 11.8771 14.8304 12.1152C15.0868 12.4006 15.3605 12.6678 15.6331 12.9375C16.0716 13.3719 16.4962 13.8099 16.8909 14.2852C16.9576 14.3593 17.0243 14.4334 17.093 14.5098C17.4572 15.03 17.577 15.4984 17.4875 16.1305C17.3437 16.683 17.0143 17.1265 16.5315 17.4297C15.9634 17.7071 15.4938 17.7732 14.8694 17.6242C14.2786 17.3935 13.8659 16.8855 13.4319 16.4404C13.3343 16.342 13.2366 16.2436 13.1389 16.1454C12.8832 15.8881 12.629 15.6294 12.375 15.3704C12.115 15.1058 11.8537 14.8425 11.5926 14.5791C11.0813 14.0631 10.5716 13.5457 10.0627 13.0274C9.80203 13.1447 9.62269 13.2675 9.42656 13.4749C9.37495 13.5288 9.32333 13.5828 9.27015 13.6384C9.2153 13.6964 9.16046 13.7544 9.10395 13.8142C8.98564 13.9365 8.86725 14.0588 8.74878 14.1809C8.56301 14.3734 8.37785 14.5663 8.1941 14.7607C8.01612 14.9485 7.83591 15.1339 7.65522 15.3191C7.57404 15.4067 7.57404 15.4067 7.49122 15.496C7.21427 15.7763 7.02898 15.9383 6.62473 15.9493C6.24956 15.8968 6.10121 15.812 5.84009 15.543C5.73783 15.3385 5.73812 15.2241 5.73642 14.9968C5.73565 14.9201 5.73488 14.8434 5.73408 14.7644C5.7337 14.68 5.73332 14.5957 5.73292 14.5088C5.73219 14.4201 5.73145 14.3314 5.73069 14.2401C5.72846 13.9457 5.72698 13.6513 5.72568 13.3569C5.7252 13.2565 5.72473 13.1562 5.72423 13.0527C5.72183 12.5215 5.72009 11.9903 5.7188 11.4591C5.7173 10.9098 5.71328 10.3606 5.7087 9.81136C5.70568 9.38953 5.70464 8.96771 5.70413 8.54588C5.70353 8.34338 5.70216 8.14088 5.70001 7.93839C5.69717 7.65509 5.69716 7.37193 5.69783 7.08862C5.69635 7.00483 5.69488 6.92103 5.69336 6.8347C5.69702 6.45513 5.7185 6.25014 5.92282 5.92259C6.31409 5.67853 6.63155 5.68761 7.08457 5.69332Z" fill="white"/>
<path d="M16.711 28.6602C17.1707 29.0314 17.4177 29.5203 17.5196 30.0977C17.5544 30.7161 17.346 31.1406 16.9805 31.625C16.6775 31.9608 16.3559 32.2768 16.0326 32.5929C15.9405 32.6841 15.8485 32.7753 15.7566 32.8665C15.5162 33.1048 15.2752 33.3424 15.0339 33.5797C14.646 33.9612 14.2588 34.3435 13.8724 34.7265C13.7375 34.86 13.6019 34.9929 13.4663 35.1258C13.385 35.2062 13.3037 35.2866 13.22 35.3694C13.1479 35.4403 13.0758 35.5111 13.0016 35.5841C12.8279 35.7416 12.8279 35.7416 12.8477 35.9375C12.987 36.0784 12.987 36.0784 13.1678 36.2239C13.416 36.4346 13.6533 36.648 13.8809 36.8809C14.0921 37.0958 14.309 37.297 14.5379 37.4929C15.8714 38.6434 15.8714 38.6434 15.9238 39.081C15.9358 39.4553 15.9373 39.6551 15.7339 39.9805C15.4756 40.2236 15.3414 40.2613 14.9969 40.2638C14.9201 40.2646 14.8434 40.2654 14.7644 40.2662C14.6801 40.2666 14.5957 40.2669 14.5088 40.2673C14.4202 40.2681 14.3315 40.2688 14.2401 40.2696C13.9457 40.2718 13.6513 40.2733 13.3569 40.2746C13.2566 40.275 13.1562 40.2755 13.0528 40.276C12.5216 40.2784 11.9904 40.2802 11.4592 40.2815C10.9099 40.283 10.3607 40.287 9.8114 40.2916C9.38957 40.2946 8.96775 40.2956 8.54591 40.2961C8.34342 40.2967 8.14092 40.2981 7.93843 40.3002C7.65513 40.3031 7.37197 40.3031 7.08866 40.3024C7.00486 40.3039 6.92107 40.3054 6.83474 40.3069C6.45514 40.3032 6.25023 40.2818 5.92272 40.0773C5.6788 39.6866 5.68699 39.3696 5.69193 38.9171C5.69115 38.8285 5.69036 38.7399 5.68955 38.6487C5.68757 38.3562 5.68888 38.0638 5.6904 37.7712C5.6901 37.5677 5.68966 37.3642 5.6891 37.1606C5.68843 36.7341 5.6894 36.3077 5.6915 35.8812C5.69405 35.3349 5.69258 34.7886 5.68989 34.2423C5.68827 33.822 5.68878 33.4017 5.68995 32.9814C5.69025 32.78 5.68988 32.5785 5.68883 32.3771C5.68769 32.0954 5.68943 31.8138 5.69193 31.532C5.69102 31.449 5.69012 31.3659 5.68918 31.2804C5.6956 30.889 5.71657 30.6272 5.96692 30.3159C6.27997 30.0219 6.27997 30.0219 6.55304 30.0247C6.77824 30.0423 6.88601 30.0703 7.05876 30.2177C7.14792 30.3251 7.23386 30.4352 7.31706 30.5472C7.46646 30.7386 7.62576 30.8843 7.81085 31.041C8.04773 31.2424 8.27269 31.4479 8.49029 31.6699C8.76815 31.9529 9.06147 32.2127 9.36171 32.4715C9.54364 32.6309 9.71536 32.7982 9.88287 32.9727C10.2094 32.8353 10.4131 32.6414 10.6593 32.3892C10.7415 32.3056 10.8237 32.2219 10.9083 32.1357C10.9737 32.0686 10.9737 32.0686 11.0403 32.0002C11.1774 31.8596 11.3151 31.7196 11.4531 31.5799C11.8452 31.1826 12.2364 30.7844 12.6263 30.3849C12.8652 30.1402 13.1051 29.8967 13.3458 29.6538C13.4369 29.5614 13.5276 29.4686 13.6179 29.3753C14.556 28.4066 15.434 27.9479 16.711 28.6602Z" fill="white"/>
</svg>
