<svg width="33" height="32" viewBox="0 0 33 32" fill="none" xmlns="http://www.w3.org/2000/svg">
<path d="M6.41712 14.9727C6.48953 14.9722 6.56193 14.9718 6.63654 14.9713C7.23761 14.9758 7.23761 14.9758 7.54102 15.1875C7.61479 15.3064 7.61479 15.3064 7.65784 15.4336C7.6804 15.4963 7.6804 15.4963 7.70341 15.5603C7.73438 15.6875 7.73438 15.6875 7.73438 15.9375C7.84168 15.9589 7.94913 15.9796 8.05664 16C8.12178 16.0155 8.18692 16.031 8.25403 16.0469C8.4894 16.0663 8.52149 16.0123 8.70118 15.875C9.01106 15.804 9.19047 15.8024 9.47461 15.9375C9.60484 16.0415 9.60484 16.0415 9.7294 16.1641C9.7746 16.2082 9.8198 16.2524 9.86637 16.2979C9.91256 16.344 9.95876 16.39 10.0064 16.4375C10.0535 16.4836 10.1007 16.5297 10.1494 16.5772C10.5905 17.0112 10.5905 17.0112 10.5905 17.4329C10.5703 17.5625 10.5703 17.5625 10.4293 17.7461C10.2967 17.9213 10.2967 17.9213 10.3248 18.0813C10.3884 18.3028 10.3884 18.3028 10.5059 18.5C10.7972 18.6188 11.0481 18.6407 11.3622 18.6409C11.4081 18.6411 11.454 18.6413 11.5012 18.6415C11.6541 18.642 11.8069 18.6416 11.9598 18.6412C12.0698 18.6414 12.1797 18.6416 12.2896 18.6419C12.5876 18.6424 12.8856 18.6422 13.1837 18.6418C13.4957 18.6415 13.8078 18.6418 14.1199 18.642C14.6439 18.6422 15.168 18.6419 15.692 18.6413C16.2976 18.6406 16.9033 18.6409 17.5089 18.6415C18.0291 18.6421 18.5494 18.6422 19.0696 18.6419C19.3802 18.6417 19.6908 18.6416 20.0014 18.6421C20.2934 18.6424 20.5855 18.6422 20.8775 18.6414C20.9846 18.6413 21.0917 18.6413 21.1988 18.6416C21.3451 18.6419 21.4914 18.6415 21.6378 18.6409C21.7196 18.6408 21.8015 18.6408 21.8858 18.6407C22.111 18.6248 22.2863 18.5847 22.4941 18.5C22.6204 18.3271 22.6694 18.148 22.6875 17.9375C22.5735 17.743 22.5735 17.743 22.4297 17.5625C22.3829 17.307 22.3639 17.1647 22.5062 16.9436C22.6244 16.8089 22.7509 16.6866 22.8809 16.5625C22.9376 16.5024 22.9944 16.4423 23.0528 16.3804C23.1136 16.3173 23.1744 16.2543 23.2354 16.1914C23.2919 16.1329 23.3484 16.0743 23.4066 16.0139C23.6261 15.8475 23.7648 15.8202 24.041 15.8125C24.2787 15.8985 24.2787 15.8985 24.4922 16C24.73 16.0882 24.8428 16.0345 25.0723 15.9375C25.1361 15.9375 25.1999 15.9375 25.2656 15.9375C25.2723 15.8615 25.2789 15.7854 25.2858 15.7071C25.3165 15.4733 25.3694 15.3131 25.5234 15.125C25.8435 14.9281 26.2129 14.977 26.5789 14.9766C26.6513 14.9751 26.7238 14.9735 26.7984 14.9719C27.3943 14.9699 27.3943 14.9699 27.631 15.1067C27.7951 15.2653 27.8336 15.348 27.872 15.5664C27.9253 15.7902 27.9253 15.7902 28.0731 15.9595C28.3129 16.0665 28.5006 16.0855 28.7461 16C28.8072 15.9665 28.8684 15.933 28.9314 15.8985C29.1941 15.7864 29.3096 15.7925 29.584 15.875C29.774 16.0037 29.9354 16.1545 30.0996 16.3125C30.1467 16.3566 30.1938 16.4007 30.2424 16.4461C30.7307 16.9093 30.7307 16.9093 30.7635 17.1304C30.7652 17.4478 30.7216 17.6013 30.5508 17.875C30.5646 18.1299 30.5966 18.3488 30.7441 18.5625C30.8924 18.6241 30.8924 18.6241 31.0624 18.6563C31.2625 18.6997 31.3616 18.7214 31.5017 18.8692C31.6951 19.1842 31.6607 19.508 31.6626 19.8633C31.6646 19.9557 31.6646 19.9557 31.6666 20.0499C31.6685 20.3927 31.6571 20.6437 31.4531 20.9375C31.2114 21.1263 30.9845 21.1585 30.6797 21.1875C30.585 21.463 30.5214 21.6571 30.6152 21.9375C30.6368 21.9763 30.6583 22.015 30.6804 22.055C30.7919 22.287 30.7986 22.5008 30.7441 22.75C30.6214 22.9449 30.4622 23.0925 30.293 23.25C30.2435 23.3001 30.1939 23.3502 30.1429 23.4019C29.6157 23.9318 29.6157 23.9318 29.3121 23.9426C29.0152 23.9086 28.8551 23.8688 28.6172 23.6875C28.4563 23.6937 28.4563 23.6937 28.2949 23.75C28.2112 23.7636 28.2112 23.7636 28.1257 23.7774C27.9337 23.8999 27.9329 23.9685 27.876 24.1797C27.8647 24.2337 27.8534 24.2877 27.8417 24.3433C27.7576 24.5545 27.6503 24.6252 27.457 24.75C27.2717 24.7814 27.2717 24.7814 27.0703 24.781C26.9606 24.7811 26.9606 24.7811 26.8488 24.7811C26.773 24.7799 26.6972 24.7787 26.6191 24.7774C26.5434 24.7778 26.4676 24.7782 26.3895 24.7787C25.7514 24.7741 25.7514 24.7741 25.459 24.5625C25.3915 24.4004 25.3915 24.4004 25.3462 24.2188C25.2623 23.9621 25.2623 23.9621 25.0675 23.7818C24.8261 23.6943 24.6973 23.6568 24.4531 23.7553C24.28 23.8636 24.28 23.8636 24.2589 24.0611C24.2591 24.1373 24.2592 24.2135 24.2594 24.292C24.2589 24.3551 24.2589 24.3551 24.2583 24.4195C24.2574 24.5588 24.2588 24.6979 24.2601 24.8372C24.2597 24.9341 24.2592 25.031 24.2585 25.1279C24.257 25.3833 24.2573 25.6387 24.2581 25.8941C24.2593 26.3022 24.2586 26.7103 24.2564 27.1184C24.256 27.2607 24.2569 27.403 24.2578 27.5453C24.2577 27.6331 24.2574 27.721 24.2571 27.8088C24.2575 27.9233 24.2575 27.9233 24.2579 28.0401C24.2225 28.3557 24.1181 28.5576 23.8759 28.7696C23.6032 28.9526 23.3955 28.946 23.0723 28.9446C23.0188 28.9446 22.9654 28.9446 22.9103 28.9446C22.7332 28.9446 22.556 28.9441 22.3788 28.9436C22.2562 28.9435 22.1335 28.9434 22.0109 28.9434C21.6877 28.9431 21.3645 28.9425 21.0414 28.9418C20.7117 28.9412 20.3821 28.9409 20.0525 28.9406C19.4054 28.9399 18.7584 28.9388 18.1113 28.9375C18.1113 29.1438 18.1113 29.35 18.1113 29.5625C18.1852 29.5596 18.2591 29.5567 18.3352 29.5537C18.4338 29.5514 18.5324 29.5491 18.631 29.5469C18.6795 29.5448 18.7279 29.5427 18.7779 29.5405C19.1938 29.5336 19.4529 29.6344 19.7682 29.908C20.0593 30.268 20.1317 30.5512 20.1295 31.0039C20.1306 31.0481 20.1316 31.0923 20.1327 31.1378C20.1329 31.4068 20.1102 31.5564 19.916 31.75C19.7861 31.7815 19.7861 31.7815 19.6347 31.7818C19.5485 31.7828 19.5485 31.7828 19.4605 31.7839C19.3662 31.7831 19.3662 31.7831 19.27 31.7824C19.1704 31.783 19.1704 31.783 19.0689 31.7837C18.8491 31.7848 18.6293 31.7841 18.4094 31.7832C18.257 31.7834 18.1046 31.7836 17.9521 31.7839C17.6324 31.7843 17.3128 31.7838 16.9931 31.7826C16.5828 31.7812 16.1725 31.782 15.7622 31.7835C15.4474 31.7844 15.1326 31.7841 14.8177 31.7835C14.6664 31.7833 14.5151 31.7835 14.3638 31.7841C14.1525 31.7847 13.9413 31.7838 13.73 31.7824C13.6671 31.7829 13.6043 31.7834 13.5395 31.7839C13.482 31.7832 13.4245 31.7825 13.3653 31.7818C13.3154 31.7817 13.2654 31.7816 13.2139 31.7815C13.084 31.75 13.084 31.75 12.9715 31.6371C12.8531 31.4364 12.859 31.2408 12.8624 31.0156C12.863 30.9708 12.8635 30.926 12.8641 30.8798C12.878 30.4574 12.9573 30.1909 13.2592 29.8894C13.5115 29.6681 13.7035 29.5539 14.0515 29.5564C14.1248 29.5567 14.1248 29.5567 14.1995 29.557C14.2501 29.5576 14.3007 29.5581 14.3529 29.5586C14.4043 29.5589 14.4557 29.5592 14.5086 29.5595C14.6353 29.5602 14.762 29.5613 14.8887 29.5625C14.8887 29.3563 14.8887 29.15 14.8887 28.9375C14.8209 28.9381 14.7531 28.9386 14.6833 28.9392C14.0441 28.9443 13.405 28.948 12.7658 28.9505C12.4372 28.9518 12.1086 28.9535 11.78 28.9564C11.4628 28.9591 11.1456 28.9606 10.8284 28.9612C10.7075 28.9617 10.5866 28.9626 10.4656 28.964C10.2961 28.9658 10.1266 28.966 9.95697 28.9659C9.90714 28.9668 9.8573 28.9677 9.80595 28.9686C9.47036 28.9662 9.28256 28.8919 9.02344 28.6875C8.77585 28.4143 8.75753 28.1864 8.75649 27.8301C8.75626 27.7877 8.75604 27.7453 8.75581 27.7016C8.75533 27.6096 8.75499 27.5177 8.75476 27.4257C8.7543 27.2802 8.75329 27.1347 8.75209 26.9892C8.74871 26.5755 8.74562 26.1618 8.74462 25.7481C8.74397 25.495 8.74209 25.2419 8.73938 24.9888C8.73859 24.8923 8.73826 24.7958 8.7384 24.6993C8.73855 24.5645 8.73713 24.4298 8.73534 24.2949C8.73496 24.2182 8.73458 24.1415 8.73419 24.0624C8.71909 23.87 8.71909 23.87 8.57995 23.7543C8.39684 23.6648 8.3144 23.6906 8.1211 23.75C8.06718 23.7647 8.01325 23.7793 7.9577 23.7945C7.78536 23.8622 7.78536 23.8622 7.72229 24.031C7.69637 24.122 7.69637 24.122 7.66993 24.2149C7.57832 24.5356 7.57832 24.5356 7.39927 24.6648C7.07605 24.8174 6.7341 24.7794 6.38086 24.7774C6.30509 24.7786 6.22932 24.7799 6.15125 24.7811C6.07814 24.7811 6.00502 24.7811 5.92969 24.781C5.86322 24.7811 5.79676 24.7813 5.72828 24.7814C5.49603 24.7421 5.38809 24.658 5.22071 24.5C5.1628 24.3455 5.1628 24.3455 5.13208 24.1836C5.07598 23.9589 5.07598 23.9589 4.92437 23.7905C4.76447 23.7201 4.61911 23.685 4.44324 23.6953C4.33761 23.7416 4.23489 23.794 4.13306 23.8477C3.90817 23.948 3.78911 23.9721 3.54493 23.9375C3.22487 23.7562 2.97739 23.5293 2.71912 23.2735C2.6626 23.2186 2.6626 23.2186 2.60494 23.1626C2.3023 22.8661 2.2385 22.7331 2.2405 22.3274C2.26063 22.1441 2.3518 22.0311 2.44922 21.875C2.43201 21.6371 2.38057 21.4177 2.32032 21.1875C2.28218 21.1821 2.24404 21.1767 2.20475 21.1712C1.84839 21.1097 1.64947 21.0376 1.41797 20.75C1.32032 20.4659 1.33899 20.1843 1.33741 19.8867C1.33608 19.8251 1.33475 19.7636 1.33338 19.7001C1.33149 19.3588 1.34008 19.1034 1.54688 18.8125C1.73827 18.6955 1.88194 18.6308 2.10682 18.6055C2.27551 18.5737 2.27551 18.5737 2.37268 18.3906C2.44732 18.1926 2.48199 18.0816 2.44922 17.875C2.41732 17.8286 2.38541 17.7822 2.35254 17.7344C2.21054 17.4819 2.17675 17.2798 2.25586 17C2.42339 16.7651 2.62469 16.573 2.83594 16.375C2.87806 16.3314 2.92019 16.2877 2.96359 16.2427C3.32754 15.8672 3.32754 15.8672 3.60938 15.8125C3.85611 15.8253 4.01603 15.8476 4.22571 15.9766C4.43541 16.0913 4.54138 16.0612 4.76953 16C4.90783 15.9582 4.90783 15.9582 5.02735 15.875C5.0868 15.7204 5.11637 15.5684 5.14971 15.4068C5.22719 15.2357 5.30811 15.1425 5.47437 15.0463C5.77584 14.9414 6.10109 14.9672 6.41712 14.9727ZM6.0586 15.9375C6.01872 16.0709 6.01872 16.0709 5.97803 16.2071C5.90476 16.4522 5.83422 16.5558 5.60743 16.6875C5.4508 16.7587 5.2963 16.8244 5.13611 16.8867C5.09494 16.9038 5.05378 16.9208 5.01136 16.9384C4.72942 17.0489 4.49811 17.0886 4.18946 17.0625C4.13229 17.029 4.07513 16.9955 4.01624 16.961C3.87652 16.8581 3.87652 16.8581 3.73828 16.9024C3.55686 17.0398 3.42903 17.1992 3.28711 17.375C3.35292 17.4698 3.35292 17.4698 3.42005 17.5664C3.5356 17.7328 3.54508 17.8097 3.5336 18.0144C3.47339 18.2814 3.38381 18.5161 3.271 18.7656C3.25247 18.8098 3.23394 18.8539 3.21485 18.8994C3.09356 19.1706 2.99721 19.3135 2.70703 19.4375C2.57913 19.482 2.45038 19.5244 2.32032 19.5625C2.32032 19.7894 2.32032 20.0163 2.32032 20.25C2.41071 20.2629 2.50111 20.2758 2.59424 20.2891C2.82493 20.322 2.88652 20.3582 3.03509 20.5386C3.1647 20.7612 3.27332 20.982 3.37171 21.2188C3.38953 21.2586 3.40735 21.2985 3.42571 21.3396C3.53756 21.6068 3.5604 21.7849 3.48047 22.0625C3.41992 22.1893 3.35634 22.3149 3.28711 22.4375C3.436 22.5819 3.58489 22.7263 3.73828 22.875C3.96678 22.7877 3.96678 22.7877 4.18946 22.6875C4.57802 22.655 4.85492 22.7457 5.20459 22.8906C5.2775 22.9188 5.2775 22.9188 5.35188 22.9475C5.60714 23.0508 5.79493 23.1281 5.92969 23.375C5.97691 23.5196 6.02066 23.6654 6.0586 23.8125C6.29256 23.8125 6.52653 23.8125 6.76758 23.8125C6.79417 23.7236 6.82076 23.6346 6.84815 23.543C6.92142 23.2979 6.99196 23.1943 7.21875 23.0625C7.37538 22.9913 7.52988 22.9256 7.69007 22.8633C7.73124 22.8463 7.7724 22.8292 7.81482 22.8117C8.09676 22.7011 8.32807 22.6615 8.63672 22.6875C8.69388 22.721 8.75105 22.7546 8.80994 22.7891C8.94966 22.8919 8.94966 22.8919 9.08789 22.8477C9.26932 22.7102 9.39715 22.5509 9.53907 22.375C9.49653 22.3209 9.45399 22.2667 9.41016 22.211C9.26411 21.972 9.25335 21.8966 9.28125 21.625C9.33968 21.4385 9.41557 21.2611 9.49475 21.0821C9.51465 21.0346 9.53455 20.9872 9.55505 20.9384C9.65307 20.7117 9.73066 20.5385 9.92579 20.375C10.0956 20.3161 10.2644 20.2866 10.4414 20.25C10.4414 20.0025 10.4414 19.755 10.4414 19.5C10.3457 19.4936 10.25 19.4871 10.1514 19.4805C9.94864 19.4245 9.83303 19.3657 9.71575 19.1931C9.48694 18.7614 9.21615 18.2455 9.28125 17.75C9.34999 17.5887 9.44134 17.4606 9.53907 17.3125C9.39018 17.1681 9.24129 17.0238 9.08789 16.875C8.8594 16.9624 8.8594 16.9624 8.63672 17.0625C8.2149 17.0941 7.90599 17.0158 7.52088 16.8516C7.46921 16.8297 7.41754 16.8078 7.36431 16.7853C7.12964 16.6761 6.98894 16.6034 6.84286 16.3902C6.79175 16.2188 6.79175 16.2188 6.76758 15.9375C6.53362 15.9375 6.29965 15.9375 6.0586 15.9375ZM26.2324 15.9375C26.2205 16.0767 26.2205 16.0767 26.2083 16.2188C26.1304 16.4797 26.0243 16.5876 25.786 16.7154C25.6846 16.7625 25.5822 16.8079 25.4791 16.8516C25.429 16.873 25.3788 16.8944 25.3271 16.9164C24.9921 17.0468 24.7237 17.0929 24.3633 17.0625C24.2554 17.0007 24.1479 16.9384 24.041 16.875C23.771 16.9323 23.6232 17.174 23.4609 17.375C23.5247 17.4562 23.5247 17.4562 23.5898 17.5391C23.7369 17.7797 23.7467 17.8513 23.7188 18.125C23.5949 18.5707 23.4288 19.1613 23.0254 19.4317C22.8486 19.4805 22.8486 19.4805 22.5586 19.5C22.5586 19.7475 22.5586 19.995 22.5586 20.25C22.7034 20.2887 22.8481 20.3273 22.9929 20.366C23.3021 20.5177 23.4043 20.8898 23.5375 21.1836C23.5887 21.2947 23.5887 21.2947 23.641 21.408C23.7346 21.6693 23.7733 21.872 23.6624 22.1323C23.5952 22.2341 23.5281 22.3358 23.4609 22.4375C23.6098 22.5819 23.7587 22.7263 23.9121 22.875C24.1406 22.7877 24.1406 22.7877 24.3633 22.6875C24.7519 22.655 25.0287 22.7457 25.3784 22.8906C25.4513 22.9188 25.4513 22.9188 25.5257 22.9475C25.781 23.0508 25.9688 23.1281 26.1035 23.375C26.1507 23.5196 26.1945 23.6654 26.2324 23.8125C26.4664 23.8125 26.7004 23.8125 26.9414 23.8125C26.9667 23.7236 26.9919 23.6346 27.0179 23.543C27.0729 23.3495 27.1063 23.2701 27.2755 23.1504C27.4821 23.0504 27.689 22.954 27.9002 22.8633C27.9758 22.8302 28.0514 22.7971 28.1293 22.763C28.374 22.6827 28.554 22.6661 28.8106 22.6875C28.8677 22.721 28.9249 22.7546 28.9838 22.7891C29.1235 22.8919 29.1235 22.8919 29.2617 22.8477C29.4432 22.7102 29.571 22.5509 29.7129 22.375C29.669 22.3106 29.6252 22.2461 29.58 22.1797C29.4759 22.0268 29.454 21.9545 29.4657 21.7691C29.5341 21.5068 29.633 21.2646 29.7411 21.0156C29.7612 20.9677 29.7814 20.9198 29.8021 20.8704C29.9539 20.5163 29.9539 20.5163 30.0996 20.375C30.2909 20.3208 30.484 20.288 30.6797 20.25C30.6797 20.0231 30.6797 19.7963 30.6797 19.5625C30.58 19.5342 30.4803 19.5058 30.3776 19.4766C30.1038 19.3702 29.9818 19.2801 29.8499 19.0235C29.8025 18.9122 29.7568 18.8001 29.7129 18.6875C29.674 18.6051 29.674 18.6051 29.6343 18.521C29.4964 18.222 29.4058 18.0111 29.5195 17.6875C29.5801 17.5607 29.6437 17.4351 29.7129 17.3125C29.564 17.1681 29.4151 17.0238 29.2617 16.875C29.0332 16.9624 29.0332 16.9624 28.8106 17.0625C28.422 17.095 28.1451 17.0044 27.7954 16.8594C27.7225 16.8312 27.7225 16.8312 27.6481 16.8025C27.3929 16.6992 27.2051 16.6219 27.0703 16.375C27.0231 16.2304 26.9793 16.0847 26.9414 15.9375C26.7074 15.9375 26.4735 15.9375 26.2324 15.9375ZM11.4082 19.625C11.3869 19.9963 11.3657 20.3675 11.3438 20.75C11.0618 21.0234 11.0618 21.0234 10.7959 21.0781C10.5559 21.1481 10.454 21.2153 10.3326 21.4297C10.2583 21.6078 10.2434 21.6679 10.2883 21.8594C10.3176 21.9058 10.3468 21.9522 10.377 22C10.5236 22.237 10.5438 22.4114 10.5059 22.6875C10.3072 23.031 10.0188 23.2848 9.73243 23.5625C9.73243 25.0269 9.73243 26.4913 9.73243 28C14.199 28 18.6656 28 23.2676 28C23.2676 26.5356 23.2676 25.0713 23.2676 23.5625C23.0762 23.3769 22.8847 23.1913 22.6875 23C22.5043 22.704 22.4272 22.5215 22.4941 22.1875C22.5407 22.1269 22.5872 22.0663 22.6351 22.0039C22.7695 21.8285 22.7695 21.8285 22.7328 21.6687C22.6282 21.3439 22.6282 21.3439 22.3652 21.125C22.2172 21.0762 22.0681 21.0343 21.9178 20.9925C21.7852 20.9375 21.7852 20.9375 21.6563 20.75C21.635 20.3788 21.6137 20.0075 21.5918 19.625C18.2312 19.625 14.8706 19.625 11.4082 19.625ZM15.8555 28.9375C15.8555 29.1438 15.8555 29.35 15.8555 29.5625C16.2809 29.5625 16.7063 29.5625 17.1445 29.5625C17.1445 29.3563 17.1445 29.15 17.1445 28.9375C16.7191 28.9375 16.2938 28.9375 15.8555 28.9375ZM13.9219 30.5625C13.9006 30.6656 13.8793 30.7688 13.8574 30.875C15.6015 30.875 17.3456 30.875 19.1426 30.875C19.1107 30.7203 19.1107 30.7203 19.0781 30.5625C18.8323 30.4174 18.5926 30.4217 18.3102 30.4213C18.2449 30.421 18.2449 30.421 18.1783 30.4207C18.0351 30.4201 17.892 30.4205 17.7488 30.4209C17.6489 30.4208 17.5489 30.4207 17.449 30.4206C17.2399 30.4204 17.0308 30.4206 16.8216 30.4212C16.554 30.4219 16.2863 30.4215 16.0187 30.4208C15.8124 30.4203 15.6062 30.4205 15.3999 30.4208C15.3013 30.4209 15.2026 30.4208 15.1039 30.4205C14.9659 30.4202 14.8278 30.4207 14.6898 30.4213C14.5721 30.4215 14.5721 30.4215 14.452 30.4216C14.2422 30.4377 14.1019 30.4563 13.9219 30.5625Z" fill="white"/>
<path d="M19.9805 1.00002C20.0469 1.04513 20.1134 1.09025 20.1819 1.13674C20.9811 1.8219 21.2948 2.70537 21.4629 3.68752C21.5306 3.70645 21.5983 3.72538 21.6681 3.74489C22.7243 4.04716 23.5569 4.50949 24.1699 5.43752C24.6811 6.3709 24.8128 7.35906 24.5307 8.37856C24.2288 9.3299 23.5819 10.034 22.6875 10.5C22.3448 10.6733 22.0422 10.7807 21.6563 10.8125C21.6585 10.8488 21.6607 10.885 21.6631 10.9224C21.6746 11.2469 21.6596 11.4737 21.4629 11.75C21.2753 11.8915 21.1412 11.9374 20.907 11.9844C20.6696 12.0445 20.6696 12.0445 20.5606 12.2735C20.4742 12.577 20.5074 12.6572 20.6613 12.9258C20.7749 13.1701 20.8011 13.2971 20.7539 13.5625C20.6276 13.7524 20.4667 13.903 20.3027 14.0625C20.2475 14.1227 20.1922 14.1829 20.1353 14.2449C19.6307 14.7854 19.6307 14.7854 19.2876 14.8399C18.9917 14.8393 18.8093 14.7098 18.5625 14.5625C18.3926 14.5621 18.3926 14.5621 18.2402 14.625C18.1844 14.634 18.1286 14.6431 18.071 14.6524C17.846 14.7959 17.8413 14.9786 17.7767 15.2239C17.7042 15.4341 17.5991 15.518 17.4023 15.625C17.1093 15.7124 16.816 15.7014 16.5121 15.7031C16.4273 15.7051 16.4273 15.7051 16.3408 15.707C15.937 15.7094 15.5961 15.6732 15.2875 15.3945C15.2126 15.2532 15.1909 15.1508 15.1626 14.9961C15.1373 14.8654 15.1373 14.8654 15.082 14.75C14.8799 14.6302 14.7379 14.5562 14.4979 14.5703C14.3615 14.6281 14.3615 14.6281 14.1918 14.7227C13.9398 14.8329 13.8089 14.8583 13.5352 14.8125C13.3393 14.6901 13.1831 14.535 13.0195 14.375C12.9569 14.3157 12.8942 14.2565 12.8315 14.1973C12.2548 13.649 12.2548 13.649 12.226 13.3633C12.245 13.138 12.262 13.0773 12.379 12.8985C12.52 12.7043 12.52 12.7043 12.4959 12.5235C12.4772 12.4745 12.4586 12.4255 12.4395 12.375C12.4302 12.3209 12.4208 12.2667 12.4113 12.211C12.2632 11.9927 12.0749 11.9881 11.8219 11.9258C11.6068 11.8557 11.5197 11.7505 11.4082 11.5625C11.3255 11.3219 11.3395 11.1283 11.3438 10.875C11.3048 10.8763 11.2659 10.8776 11.2259 10.879C10.0952 10.912 9.24552 10.847 8.37891 10.0723C7.82582 9.50821 7.63958 8.82725 7.60547 8.06252C7.63302 7.35592 7.9396 6.68974 8.44059 6.17604C8.86841 5.8072 9.29527 5.581 9.86133 5.50002C9.86382 5.43077 9.86382 5.43077 9.86637 5.36012C9.91164 4.57491 10.1503 3.96339 10.6992 3.37502C11.3098 2.84668 11.942 2.60607 12.7617 2.62502C13.5021 2.734 13.5021 2.734 13.793 2.87502C13.8387 2.77761 13.8387 2.77761 13.8854 2.67824C14.1522 2.12619 14.4285 1.67568 14.8887 1.25002C14.9296 1.20981 14.9706 1.16961 15.0128 1.12819C15.355 0.811452 15.7445 0.615939 16.1777 0.437517C16.2297 0.416086 16.2816 0.394655 16.3351 0.372575C17.5806 -0.0422897 18.9465 0.268159 19.9805 1.00002ZM15.4756 1.98122C14.9702 2.51668 14.7315 3.11246 14.6067 3.81594C14.5575 3.96439 14.5003 4.03063 14.3731 4.12502C14.0554 4.1313 13.871 4.04163 13.6036 3.87892C13.1091 3.57803 12.6928 3.50553 12.1172 3.62502C11.5814 3.78299 11.2291 4.19131 10.9611 4.65236C10.8246 5.09611 10.8183 5.53255 10.851 5.99196C10.8281 6.12502 10.8281 6.12502 10.7196 6.23293C10.5516 6.32251 10.4217 6.34772 10.2319 6.37111C9.58289 6.47643 9.22217 6.73578 8.83008 7.25002C8.58271 7.63629 8.53025 8.09357 8.61255 8.53517C8.75258 9.04884 9.0816 9.45943 9.53907 9.75002C9.94737 9.93355 10.3003 9.97176 10.7476 9.97267C10.8076 9.97497 10.8677 9.97727 10.9296 9.97963C11.0983 9.98069 11.2445 9.97726 11.4082 9.93752C11.5619 9.75886 11.5619 9.75886 11.666 9.56252C11.8231 9.50466 11.8231 9.50466 11.9883 9.48049C12.1892 9.43236 12.2834 9.40774 12.4143 9.24977C12.5245 9.02767 12.584 8.88064 12.5281 8.63674C12.4988 8.59162 12.4696 8.5465 12.4395 8.50002C12.2925 8.26245 12.2678 8.08918 12.3106 7.81252C12.437 7.62288 12.5968 7.47103 12.7617 7.31252C12.8175 7.25693 12.8732 7.20134 12.9307 7.14406C13.449 6.63198 13.449 6.63198 13.7769 6.60549C14.0043 6.60549 14.0437 6.61977 14.2361 6.76174C14.4669 6.89153 14.5201 6.88646 14.7719 6.83205C14.9626 6.76662 15.0559 6.73321 15.155 6.55983C15.1844 6.46207 15.2109 6.36343 15.2344 6.26418C15.2965 6.05357 15.4249 5.94657 15.5977 5.81252C15.8906 5.71782 16.181 5.73593 16.4879 5.73439C16.5514 5.7331 16.615 5.73181 16.6804 5.73049C17.0325 5.72865 17.2957 5.73699 17.5957 5.93752C17.7188 6.11655 17.7446 6.20393 17.7891 6.40627C17.851 6.59443 17.8862 6.66803 18.0602 6.77468C18.2337 6.83394 18.3786 6.86886 18.5625 6.87502C18.7666 6.76564 18.7666 6.76564 18.9492 6.62502C19.215 6.5793 19.3605 6.56117 19.5897 6.70143C19.7278 6.81563 19.8537 6.93651 19.9805 7.06252C20.0377 7.11658 20.095 7.17064 20.1539 7.22634C20.6808 7.72707 20.6808 7.72707 20.7096 8.01174C20.6895 8.25002 20.6895 8.25002 20.5485 8.45705C20.4178 8.65801 20.4228 8.78498 20.476 9.01564C20.5437 9.19945 20.5788 9.28774 20.7567 9.38307C20.8576 9.41176 20.9595 9.43729 21.0621 9.45973C21.2742 9.51949 21.3831 9.65619 21.5273 9.81252C21.7537 9.88569 21.8241 9.84688 22.0324 9.7504C22.0718 9.73094 22.1112 9.71148 22.1517 9.69142C22.2124 9.66157 22.2124 9.66157 22.2742 9.63111C22.8976 9.3099 23.3281 8.80844 23.5737 8.16799C23.7845 7.47953 23.7558 6.78821 23.4375 6.13112C23.345 5.9769 23.2463 5.83215 23.1387 5.68752C23.0921 5.62178 23.0456 5.55603 22.9977 5.4883C22.4083 4.91681 21.7439 4.69168 20.938 4.59548C20.7539 4.56252 20.7539 4.56252 20.5606 4.43752C20.5316 4.26959 20.5129 4.11054 20.5001 3.94142C20.4095 3.04297 20.0812 2.30662 19.3473 1.72072C18.1161 0.880493 16.5777 0.976785 15.4756 1.98122ZM16.1133 6.62502C16.088 6.72428 16.0628 6.82353 16.0367 6.9258C15.9844 7.13156 15.9565 7.22359 15.7792 7.35158C15.572 7.44965 15.3653 7.54616 15.1545 7.63674C15.0789 7.66985 15.0033 7.70296 14.9254 7.73708C14.6372 7.83155 14.3898 7.86832 14.1014 7.75783C13.9986 7.69273 13.8958 7.62762 13.793 7.56252C13.6228 7.72752 13.4527 7.89252 13.2773 8.06252C13.3412 8.15726 13.3412 8.15726 13.4063 8.25392C13.56 8.48221 13.5591 8.66828 13.5352 8.93752C13.4798 9.12628 13.4052 9.3041 13.3257 9.48439C13.3063 9.53152 13.287 9.57866 13.267 9.62721C13.1607 9.87423 13.0813 10.0586 12.8262 10.1875C12.6559 10.2439 12.487 10.2754 12.3106 10.3125C12.3106 10.56 12.3106 10.8075 12.3106 11.0625C12.4721 11.1012 12.6337 11.1398 12.7952 11.1785C13.1177 11.3228 13.2166 11.6918 13.3539 11.9922C13.388 12.0655 13.4222 12.1388 13.4574 12.2144C13.5548 12.4938 13.5927 12.7338 13.4788 13.0134C13.4116 13.1131 13.3445 13.2128 13.2773 13.3125C13.4475 13.4775 13.6177 13.6425 13.793 13.8125C13.8907 13.7506 13.8907 13.7506 13.9904 13.6875C14.2258 13.5384 14.4177 13.5393 14.6953 13.5625C14.89 13.6162 15.0734 13.6886 15.2593 13.7656C15.3322 13.7938 15.3322 13.7938 15.4066 13.8225C15.6613 13.9256 15.8514 14.0027 15.9844 14.25C16.0425 14.4151 16.0751 14.5789 16.1133 14.75C16.3685 14.75 16.6238 14.75 16.8867 14.75C16.912 14.6508 16.9372 14.5515 16.9633 14.4492C17.0156 14.2435 17.0435 14.1514 17.2208 14.0235C17.428 13.9254 17.6347 13.8289 17.8455 13.7383C17.9211 13.7052 17.9967 13.6721 18.0746 13.638C18.3628 13.5435 18.6102 13.5067 18.8986 13.6172C19.0014 13.6823 19.1042 13.7474 19.207 13.8125C19.3772 13.6475 19.5473 13.4825 19.7227 13.3125C19.6801 13.2494 19.6376 13.1862 19.5938 13.1211C19.44 12.8928 19.4409 12.7068 19.4648 12.4375C19.5202 12.2488 19.5948 12.0709 19.6743 11.8906C19.6937 11.8435 19.713 11.7964 19.733 11.7478C19.8393 11.5008 19.9187 11.3164 20.1738 11.1875C20.3441 11.1312 20.513 11.0996 20.6895 11.0625C20.6895 10.815 20.6895 10.5675 20.6895 10.3125C20.5359 10.2758 20.5359 10.2758 20.3793 10.2383C20.1671 10.1875 20.0722 10.1605 19.9402 9.98854C19.8391 9.78766 19.7395 9.58724 19.6461 9.38283C19.612 9.30951 19.5778 9.2362 19.5426 9.16066C19.4452 8.88121 19.4073 8.64126 19.5212 8.36159C19.5884 8.2619 19.6555 8.16221 19.7227 8.06252C19.5525 7.89752 19.3823 7.73252 19.207 7.56252C19.1419 7.60377 19.0768 7.64502 19.0096 7.68752C18.7738 7.83685 18.5829 7.83699 18.3047 7.81252C18.0982 7.75384 17.9049 7.67463 17.7085 7.58986C17.6568 7.56968 17.6051 7.5495 17.5519 7.5287C17.3004 7.42165 17.1306 7.34247 17.0166 7.09206C16.97 6.9373 16.9271 6.78145 16.8867 6.62502C16.6315 6.62502 16.3763 6.62502 16.1133 6.62502Z" fill="white"/>
<path d="M18.5247 8.64089C19.1987 9.36045 19.3948 10.0623 19.3606 11.0147C19.3072 11.8472 18.8418 12.4038 18.2201 12.9414C17.5184 13.4319 16.7611 13.5104 15.9199 13.4375C15.1213 13.2879 14.5211 12.8202 14.0508 12.1875C13.6181 11.4467 13.5307 10.6549 13.7182 9.82204C13.9809 9.10249 14.4598 8.55791 15.1465 8.18752C16.2667 7.68428 17.5989 7.79787 18.5247 8.64089ZM15.2593 9.26637C14.8276 9.68217 14.6136 10.0757 14.6067 10.6758C14.6135 11.0691 14.6709 11.3555 14.8887 11.6875C14.9138 11.7265 14.9389 11.7655 14.9647 11.8057C15.2779 12.219 15.7578 12.4527 16.2724 12.5364C16.8822 12.5645 17.3814 12.4068 17.8495 12.0225C17.952 11.9161 18.0319 11.8109 18.1113 11.6875C18.1378 11.6472 18.1642 11.607 18.1914 11.5654C18.4423 11.1124 18.455 10.5801 18.3266 10.0864C18.1494 9.65661 17.8391 9.2656 17.4185 9.03908C16.6743 8.72962 15.8991 8.7455 15.2593 9.26637Z" fill="white"/>
<path d="M28.4364 17.772C28.977 18.2508 29.3609 18.8357 29.406 19.5589C29.4281 20.4502 29.2642 21.1542 28.6149 21.8225C28.0086 22.3773 27.3038 22.6608 26.4691 22.6406C25.6244 22.564 24.9396 22.2249 24.3633 21.625C23.8504 20.9728 23.7035 20.2456 23.7832 19.4375C23.9288 18.6661 24.3306 18.0456 24.9902 17.5894C26.0751 16.9278 27.4344 16.9777 28.4364 17.772ZM25.1206 18.7656C24.7879 19.2726 24.6752 19.7374 24.7737 20.3299C24.8994 20.8051 25.2503 21.1956 25.6647 21.4678C26.1411 21.7098 26.6141 21.7489 27.1348 21.6133C27.7062 21.4311 28.0028 21.1301 28.2949 20.625C28.4942 20.2298 28.4831 19.7533 28.3841 19.3301C28.2033 18.8276 27.8608 18.4585 27.3684 18.2227C26.491 17.8958 25.7659 18.1399 25.1206 18.7656Z" fill="white"/>
<path d="M8.33863 17.8321C8.93682 18.3844 9.22154 19.0762 9.24903 19.875C9.21899 20.7207 8.89604 21.4063 8.26612 21.9883C7.65065 22.4778 6.84673 22.6994 6.0586 22.625C5.23896 22.4729 4.57723 22.128 4.06936 21.4693C3.97026 21.3162 3.88413 21.1626 3.80274 21C3.78089 20.9588 3.75904 20.9175 3.73652 20.875C3.48934 20.3095 3.51437 19.5082 3.71412 18.9336C4.05285 18.1851 4.5734 17.623 5.36245 17.3108C6.41501 16.9564 7.47418 17.152 8.33863 17.8321ZM4.98304 18.7344C4.61521 19.1645 4.53524 19.5516 4.54924 20.1089C4.61088 20.5748 4.85065 20.951 5.22071 21.25C5.25452 21.2776 5.28834 21.3051 5.32318 21.3335C5.71851 21.6343 6.13798 21.7301 6.63868 21.6875C7.24883 21.5453 7.69505 21.2485 8.05664 20.75C8.28049 20.3258 8.32888 19.8625 8.20771 19.4016C8.02098 18.892 7.72223 18.5157 7.23084 18.2539C6.39634 17.8928 5.60253 18.0949 4.98304 18.7344Z" fill="white"/>
<path d="M15.2192 21.5452C15.3398 21.5625 15.3398 21.5625 15.4647 21.6289C15.5739 21.8219 15.5977 21.9675 15.5977 22.1875C15.4365 22.3579 15.4365 22.3579 15.2754 22.5C15.3247 22.5002 15.3741 22.5005 15.4249 22.5007C15.8906 22.5031 16.3562 22.5066 16.8218 22.5115C17.0611 22.514 17.3005 22.516 17.5399 22.517C17.771 22.5179 18.0021 22.5201 18.2332 22.523C18.3212 22.524 18.4093 22.5245 18.4974 22.5245C18.6209 22.5247 18.7445 22.5265 18.8681 22.5284C18.9735 22.5292 18.9735 22.5292 19.081 22.5301C19.3156 22.57 19.4248 22.6529 19.5938 22.8125C19.6534 22.9996 19.6233 23.1119 19.5938 23.3125C19.4491 23.459 19.3587 23.497 19.1508 23.5249C19.0434 23.526 19.0434 23.526 18.9339 23.527C18.812 23.5289 18.812 23.5289 18.6876 23.5308C18.5993 23.5312 18.5109 23.5316 18.4225 23.532C18.3318 23.5331 18.2412 23.5342 18.1505 23.5354C17.9123 23.5384 17.6741 23.5402 17.4359 23.5419C17.1927 23.5437 16.9494 23.5466 16.7062 23.5495C16.2293 23.5548 15.7523 23.559 15.2754 23.5625C15.3285 23.6196 15.3816 23.6768 15.4363 23.7356C15.5912 23.9023 15.5974 23.9255 15.6017 24.168C15.5332 24.375 15.5332 24.375 15.4244 24.4961C15.2239 24.5855 15.109 24.5892 14.8887 24.5625C14.7248 24.4664 14.5895 24.345 14.4496 24.2188C14.3705 24.1494 14.2913 24.0801 14.2122 24.0108C14.1739 23.9767 14.1356 23.9427 14.0961 23.9076C14.0002 23.8245 13.8998 23.7463 13.7988 23.669C13.3717 23.3408 13.3717 23.3408 13.3378 23.0625C13.4069 22.5417 14.0871 22.1736 14.475 21.8738C14.6278 21.7587 14.6278 21.7587 14.7323 21.6414C14.8832 21.5119 15.0264 21.5366 15.2192 21.5452Z" fill="white"/>
<path d="M8.95899 10.9375C9.1808 11.2403 9.08436 11.6389 9.06025 11.9903C9.05168 12.1204 9.04551 12.2505 9.03943 12.3808C9.03416 12.4641 9.02875 12.5474 9.02319 12.6306C9.01866 12.706 9.01412 12.7813 9.00945 12.8589C8.94608 13.1146 8.84911 13.2152 8.63672 13.375C8.41127 13.375 8.26135 13.3542 8.0647 13.2461C7.94885 13.0526 7.95299 12.8461 7.92774 12.625C7.87866 12.6739 7.82958 12.7228 7.77902 12.7732C7.5965 12.9547 7.41312 13.1354 7.22947 13.3159C7.15016 13.394 7.07108 13.4724 6.99224 13.551C6.87877 13.6641 6.76448 13.7763 6.65 13.8884C6.61501 13.9237 6.58002 13.9589 6.54397 13.9952C6.34976 14.1836 6.21075 14.3044 5.92969 14.3125C5.72389 14.229 5.63054 14.162 5.51477 13.9766C5.46782 13.7641 5.50529 13.6931 5.60743 13.5C5.72612 13.3694 5.84413 13.2486 5.97249 13.1277C6.02587 13.0763 6.02587 13.0763 6.08032 13.0239C6.19348 12.9153 6.3073 12.8072 6.42115 12.6992C6.49823 12.6254 6.57527 12.5516 6.65227 12.4777C6.84059 12.2971 7.02951 12.1172 7.21875 11.9375C7.08985 11.9256 6.96095 11.9136 6.83205 11.9017C6.70313 11.875 6.70313 11.875 6.53797 11.7422C6.41517 11.5041 6.43246 11.378 6.50977 11.125C6.71068 10.9329 6.88142 10.9078 7.15757 10.8875C7.27105 10.8791 7.27105 10.8791 7.38681 10.8705C7.46561 10.8655 7.54442 10.8606 7.62561 10.8555C7.70367 10.8493 7.78173 10.8432 7.86215 10.8368C8.62166 10.7848 8.62166 10.7848 8.95899 10.9375Z" fill="white"/>
<path d="M24.75 10.6875C24.8899 10.8024 25.014 10.9142 25.1402 11.0415C25.1755 11.076 25.2107 11.1105 25.247 11.1461C25.3585 11.2557 25.4692 11.3661 25.5798 11.4766C25.6556 11.5513 25.7315 11.6261 25.8074 11.7007C25.9928 11.8832 26.1773 12.0664 26.3613 12.25C26.3676 12.2064 26.374 12.1627 26.3805 12.1177C26.3901 12.0608 26.3997 12.0039 26.4097 11.9453C26.4186 11.8888 26.4276 11.8322 26.4369 11.7739C26.4902 11.625 26.4902 11.625 26.6098 11.5423C26.8272 11.4758 26.9817 11.505 27.1992 11.5625C27.4551 11.8948 27.4428 12.2238 27.457 12.625C27.4588 12.6738 27.4605 12.7225 27.4624 12.7727C27.4674 12.9331 27.4706 13.0935 27.4731 13.2539C27.4745 13.306 27.4759 13.3581 27.4774 13.4118C27.4776 13.461 27.4779 13.5101 27.4782 13.5608C27.4791 13.6268 27.4791 13.6268 27.48 13.6941C27.4495 13.8514 27.3953 13.9056 27.2637 14C27.0784 14.0156 26.9086 14.0206 26.7239 14.0156C26.6463 14.0144 26.6463 14.0144 26.5672 14.0132C26.4126 14.0101 26.2581 14.0054 26.1035 14C26.0205 13.9974 25.9375 13.9947 25.852 13.992C25.2279 13.9594 25.2279 13.9594 24.9434 13.75C24.884 13.5391 24.854 13.3893 24.9225 13.1785C25.0078 13.0625 25.0078 13.0625 25.1614 13.0108C25.2197 13.0021 25.278 12.9934 25.3381 12.9844C25.3968 12.975 25.4555 12.9657 25.5159 12.9561C25.5609 12.95 25.606 12.9438 25.6523 12.9375C25.6019 12.8903 25.5515 12.843 25.4995 12.7943C25.3122 12.6183 25.1259 12.4412 24.9399 12.2638C24.8594 12.1873 24.7785 12.111 24.6974 12.0351C24.5806 11.9257 24.465 11.8153 24.3494 11.7046C24.3131 11.671 24.2768 11.6374 24.2394 11.6028C24.0199 11.3901 23.9234 11.2405 23.9121 10.9375C23.9654 10.7514 24.0157 10.7025 24.186 10.6016C24.4222 10.5495 24.5281 10.594 24.75 10.6875Z" fill="white"/>
</svg>
