<svg width="30" height="30" viewBox="0 0 30 30" fill="none" xmlns="http://www.w3.org/2000/svg">
<g clip-path="url(#clip0_844_21894)">
<path d="M15.5409 0.563332C15.8609 0.729572 16.175 1.06403 16.2891 1.4063C16.355 2.26712 16.355 2.26712 16.0547 2.63677C15.8464 2.84841 15.7029 2.97374 15.4102 3.04693C15.4102 4.8065 15.4102 6.56607 15.4102 8.37896C16.2609 8.37896 17.1117 8.37896 17.9883 8.37896C17.9883 7.68287 17.9883 6.98677 17.9883 6.26958C17.8916 6.23091 17.7949 6.19224 17.6953 6.1524C17.3738 5.93588 17.216 5.70619 17.1094 5.33208C17.0431 4.94312 17.1174 4.63661 17.3067 4.29319C17.4965 4.02932 17.7398 3.85241 18.0469 3.75005C18.4968 3.71251 18.9085 3.69792 19.2773 3.98443C19.6052 4.2873 19.746 4.58047 19.7681 5.02813C19.7588 5.39253 19.6601 5.69561 19.4131 5.96838C19.2258 6.13755 19.1188 6.20668 18.8672 6.26958C18.8672 6.96568 18.8672 7.66177 18.8672 8.37896C19.099 8.37773 19.3309 8.3765 19.5697 8.37524C20.3359 8.37136 21.1021 8.36876 21.8682 8.36682C22.3327 8.36561 22.7972 8.36396 23.2617 8.36128C23.6667 8.35894 24.0717 8.35743 24.4767 8.35691C24.691 8.3566 24.9053 8.35589 25.1196 8.35418C25.3592 8.35228 25.5988 8.35224 25.8384 8.35235C25.909 8.35151 25.9796 8.35067 26.0524 8.3498C26.5115 8.35205 26.8288 8.40916 27.1889 8.71358C27.215 8.74576 27.2411 8.77794 27.2681 8.81109C27.2951 8.84296 27.3222 8.87484 27.35 8.90768C27.5673 9.25776 27.5554 9.61119 27.5532 10.009C27.5533 10.105 27.5533 10.105 27.5535 10.2028C27.5537 10.4171 27.553 10.6314 27.5524 10.8457C27.5523 10.9993 27.5524 11.1529 27.5524 11.3065C27.5525 11.6372 27.5521 11.968 27.5515 12.2987C27.5505 12.7768 27.5502 13.255 27.5501 13.7332C27.5498 14.509 27.549 15.2848 27.5479 16.0606C27.5468 16.8142 27.546 17.5677 27.5455 18.3213C27.5455 18.3677 27.5454 18.4142 27.5454 18.4621C27.5453 18.6952 27.5451 18.9283 27.545 19.1613C27.5437 21.0946 27.5417 23.0278 27.5391 24.961C27.5875 24.9604 27.636 24.9598 27.686 24.9591C27.9055 24.9567 28.1251 24.9552 28.3447 24.9537C28.421 24.9527 28.4973 24.9517 28.5759 24.9507C28.6858 24.9501 28.6858 24.9501 28.7979 24.9495C28.8654 24.9489 28.9329 24.9483 29.0025 24.9477C29.1752 24.9607 29.2715 24.9823 29.4141 25.0782C29.5446 25.3392 29.4888 25.6926 29.491 25.9791C29.4927 26.0509 29.4944 26.1227 29.4961 26.1967C29.5031 27.2078 29.1132 27.9438 28.418 28.6524C28.3855 28.6863 28.353 28.7202 28.3196 28.7552C27.6285 29.4135 26.7317 29.4903 25.8319 29.4884C25.7349 29.4886 25.6378 29.4889 25.5408 29.4892C25.2748 29.4899 25.0088 29.4899 24.7427 29.4897C24.4556 29.4897 24.1684 29.4904 23.8813 29.4909C23.3189 29.4919 22.7565 29.4922 22.1942 29.4923C21.7369 29.4923 21.2797 29.4926 20.8225 29.493C19.5256 29.494 18.2288 29.4945 16.932 29.4944C16.8621 29.4944 16.7922 29.4944 16.7202 29.4944C16.6502 29.4944 16.5802 29.4944 16.5081 29.4944C15.3742 29.4944 14.2404 29.4955 13.1065 29.4971C11.9417 29.4988 10.777 29.4996 9.61225 29.4995C8.95853 29.4995 8.30482 29.4998 7.6511 29.5011C7.09447 29.5021 6.53784 29.5024 5.9812 29.5016C5.69737 29.5012 5.41354 29.5012 5.12971 29.5022C4.8695 29.5031 4.60931 29.503 4.3491 29.502C4.25534 29.5018 4.16157 29.502 4.06781 29.5026C3.05193 29.5093 2.23396 29.2607 1.48567 28.5576C1.10005 28.1675 0.837966 27.7605 0.644534 27.2461C0.622932 27.1892 0.60133 27.1322 0.579074 27.0736C0.483703 26.7264 0.508126 26.3579 0.509036 26.001C0.508092 25.9261 0.507148 25.8512 0.506175 25.774C0.506137 25.7024 0.506099 25.6308 0.506061 25.557C0.505886 25.4918 0.505711 25.4266 0.505531 25.3594C0.527347 25.1954 0.527347 25.1954 0.609243 25.0885C1.1079 24.7223 1.84225 24.961 2.46094 24.961C2.46094 22.3893 2.46094 19.8176 2.46094 17.168C2.07422 17.168 1.6875 17.168 1.28907 17.168C0.91393 16.9805 0.685151 16.8043 0.527347 16.4063C0.511677 16.2322 0.511677 16.2322 0.510324 16.0268C0.509576 15.9497 0.508828 15.8726 0.508058 15.7932C0.507879 15.7092 0.507748 15.6252 0.507663 15.5411C0.507286 15.4546 0.506892 15.368 0.506481 15.2815C0.505779 15.1 0.505562 14.9186 0.505631 14.7371C0.505643 14.5055 0.504046 14.274 0.502025 14.0425C0.500716 13.8636 0.500484 13.6847 0.500546 13.5059C0.500408 13.4206 0.499896 13.3353 0.498985 13.25C0.494488 12.7851 0.497427 12.4098 0.761722 12.0118C1.02422 11.7493 1.30411 11.6545 1.6713 11.6488C1.76606 11.6495 1.86082 11.6509 1.95557 11.6529C2.00429 11.6534 2.053 11.6539 2.1032 11.6545C2.22245 11.6559 2.3417 11.658 2.46094 11.6602C2.46002 11.5934 2.4591 11.5267 2.45815 11.4579C2.45495 11.2085 2.45295 10.9591 2.45128 10.7096C2.4504 10.602 2.44921 10.4944 2.44768 10.3867C2.44553 10.2314 2.44455 10.0761 2.44377 9.92071C2.44287 9.87314 2.44196 9.82558 2.44103 9.77657C2.44092 9.4033 2.49976 9.07077 2.74613 8.77493C2.78495 8.74335 2.82377 8.71178 2.86377 8.67925C2.90229 8.64677 2.94081 8.6143 2.9805 8.58083C3.22423 8.41567 3.43475 8.36431 3.7273 8.36487C3.79278 8.36471 3.85826 8.36454 3.92573 8.36438C3.99699 8.3648 4.06826 8.36522 4.14169 8.36566C4.25491 8.36563 4.25491 8.36563 4.37042 8.3656C4.57693 8.36557 4.78343 8.36626 4.98994 8.36708C5.20593 8.36781 5.42192 8.36788 5.63791 8.36802C6.04671 8.36838 6.4555 8.36934 6.8643 8.37052C7.32978 8.37183 7.79527 8.37247 8.26076 8.37306C9.21812 8.37429 10.1755 8.37644 11.1328 8.37896C11.1328 7.68287 11.1328 6.98677 11.1328 6.26958C10.9588 6.21158 10.9588 6.21158 10.7813 6.1524C10.4736 5.89174 10.278 5.59982 10.2416 5.19453C10.2225 4.70948 10.369 4.38663 10.6762 4.0183C11.0064 3.72767 11.3318 3.71948 11.7529 3.72968C12.1224 3.76727 12.3273 3.88989 12.5867 4.14922C12.8501 4.53311 12.9622 4.8704 12.8906 5.33208C12.7546 5.7597 12.5251 6.05443 12.1289 6.26958C12.0902 6.26958 12.0516 6.26958 12.0117 6.26958C12.0117 6.96568 12.0117 7.66177 12.0117 8.37896C12.8625 8.37896 13.7133 8.37896 14.5898 8.37896C14.5898 6.61939 14.5898 4.85982 14.5898 3.04693C14.5125 3.02759 14.4352 3.00826 14.3555 2.98833C14.2362 2.90525 14.2362 2.90525 14.1174 2.80157C14.0781 2.76811 14.0387 2.73465 13.9982 2.70017C13.6912 2.36421 13.6796 2.03863 13.691 1.60223C13.7354 1.16613 13.9799 0.943282 14.3026 0.667015C14.6241 0.433296 15.1712 0.461689 15.5409 0.563332ZM14.6851 1.50152C14.5613 1.68239 14.554 1.7771 14.5898 1.99224C14.6777 2.13873 14.6777 2.13873 14.8242 2.22662C15.0394 2.26247 15.1341 2.25515 15.3149 2.1314C15.4387 1.95053 15.446 1.85582 15.4102 1.64068C15.3223 1.49419 15.3223 1.49419 15.1758 1.4063C14.9606 1.37045 14.8659 1.37776 14.6851 1.50152ZM11.2244 4.72417C11.1052 4.90534 11.0973 5.00183 11.1328 5.2149C11.217 5.36256 11.217 5.36256 11.3672 5.44927C11.5723 5.49322 11.5723 5.49322 11.7773 5.44927C11.9331 5.33266 11.9331 5.33266 12.0117 5.1563C12.008 4.96974 11.983 4.85459 11.8872 4.69488C11.6606 4.55888 11.4391 4.58105 11.2244 4.72417ZM18.0762 4.75347C17.9735 4.91733 17.9735 4.91733 17.9919 5.10503C18.0575 5.31737 18.0575 5.31737 18.2227 5.44927C18.4252 5.48834 18.4252 5.48834 18.6328 5.44927C18.7886 5.33266 18.7886 5.33266 18.8672 5.1563C18.8635 4.96974 18.8385 4.85459 18.7427 4.69488C18.5006 4.54962 18.2858 4.57526 18.0762 4.75347ZM3.33985 9.49224C3.3194 9.66564 3.31243 9.81653 3.31696 9.98937C3.31729 10.0372 3.31762 10.0849 3.31796 10.1342C3.31927 10.2865 3.32221 10.4386 3.3252 10.5909C3.32637 10.6943 3.32744 10.7976 3.3284 10.901C3.33098 11.1541 3.33503 11.4071 3.33985 11.6602C3.55254 11.6602 3.76524 11.6602 3.98438 11.6602C3.98589 11.5572 3.9874 11.4542 3.98896 11.348C3.99225 11.2128 3.99561 11.0776 3.99903 10.9424C3.99986 10.8745 4.00069 10.8066 4.00154 10.7367C4.00343 10.6713 4.00532 10.606 4.00727 10.5387C4.00849 10.4785 4.00972 10.4184 4.01099 10.3564C4.0519 10.1504 4.11355 10.0904 4.27735 9.96099C4.44369 9.93161 4.44369 9.93161 4.64045 9.9315C4.75299 9.93058 4.75299 9.93058 4.8678 9.92964C4.95123 9.93015 5.03467 9.93068 5.1181 9.93123C5.20659 9.93096 5.29509 9.93059 5.38358 9.93012C5.62712 9.92914 5.87063 9.92963 6.11416 9.93035C6.37666 9.93088 6.63916 9.93007 6.90165 9.92942C7.41603 9.92838 7.93039 9.9286 8.44477 9.92928C8.86271 9.92981 9.28064 9.92988 9.69858 9.92963C9.758 9.92959 9.81742 9.92956 9.87864 9.92952C9.99934 9.92944 10.12 9.92937 10.2407 9.92929C11.3733 9.92862 12.5058 9.92939 13.6383 9.93065C14.6107 9.9317 15.5831 9.93152 16.5554 9.93044C17.6838 9.92918 18.8122 9.92869 19.9406 9.92941C20.0609 9.92948 20.1812 9.92955 20.3014 9.92963C20.3902 9.92968 20.3902 9.92968 20.4807 9.92974C20.8983 9.92994 21.3159 9.9296 21.7335 9.92905C22.2421 9.92839 22.7508 9.92857 23.2595 9.92982C23.5192 9.93043 23.7789 9.93067 24.0385 9.9299C24.2761 9.9292 24.5136 9.92958 24.7511 9.93083C24.8372 9.93109 24.9233 9.93096 25.0094 9.93039C25.1261 9.92968 25.2429 9.93055 25.3596 9.9315C25.4245 9.93154 25.4894 9.93157 25.5563 9.93161C25.7642 9.96832 25.8333 10.0264 25.957 10.1954C25.9865 10.3192 25.9865 10.3192 25.9868 10.4548C25.9875 10.5067 25.9881 10.5586 25.9888 10.6121C25.9884 10.6689 25.9879 10.7256 25.9874 10.7841C25.9881 10.8749 25.9881 10.8749 25.9888 10.9674C25.99 11.1708 25.9895 11.3741 25.989 11.5774C25.9895 11.7229 25.9901 11.8684 25.9909 12.0139C25.9922 12.3275 25.9927 12.6411 25.9927 12.9547C25.9926 13.4081 25.9938 13.8615 25.9953 14.3148C25.9977 15.0504 25.999 15.786 25.9998 16.5216C26.0004 17.2362 26.0016 17.9507 26.0035 18.6653C26.0036 18.7094 26.0037 18.7534 26.0038 18.7988C26.0044 19.0197 26.005 19.2407 26.0056 19.4616C26.0104 21.2947 26.0136 23.1279 26.0156 24.961C26.2283 24.961 26.441 24.961 26.6602 24.961C26.6655 22.9944 26.6697 21.0277 26.6721 19.0611C26.6724 18.829 26.6727 18.597 26.673 18.3649C26.6731 18.3187 26.6732 18.2725 26.6732 18.2249C26.6742 17.4764 26.6761 16.7278 26.6782 15.9793C26.6804 15.2115 26.6817 14.4437 26.6822 13.6759C26.6825 13.2019 26.6836 12.728 26.6855 12.254C26.6868 11.8909 26.687 11.5278 26.6867 11.1646C26.6867 11.0155 26.6872 10.8663 26.6881 10.7171C26.6893 10.5139 26.689 10.3108 26.6883 10.1077C26.689 10.0482 26.6897 9.98867 26.6904 9.92736C26.6899 9.87301 26.6895 9.81866 26.689 9.76266C26.6891 9.71576 26.6892 9.66886 26.6893 9.62054C26.6474 9.43596 26.5776 9.36907 26.4258 9.25787C26.2456 9.22273 26.2456 9.22273 26.0407 9.22837C25.9825 9.22786 25.9825 9.22786 25.9232 9.22734C25.7927 9.22648 25.6622 9.2273 25.5316 9.2281C25.4373 9.22783 25.3431 9.22746 25.2488 9.227C24.9892 9.22602 24.7296 9.2265 24.4701 9.22723C24.1903 9.22776 23.9106 9.22694 23.6308 9.22629C23.0826 9.22525 22.5344 9.22548 21.9862 9.22616C21.5408 9.22668 21.0953 9.22676 20.6499 9.2265C20.5866 9.22647 20.5233 9.22643 20.458 9.22639C20.3294 9.22632 20.2008 9.22624 20.0722 9.22617C18.8652 9.2255 17.6582 9.22627 16.4512 9.22753C15.4149 9.22857 14.3786 9.22839 13.3423 9.22731C12.1397 9.22606 10.9371 9.22556 9.73456 9.22628C9.60641 9.22636 9.47825 9.22643 9.35009 9.2265C9.28702 9.22654 9.22396 9.22658 9.15899 9.22661C8.71394 9.22682 8.2689 9.22647 7.82385 9.22592C7.28172 9.22527 6.73959 9.22544 6.19745 9.22669C5.92068 9.22731 5.64392 9.22754 5.36716 9.22677C5.11401 9.22608 4.86089 9.22645 4.60775 9.22771C4.51596 9.22797 4.42417 9.22783 4.33238 9.22727C4.20798 9.22656 4.08368 9.22728 3.95929 9.22837C3.89009 9.22841 3.82089 9.22845 3.74959 9.22849C3.53624 9.26423 3.46656 9.31919 3.33985 9.49224ZM4.86328 10.7813C4.86328 11.0713 4.86328 11.3614 4.86328 11.6602C4.95845 11.6611 5.05362 11.6619 5.15168 11.6628C5.50593 11.6662 5.86016 11.6707 6.2144 11.6756C6.3675 11.6775 6.52061 11.6792 6.67371 11.6805C6.89423 11.6825 7.11471 11.6855 7.33521 11.6888C7.40328 11.6892 7.47135 11.6896 7.54149 11.69C7.97491 11.6977 8.37115 11.711 8.69385 12.0337C8.86837 12.3157 8.92115 12.5349 8.92421 12.8667C8.92514 12.9438 8.92608 13.0208 8.92704 13.1002C8.92742 13.184 8.92774 13.2677 8.928 13.3514C8.92852 13.4379 8.92906 13.5244 8.9296 13.6108C8.93057 13.7919 8.93102 13.973 8.93119 14.1541C8.9315 14.3853 8.93371 14.6163 8.93639 14.8474C8.93814 15.026 8.93855 15.2046 8.93861 15.3832C8.93886 15.4684 8.93958 15.5535 8.94081 15.6387C8.94823 16.1973 8.8998 16.5681 8.51075 16.9849C8.37421 17.0532 8.2559 17.0818 8.107 17.1135C8.03537 17.129 8.03537 17.129 7.96229 17.1447C7.92575 17.1524 7.88921 17.1601 7.85157 17.168C7.85071 17.2062 7.84986 17.2443 7.84898 17.2836C7.84461 17.4563 7.83895 17.6289 7.83326 17.8016C7.83193 17.8616 7.83061 17.9216 7.82925 17.9834C7.82717 18.041 7.8251 18.0986 7.82296 18.1579C7.82142 18.211 7.81989 18.2641 7.81831 18.3188C7.7883 18.4826 7.75117 18.5361 7.61719 18.6329C7.41944 18.6622 7.41944 18.6622 7.20703 18.6329C7.06055 18.512 7.06055 18.512 6.91407 18.3399C6.8486 18.2747 6.78265 18.2101 6.71631 18.1458C6.4083 17.8378 6.13137 17.508 5.85938 17.168C5.53067 17.168 5.20196 17.168 4.86328 17.168C4.86328 19.7397 4.86328 22.3114 4.86328 24.961C5.71407 24.961 10.5648 24.961 11.4414 24.961C11.5188 24.6709 11.5961 24.3809 11.6758 24.0821C11.7867 23.8504 11.8894 23.6499 12.0273 23.4376C12.0574 23.3913 12.0875 23.3449 12.1184 23.2972C12.6562 22.542 13.4887 22.1592 14.3711 21.9727C14.2408 21.8284 14.1172 21.7523 13.9426 21.6688C13.5176 21.4386 13.3002 21.0702 13.1406 20.6251C13.0098 20.1611 13.073 19.7155 13.2578 19.2774C13.4843 18.8795 13.8153 18.5657 14.2399 18.3902C14.7201 18.2628 15.3377 18.2548 15.7801 18.4971C16.2452 18.8106 16.559 19.162 16.6922 19.7212C16.7876 20.3195 16.6347 20.8397 16.2855 21.3298C16.051 21.6064 15.7517 21.7631 15.4258 21.9141C15.4258 21.9335 15.4258 21.9528 15.4258 21.9727C15.4684 21.9813 15.511 21.9899 15.5549 21.9988C16.4842 22.2061 17.2425 22.6533 17.7842 23.4462C18.0835 23.934 18.2143 24.3961 18.3555 24.961C21.9133 24.961 21.4711 24.961 25.1367 24.961C25.1367 20.2817 25.1367 15.6024 25.1367 10.7813C18.4465 10.7813 11.7563 10.7813 4.86328 10.7813ZM1.40625 12.6563C1.34427 12.8372 1.33994 13.0075 1.33915 13.1977C1.33877 13.2589 1.3384 13.3201 1.33801 13.3832C1.33795 13.449 1.33788 13.5148 1.33782 13.5826C1.33762 13.6505 1.33743 13.7184 1.33723 13.7884C1.33693 13.9319 1.33679 14.0755 1.3368 14.2191C1.33667 14.4387 1.33561 14.6583 1.3345 14.8779C1.33433 15.0174 1.33421 15.157 1.33416 15.2965C1.33373 15.3621 1.33331 15.4278 1.33288 15.4955C1.33306 15.5569 1.33324 15.6183 1.33343 15.6815C1.33334 15.7353 1.33326 15.7892 1.33317 15.8446C1.34907 16.0109 1.39595 16.1377 1.46485 16.2891C1.52366 16.2892 1.58246 16.2893 1.64306 16.2894C2.19742 16.2903 2.75176 16.2929 3.30611 16.2969C3.59111 16.2989 3.87608 16.3003 4.16109 16.3006C4.43617 16.3008 4.7112 16.3025 4.98627 16.3051C5.09118 16.3059 5.19609 16.3061 5.30101 16.3059C5.44805 16.3056 5.59498 16.3071 5.742 16.3091C5.80699 16.3083 5.80699 16.3083 5.8733 16.3075C6.10392 16.3127 6.20041 16.3389 6.37947 16.4892C6.42053 16.5392 6.4616 16.5892 6.50391 16.6407C6.57711 16.7152 6.65035 16.7896 6.72364 16.8641C6.77575 16.9172 6.77575 16.9172 6.82892 16.9714C6.9018 17.0575 6.9018 17.0575 6.97266 17.0508C6.97908 17.0099 6.9855 16.969 6.99211 16.9268C7.0014 16.8735 7.01069 16.8201 7.02027 16.7652C7.03352 16.6857 7.03352 16.6857 7.04705 16.6045C7.08985 16.4649 7.08985 16.4649 7.26563 16.3477C7.44942 16.3234 7.44942 16.3234 7.65747 16.3111C7.72658 16.3067 7.7957 16.3023 7.8669 16.2978C7.94632 16.2935 7.94632 16.2935 8.02735 16.2891C8.12318 16.0782 8.1593 15.9136 8.1597 15.6825C8.16025 15.5907 8.16025 15.5907 8.16082 15.497C8.16058 15.4315 8.16034 15.366 8.1601 15.2985C8.16021 15.2307 8.16032 15.1629 8.16044 15.093C8.16052 14.9498 8.1603 14.8066 8.15981 14.6633C8.15919 14.4442 8.15981 14.2251 8.16056 14.006C8.16048 13.8668 8.16033 13.7275 8.1601 13.5883C8.16034 13.5228 8.16057 13.4573 8.16082 13.3898C8.16045 13.3286 8.16008 13.2674 8.1597 13.2044C8.1596 13.1507 8.15951 13.0971 8.15942 13.0418C8.14142 12.8591 8.10268 12.673 7.96875 12.5391C7.88527 12.5333 7.8015 12.5315 7.71781 12.5313C7.66366 12.531 7.60952 12.5308 7.55374 12.5305C7.49386 12.5306 7.43399 12.5306 7.3723 12.5306C7.30962 12.5304 7.24693 12.5302 7.18235 12.53C6.97398 12.5294 6.76561 12.5293 6.55724 12.5293C6.4131 12.5291 6.26896 12.5289 6.12482 12.5287C5.82222 12.5283 5.51963 12.5282 5.21704 12.5283C4.8284 12.5283 4.43976 12.5275 4.05112 12.5265C3.7533 12.5258 3.45549 12.5257 3.15767 12.5257C3.01434 12.5256 2.87101 12.5254 2.72769 12.5249C2.52761 12.5244 2.32755 12.5245 2.12747 12.5249C2.06772 12.5246 2.00796 12.5242 1.9464 12.5239C1.89209 12.5241 1.83778 12.5244 1.78183 12.5246C1.73448 12.5246 1.68714 12.5246 1.63836 12.5245C1.50969 12.5289 1.50969 12.5289 1.40625 12.6563ZM3.33985 17.168C3.33985 19.7397 3.33985 22.3114 3.33985 24.961C3.55254 24.961 3.76524 24.961 3.98438 24.961C3.98438 22.3893 3.98438 19.8176 3.98438 17.168C3.77168 17.168 3.55899 17.168 3.33985 17.168ZM14.0562 19.5557C13.8998 19.8684 13.8599 20.1295 13.9646 20.4603C14.0917 20.7556 14.2915 20.8945 14.5652 21.0572C14.8817 21.1308 15.1567 21.0828 15.4441 20.9363C15.7214 20.6977 15.8717 20.4631 15.9003 20.0986C15.8864 19.8128 15.7584 19.6161 15.5759 19.4056C15.3053 19.1745 15.1047 19.1336 14.754 19.1419C14.4445 19.1801 14.2603 19.3193 14.0562 19.5557ZM12.8477 23.7305C12.5935 24.0789 12.3203 24.5189 12.3203 24.961C14.0219 24.961 15.7234 24.961 17.4766 24.961C17.3213 24.2622 17.0479 23.7029 16.4516 23.2739C15.2246 22.5187 13.8422 22.6573 12.8477 23.7305ZM1.34766 25.8399C1.41224 26.744 1.5463 27.4237 2.20825 28.0518C2.9433 28.653 3.83025 28.6702 4.73816 28.6673C4.83059 28.6674 4.92302 28.6676 5.01545 28.6678C5.2677 28.6683 5.51995 28.6681 5.77221 28.6677C6.04493 28.6674 6.31765 28.6679 6.59037 28.6682C7.12395 28.6687 7.65753 28.6686 8.19111 28.6682C8.6249 28.668 9.05868 28.6679 9.49247 28.6681C9.58521 28.6681 9.58521 28.6681 9.67981 28.6681C9.80542 28.6682 9.93102 28.6682 10.0566 28.6682C11.2334 28.6686 12.4103 28.6682 13.5871 28.6676C14.5961 28.667 15.605 28.6671 16.614 28.6677C17.7867 28.6683 18.9594 28.6685 20.1321 28.6682C20.2573 28.6681 20.3824 28.6681 20.5075 28.6681C20.5999 28.6681 20.5999 28.6681 20.6941 28.668C21.1272 28.6679 21.5603 28.6681 21.9934 28.6684C22.5214 28.6687 23.0494 28.6686 23.5775 28.668C23.8467 28.6677 24.1159 28.6676 24.3852 28.6679C24.632 28.6683 24.8787 28.6681 25.1255 28.6675C25.2145 28.6673 25.3034 28.6674 25.3924 28.6677C26.3554 28.6706 27.2321 28.5802 27.9641 27.8893C28.5119 27.2692 28.5937 26.6607 28.6523 25.8399C25.7326 25.8399 22.8129 25.8399 19.8047 25.8399C19.7854 26.2653 19.766 26.6907 19.7461 27.129C19.5117 27.4219 19.5117 27.4219 19.3945 27.4805C19.2794 27.4865 19.164 27.4887 19.0487 27.4891C18.9751 27.4896 18.9014 27.49 18.8254 27.4904C18.7433 27.4906 18.6612 27.4907 18.5791 27.4909C18.4929 27.4913 18.4068 27.4916 18.3207 27.4921C18.0863 27.4931 17.8519 27.4937 17.6175 27.4942C17.4711 27.4945 17.3248 27.4948 17.1784 27.4952C16.7205 27.4963 16.2627 27.4972 15.8048 27.4976C15.276 27.4982 14.7472 27.4998 14.2184 27.5021C13.8099 27.5039 13.4014 27.5048 12.9928 27.505C12.7487 27.5051 12.5047 27.5056 12.2606 27.5071C12.0309 27.5085 11.8013 27.5087 11.5716 27.5081C11.4874 27.5081 11.4031 27.5084 11.3189 27.5092C11.2038 27.5103 11.0887 27.5097 10.9736 27.5091C10.9092 27.5092 10.8448 27.5094 10.7785 27.5095C10.5646 27.4737 10.467 27.3953 10.3125 27.2461C10.1021 26.8254 10.2167 26.3098 10.1953 25.8399C7.27559 25.8399 4.35586 25.8399 1.34766 25.8399ZM11.0742 25.8399C11.0742 26.1299 11.0742 26.42 11.0742 26.7188C13.6652 26.7188 16.2563 26.7188 18.9258 26.7188C18.9258 26.4288 18.9258 26.1387 18.9258 25.8399C16.3348 25.8399 13.7438 25.8399 11.0742 25.8399Z" fill="white"/>
<path d="M3.04688 13.9736C3.08768 13.9732 3.12849 13.9728 3.17053 13.9724C3.30512 13.9714 3.43963 13.972 3.57422 13.9728C3.66791 13.9727 3.7616 13.9724 3.85529 13.9722C4.05153 13.9718 4.24774 13.9723 4.44397 13.9734C4.6954 13.9747 4.94677 13.974 5.19819 13.9726C5.39162 13.9717 5.58504 13.972 5.77847 13.9726C5.87116 13.9728 5.96386 13.9726 6.05656 13.972C6.18618 13.9714 6.3157 13.9723 6.44531 13.9736C6.55589 13.9739 6.55589 13.9739 6.6687 13.9742C6.88941 14.0094 6.95927 14.0596 7.08985 14.2383C7.12281 14.4434 7.12281 14.4434 7.08985 14.6485C6.93219 14.8124 6.83402 14.877 6.60791 14.9126C6.50091 14.9129 6.50091 14.9129 6.39176 14.9132C6.35218 14.9136 6.3126 14.914 6.27183 14.9144C6.14164 14.9155 6.01153 14.9148 5.88135 14.914C5.79051 14.9142 5.69968 14.9144 5.60884 14.9147C5.41871 14.915 5.22861 14.9145 5.03849 14.9134C4.79515 14.9121 4.55187 14.9129 4.30853 14.9143C4.12103 14.9151 3.93354 14.9148 3.74604 14.9142C3.65634 14.9141 3.56663 14.9143 3.47693 14.9148C3.3514 14.9154 3.22596 14.9145 3.10044 14.9132C3.02911 14.913 2.95778 14.9128 2.88429 14.9126C2.65818 14.877 2.56 14.8124 2.40235 14.6485C2.36939 14.4434 2.36939 14.4434 2.40235 14.2383C2.58822 13.984 2.74126 13.9744 3.04688 13.9736Z" fill="white"/>
</g>
<defs>
<clipPath id="clip0_844_21894">
<rect width="30" height="30" fill="white"/>
</clipPath>
</defs>
</svg>
