<svg width="31" height="31" viewBox="0 0 31 31" fill="none" xmlns="http://www.w3.org/2000/svg">
<path d="M15.6477 0.648989C15.7019 0.672854 15.7561 0.69672 15.812 0.721308C16.6619 1.14094 17.2436 1.83943 17.5567 2.72319C17.736 3.28809 17.7302 3.72892 17.7302 4.35173C18.7419 4.33264 19.7536 4.31355 20.796 4.29388C21.252 3.58032 21.252 3.58032 21.1431 3.13677C21.1153 3.06353 21.0853 2.99104 21.0527 2.91981C20.8989 2.52201 20.9259 2.10017 21.0756 1.70395C21.3362 1.20528 21.7194 0.938978 22.2422 0.7647C22.8325 0.714821 23.2583 0.790295 23.7317 1.14799C24.0278 1.42618 24.1878 1.73089 24.2327 2.13583C24.2454 2.68957 24.1929 3.14313 23.8025 3.56051C23.3069 3.98153 22.8175 4.05519 22.1843 4.0046C22.1568 4.0589 22.1568 4.0589 22.1287 4.11429C22.0453 4.27805 21.9612 4.44145 21.877 4.60485C21.8481 4.66183 21.8192 4.71881 21.7895 4.77751C21.7613 4.83195 21.7332 4.8864 21.7042 4.94249C21.6784 4.99278 21.6527 5.04308 21.6262 5.0949C21.548 5.21956 21.548 5.21956 21.3745 5.33527C21.2153 5.34919 21.2153 5.34919 21.0203 5.34841C20.9473 5.3484 20.8744 5.34839 20.7992 5.34838C20.7196 5.34779 20.64 5.34719 20.5604 5.34657C20.4789 5.34636 20.3974 5.34619 20.316 5.34608C20.1017 5.34564 19.8875 5.3445 19.6732 5.34322C19.4545 5.34203 19.2358 5.34151 19.0172 5.34092C18.5882 5.33968 18.1592 5.33765 17.7302 5.33527C17.7302 5.81258 17.7302 6.28989 17.7302 6.78166C20.0782 6.78166 22.4261 6.78166 24.8453 6.78166C24.8835 6.70529 24.9216 6.62892 24.961 6.55024C25.0114 6.48179 25.0641 6.41491 25.1185 6.34955C25.1494 6.31204 25.1803 6.27452 25.2122 6.23587C25.245 6.19642 25.2778 6.15697 25.3117 6.11632C25.6306 5.72889 25.937 5.33504 26.2336 4.93029C26.2134 4.89121 26.1932 4.85213 26.1723 4.81186C26.146 4.76025 26.1197 4.70865 26.0926 4.65547C26.0533 4.57895 26.0533 4.57895 26.0133 4.50089C25.8397 4.1253 25.8353 3.73096 25.9516 3.33565C26.1264 2.86963 26.4177 2.53717 26.8699 2.32679C27.306 2.16749 27.7257 2.17093 28.164 2.31346C28.569 2.50308 28.938 2.84786 29.0936 3.27305C29.201 3.78158 29.1982 4.29292 28.9302 4.74791C28.6507 5.11994 28.2947 5.40452 27.8232 5.47178C27.7241 5.48165 27.6248 5.49006 27.5254 5.49664C27.2746 5.51741 27.2746 5.51741 27.0686 5.65069C27.0399 5.68644 27.0113 5.72219 26.9817 5.75902C26.9492 5.79908 26.9166 5.83914 26.8831 5.88041C26.8489 5.92365 26.8147 5.9669 26.7795 6.01146C26.7261 6.07767 26.7261 6.07767 26.6716 6.14522C26.5635 6.27969 26.4562 6.41481 26.3493 6.55024C26.3182 6.5896 26.2871 6.62897 26.2551 6.66953C26.1443 6.81011 26.0338 6.95088 25.9237 7.09192C25.4178 7.73923 25.4178 7.73923 25.2502 7.82305C25.1505 7.82844 25.0506 7.83011 24.9508 7.83001C24.8874 7.83009 24.8239 7.83017 24.7586 7.83025C24.6887 7.83004 24.6188 7.82984 24.5467 7.82962C24.4734 7.82963 24.4 7.82964 24.3244 7.82965C24.1229 7.82966 23.9215 7.82932 23.72 7.82892C23.5095 7.82856 23.299 7.82852 23.0886 7.82846C22.6899 7.82828 22.2913 7.8278 21.8926 7.82722C21.4388 7.82657 20.985 7.82626 20.5312 7.82596C19.5975 7.82536 18.6638 7.8243 17.7302 7.82305C17.7302 8.4531 17.7302 9.08314 17.7302 9.73228C18.1311 9.72683 18.1311 9.72683 18.5402 9.72126C19.4268 9.70972 20.3134 9.70204 21.2 9.69631C21.7372 9.69274 22.2743 9.68789 22.8114 9.6799C23.2802 9.67294 23.7488 9.6685 24.2176 9.66696C24.4653 9.66606 24.713 9.66398 24.9607 9.65888C26.849 9.62133 26.849 9.62133 27.5553 10.2084C27.6749 10.3053 27.7649 10.378 27.9111 10.4265C28.078 10.379 28.2054 10.3103 28.3518 10.2176C28.6963 10.0167 29.0946 10.0468 29.4694 10.1445C29.9283 10.2957 30.2742 10.5649 30.5097 10.9913C30.6634 11.4532 30.6634 12.0034 30.5097 12.4653C30.3017 12.8419 29.9954 13.0747 29.6248 13.2795C29.0978 13.4176 28.6108 13.4104 28.1317 13.1349C27.7941 12.9056 27.4743 12.5733 27.3905 12.1622C27.3771 11.8915 27.3804 11.623 27.3905 11.3522C27.3492 11.3374 27.3079 11.3226 27.2653 11.3073C27.0905 11.2319 26.9486 11.1362 26.7908 11.03C26.3747 10.7855 26.0038 10.7745 25.5318 10.7802C25.4462 10.7798 25.3606 10.7792 25.275 10.7784C25.0449 10.7767 24.8148 10.7775 24.5846 10.7788C24.3433 10.7797 24.1019 10.7783 23.8606 10.7772C23.4046 10.7754 22.9486 10.7756 22.4926 10.7766C21.973 10.7776 21.4534 10.7763 20.9339 10.7749C19.866 10.7719 18.7981 10.7722 17.7302 10.7737C17.7302 11.5565 17.7302 12.3392 17.7302 13.1457C19.8109 13.1457 21.8916 13.1457 24.0354 13.1457C24.0736 13.0312 24.1118 12.9166 24.1511 12.7986C24.366 12.4378 24.6923 12.2518 25.0767 12.1044C25.5215 11.9991 25.934 12.0256 26.3493 12.2201C26.7321 12.4854 27.0604 12.7942 27.1591 13.2615C27.2199 13.7983 27.202 14.2657 26.8699 14.7078C26.5082 15.1067 26.1089 15.3063 25.5708 15.3438C25.1042 15.3452 24.7317 15.1915 24.3825 14.8814C24.0354 14.4628 24.0354 14.4628 24.0354 14.1871C21.9547 14.1871 19.874 14.1871 17.7302 14.1871C17.7302 14.989 17.7302 15.7909 17.7302 16.6171C18.5128 16.6171 19.2955 16.6171 20.1019 16.6171C20.1401 16.5025 20.1782 16.388 20.2176 16.2699C20.4475 15.929 20.736 15.6682 21.1327 15.5422C21.6983 15.4327 22.1661 15.5126 22.643 15.8216C22.938 16.0444 23.1207 16.3211 23.2256 16.6749C23.3015 17.2994 23.2132 17.738 22.8677 18.2515C22.5211 18.5904 22.1356 18.7638 21.6529 18.7722C21.1494 18.7648 20.8019 18.6362 20.4334 18.2897C20.2741 18.1138 20.1019 17.9049 20.1019 17.6585C19.3192 17.6585 18.5366 17.6585 17.7302 17.6585C17.7302 18.4412 17.7302 19.224 17.7302 20.0305C18.8541 20.0347 19.9779 20.0368 21.1019 20.0349C21.6238 20.0341 22.1457 20.0342 22.6676 20.0367C23.1229 20.0388 23.5781 20.0391 24.0334 20.0372C24.2741 20.0363 24.5148 20.0363 24.7556 20.0384C26.0438 20.0814 26.0438 20.0814 27.2059 19.6007C27.4395 19.3265 27.4053 19.0423 27.3905 18.6999C27.4607 18.3193 27.6844 18.0283 27.969 17.7742C28.4297 17.4808 28.875 17.4357 29.4151 17.4849C29.8702 17.6122 30.1895 17.9129 30.4564 18.2949C30.5957 18.5549 30.5933 18.8058 30.5937 19.094C30.5952 19.1385 30.5966 19.183 30.598 19.2288C30.6001 19.6326 30.4828 19.9224 30.2205 20.2287C29.7728 20.6177 29.4368 20.7597 28.8389 20.746C28.6088 20.7182 28.4186 20.6469 28.2094 20.5496C28.0864 20.4942 27.9869 20.4547 27.8533 20.4355C27.7505 20.5066 27.6481 20.5784 27.5483 20.6537C26.7235 21.2458 25.7877 21.1547 24.8205 21.1365C24.5706 21.1324 24.3206 21.1321 24.0706 21.1313C23.599 21.1294 23.1275 21.1242 22.6559 21.1178C22.1183 21.1106 21.5807 21.1071 21.043 21.104C19.9387 21.0973 18.8345 21.0857 17.7302 21.0719C17.7302 21.702 17.7302 22.332 17.7302 22.9812C17.9527 22.9802 18.1751 22.9793 18.4044 22.9784C19.1391 22.9755 19.8737 22.9736 20.6084 22.9722C21.0539 22.9713 21.4994 22.97 21.9449 22.9681C22.3332 22.9663 22.7215 22.9652 23.1098 22.9648C23.3154 22.9646 23.521 22.9641 23.7266 22.9628C23.9562 22.9614 24.1858 22.9614 24.4154 22.9615C24.5174 22.9605 24.5174 22.9605 24.6214 22.9596C25.0006 22.961 25.2895 22.9753 25.5799 23.2465C25.6056 23.2793 25.6312 23.312 25.6576 23.3457C25.6872 23.3828 25.7167 23.4198 25.7472 23.458C25.7777 23.4976 25.8081 23.5371 25.8395 23.5778C25.8718 23.6186 25.9042 23.6595 25.9375 23.7016C26.0368 23.8274 26.1352 23.9539 26.2336 24.0804C26.2936 24.1568 26.3536 24.2331 26.4137 24.3093C26.4948 24.4123 26.5758 24.5154 26.6564 24.6188C26.7785 24.7756 26.9029 24.9292 27.0326 25.0798C27.1591 25.2375 27.1591 25.2375 27.1591 25.3532C27.2074 25.3505 27.2556 25.3479 27.3053 25.3451C27.8506 25.3276 28.213 25.4074 28.6487 25.7365C28.9443 26.0143 29.1026 26.3188 29.1517 26.7223C29.1649 27.1639 29.1308 27.5212 28.8945 27.8989C28.8635 27.9502 28.8325 28.0015 28.8005 28.0543C28.4456 28.4 28.0469 28.599 27.5532 28.6076C27.0187 28.5991 26.6777 28.4524 26.2885 28.0835C25.9631 27.7177 25.8687 27.3171 25.8736 26.838C25.904 26.475 26.043 26.1798 26.2336 25.8739C26.1867 25.8165 26.1398 25.7591 26.0915 25.6999C25.7365 25.2645 25.384 24.8275 25.0385 24.3845C24.9191 24.2271 24.9191 24.2271 24.7874 24.0804C24.696 24.0742 24.6042 24.0719 24.5126 24.0713C24.4531 24.0707 24.3936 24.0701 24.3324 24.0695C24.2666 24.0692 24.2008 24.0689 24.133 24.0685C24.0642 24.068 23.9953 24.0674 23.9244 24.0668C23.7351 24.0653 23.5458 24.064 23.3565 24.0629C23.1589 24.0616 22.9612 24.06 22.7636 24.0585C22.3891 24.0556 22.0146 24.053 21.6401 24.0505C21.2138 24.0476 20.7876 24.0444 20.3613 24.0412C19.4843 24.0346 18.6072 24.0285 17.7302 24.0226C17.7302 24.4999 17.7302 24.9772 17.7302 25.4689C17.8373 25.4677 17.9444 25.4665 18.0548 25.4653C18.4092 25.4615 18.7636 25.4589 19.1181 25.4569C19.3329 25.4557 19.5477 25.4541 19.7625 25.4515C19.9699 25.449 20.1773 25.4476 20.3848 25.447C20.4638 25.4466 20.5428 25.4457 20.6219 25.4445C20.7328 25.4428 20.8437 25.4427 20.9546 25.4427C21.0177 25.4422 21.0807 25.4416 21.1457 25.4411C21.3576 25.4756 21.4524 25.5535 21.6059 25.7004C21.6865 25.8204 21.6865 25.8204 21.748 25.9467C21.7706 25.9924 21.7931 26.0381 21.8164 26.0852C21.8388 26.1324 21.8612 26.1796 21.8843 26.2283C21.9078 26.2759 21.9313 26.3236 21.9556 26.3727C22.1265 26.7238 22.1265 26.7238 22.1265 26.8575C22.1765 26.8437 22.1765 26.8437 22.2275 26.8297C22.7493 26.7094 23.223 26.8624 23.6775 27.125C24.1015 27.5855 24.2426 28.0425 24.2284 28.6584C24.1905 29.0957 24.0125 29.3922 23.6956 29.6888C23.2131 30.067 22.7927 30.0978 22.1843 30.0395C21.8405 29.9502 21.6058 29.7899 21.3745 29.5188C21.3339 29.4759 21.2934 29.4329 21.2516 29.3886C21.0084 29.032 20.9026 28.6168 20.9696 28.1881C21.0246 28.0217 21.0862 27.8616 21.156 27.7009C21.28 27.2895 20.9724 26.921 20.796 26.5682C19.7652 26.5491 18.7344 26.53 17.6723 26.5103C17.6342 26.7203 17.596 26.9304 17.5567 27.1467C17.2406 28.0232 16.6005 28.7224 15.7688 29.1405C14.9032 29.5265 14.0085 29.5658 13.1025 29.2874C12.2982 28.9619 11.7162 28.5169 11.2514 27.7831C11.2386 27.7398 11.2258 27.6965 11.2125 27.6518C11.1335 27.5253 11.1335 27.5253 10.9125 27.514C10.8182 27.5078 10.7239 27.5023 10.6296 27.4975C9.70394 27.4238 8.88148 27.0958 8.23415 26.4073C7.62792 25.6761 7.39398 24.884 7.26002 23.9647C7.22378 23.9739 7.18754 23.9832 7.15021 23.9927C6.51737 24.0979 5.77357 24.0961 5.17756 23.849C5.0817 23.8097 5.0817 23.8097 4.98391 23.7697C4.11644 23.376 3.49493 22.7589 3.13328 21.8636C2.98738 21.4404 2.90915 21.054 2.9071 20.6055C2.90687 20.5622 2.90664 20.5188 2.9064 20.4742C2.90981 20.1457 2.96188 19.8536 3.06278 19.5397C3.10127 19.3663 3.09897 19.2717 3.03725 19.1048C2.91347 18.9851 2.91347 18.9851 2.75525 18.877C1.77078 18.1044 1.19583 16.9416 0.977157 15.7255C0.818474 14.2523 1.12849 12.8767 2.04302 11.6957C2.37389 11.294 2.71294 10.9392 3.15294 10.658C3.13624 10.6026 3.11954 10.5471 3.10233 10.49C2.80933 9.46291 2.82716 8.49287 3.33891 7.53084C3.84329 6.69743 4.5726 6.16847 5.49481 5.86682C6.06747 5.72844 6.75833 5.72728 7.31787 5.91383C7.31936 5.86826 7.32085 5.82269 7.32239 5.77574C7.37177 4.82726 7.70007 3.90621 8.41695 3.25248C8.97003 2.80754 9.65657 2.37344 10.39 2.379C10.4337 2.37919 10.4773 2.37937 10.5222 2.37956C10.5672 2.38005 10.6122 2.38053 10.6585 2.38103C10.7043 2.38129 10.7502 2.38156 10.7975 2.38182C10.9102 2.3825 11.023 2.38354 11.1357 2.38465C11.1586 2.30668 11.1586 2.30668 11.182 2.22713C11.4276 1.55583 12.0889 1.03569 12.6976 0.706844C13.6057 0.312286 14.731 0.240942 15.6477 0.648989ZM12.6144 2.06645C12.4289 2.2356 12.2976 2.39565 12.177 2.61607C12.2294 2.64762 12.2818 2.67917 12.3358 2.71167C13.2644 3.28164 13.907 3.98334 14.1776 5.06588C14.2087 5.26512 14.2136 5.45911 14.216 5.66071C14.2183 5.77459 14.2183 5.77459 14.2205 5.89078C14.2016 6.08739 14.2016 6.08739 14.1302 6.19949C14.0015 6.27691 13.9174 6.28415 13.7677 6.28265C13.7006 6.28333 13.7006 6.28333 13.6321 6.28401C13.5074 6.26096 13.5074 6.26096 13.4096 6.20017C13.2959 6.03083 13.2798 5.84753 13.2507 5.64986C13.1131 4.84837 12.8247 4.334 12.1842 3.80934C11.6143 3.4167 10.9997 3.34831 10.3259 3.42605C9.69188 3.56302 9.1332 3.93431 8.76403 4.46744C8.41266 5.08919 8.26329 5.73439 8.4479 6.43656C8.47842 6.56557 8.48247 6.68175 8.48202 6.8142C8.48225 6.88054 8.48225 6.88054 8.48248 6.94822C8.47479 7.07093 8.47479 7.07093 8.41695 7.2445C7.97679 7.34722 7.75815 7.25516 7.36645 7.04223C6.83581 6.76117 6.23704 6.7729 5.66564 6.9263C5.01131 7.15096 4.53001 7.56637 4.19417 8.17019C3.86326 8.9315 3.89718 9.60373 4.19417 10.3687C4.22497 10.4292 4.25577 10.4898 4.2875 10.5522C4.36771 10.7158 4.36771 10.7158 4.38941 10.9111C4.27906 11.202 4.09504 11.2997 3.8419 11.4702C3.61229 11.6249 3.41044 11.7973 3.21079 11.9886C3.14748 12.0487 3.14748 12.0487 3.08289 12.11C2.35903 12.85 1.98209 13.8822 1.9671 14.9103C1.9831 16.0079 2.4271 17.1144 3.21079 17.8899C3.49663 18.1393 3.79907 18.3708 4.12503 18.5652C4.2764 18.6568 4.32041 18.7031 4.36771 18.8734C4.36089 19.2078 4.23406 19.4642 4.08752 19.7616C3.84921 20.3075 3.91619 20.9454 4.12164 21.4896C4.42015 22.1518 4.88889 22.5872 5.55469 22.8706C6.12904 23.0814 6.79487 23.0482 7.35651 22.8173C7.49599 22.7504 7.49599 22.7504 7.6367 22.6564C7.78956 22.5712 7.87525 22.5527 8.04818 22.5545C8.09188 22.554 8.13557 22.5536 8.18059 22.5531C8.33321 22.5823 8.38435 22.6244 8.47479 22.7497C8.52837 23.0263 8.47019 23.3095 8.41333 23.5814C8.29551 24.1901 8.4056 24.7971 8.7394 25.3232C9.16695 25.8968 9.71386 26.3058 10.4296 26.4362C11.15 26.528 11.7667 26.316 12.3557 25.9053C12.8546 25.5117 13.1619 24.9255 13.2419 24.2999C13.2508 24.2322 13.2597 24.1646 13.2688 24.0949C13.2758 24.0307 13.2828 23.9666 13.29 23.9005C13.3339 23.7333 13.3339 23.7333 13.441 23.6255C13.627 23.5271 13.7635 23.5339 13.9702 23.5597C14.1383 23.6849 14.195 23.7542 14.2323 23.9624C14.2236 24.9162 13.9267 25.757 13.2731 26.4636C12.948 26.7652 12.5651 26.9936 12.177 27.2046C12.497 27.7943 13.0538 28.1622 13.681 28.3617C14.3005 28.5058 14.8863 28.4057 15.45 28.1097C15.5808 28.0266 15.701 27.9386 15.8213 27.841C15.8574 27.812 15.8936 27.783 15.9309 27.7531C16.3797 27.3511 16.6574 26.7296 16.6993 26.1306C16.7031 25.9589 16.7033 25.7874 16.7021 25.6156C16.7021 25.5506 16.7021 25.4857 16.7021 25.4188C16.7021 25.2053 16.7012 24.9918 16.7003 24.7783C16.7 24.6298 16.6999 24.4813 16.6998 24.3328C16.6994 23.9826 16.6985 23.6324 16.6973 23.2823C16.696 22.8834 16.6954 22.4845 16.6948 22.0856C16.6936 21.2656 16.6915 20.4456 16.689 19.6255C16.6309 19.6247 16.6309 19.6247 16.5716 19.6239C16.3926 19.6208 16.2136 19.6159 16.0346 19.6111C15.9737 19.6103 15.9128 19.6094 15.8501 19.6086C15.2311 19.5895 14.6524 19.4349 14.2016 18.9891C13.885 18.5926 13.7951 18.177 13.7533 17.6765C13.6873 17.0671 13.459 16.5577 13.0033 16.1361C12.4808 15.7502 11.9754 15.6849 11.3456 15.6724C11.0896 15.625 11.0031 15.5489 10.8465 15.3442C10.8236 15.1231 10.8342 14.9762 10.9043 14.7657C11.5383 14.5544 12.3795 14.6942 12.9766 14.9519C13.7761 15.3534 14.3322 15.9961 14.6201 16.8426C14.6833 17.0991 14.7138 17.3573 14.7355 17.6204C14.7664 17.9557 14.8488 18.1979 15.0982 18.4287C15.5948 18.764 15.9783 18.5841 16.689 18.5841C16.689 17.1331 16.689 15.6821 16.689 14.1871C16.1926 14.1681 15.6963 14.149 15.185 14.1293C14.6849 13.9858 14.6849 13.9858 14.433 13.84C14.3891 13.815 14.3453 13.7899 14.3001 13.7641C13.7864 13.4241 13.4837 12.8633 13.3339 12.2779C13.2741 11.944 13.2264 11.6611 13.3917 11.3522C13.6043 11.26 13.7333 11.2196 13.9593 11.2799C14.0859 11.3522 14.0859 11.3522 14.2016 11.4679C14.2196 11.5735 14.2334 11.6797 14.245 11.7861C14.3127 12.2173 14.4564 12.5665 14.7968 12.8517C15.0881 13.0515 15.3095 13.1534 15.6665 13.1514C15.7259 13.1512 15.7854 13.151 15.8467 13.1508C15.9087 13.1503 15.9707 13.1499 16.0346 13.1494C16.0972 13.1491 16.1599 13.1488 16.2245 13.1486C16.3793 13.1479 16.5341 13.1469 16.689 13.1457C16.693 11.9131 16.6961 10.6804 16.6979 9.44773C16.6988 8.87533 16.7001 8.30293 16.702 7.73054C16.7038 7.23141 16.7049 6.73229 16.7053 6.23316C16.7055 5.96908 16.706 5.705 16.7073 5.44092C16.7085 5.1919 16.7088 4.94289 16.7086 4.69386C16.7086 4.60291 16.709 4.51196 16.7096 4.42101C16.7159 3.53453 16.6016 2.81198 15.9907 2.1365C15.0146 1.20224 13.6193 1.19229 12.6144 2.06645ZM22.0687 2.09537C21.9996 2.32291 21.9849 2.44034 22.0795 2.65946C22.2499 2.87102 22.3386 2.95338 22.6146 2.98852C22.8525 2.95929 22.9424 2.8993 23.1099 2.73178C23.2025 2.54654 23.1966 2.35423 23.1677 2.15323C23.064 1.99065 22.9931 1.89234 22.8207 1.8061C22.4687 1.76547 22.3054 1.83036 22.0687 2.09537ZM27.1013 3.42605C26.951 3.60063 26.9277 3.68616 26.9277 3.91782C26.9974 4.16183 27.0732 4.25722 27.2748 4.40959C27.4832 4.47907 27.5758 4.48783 27.7774 4.39874C27.9904 4.23175 28.0731 4.14062 28.1136 3.86719C28.0764 3.59783 27.9949 3.49248 27.7954 3.31034C27.513 3.20815 27.3474 3.26191 27.1013 3.42605ZM28.5004 11.3956C28.4002 11.5856 28.4057 11.7191 28.4317 11.9308C28.5493 12.1424 28.6367 12.2083 28.8584 12.3068C29.1126 12.3419 29.2069 12.3089 29.4151 12.1622C29.5654 11.9876 29.5887 11.9021 29.5887 11.6704C29.519 11.4264 29.4432 11.331 29.2416 11.1787C28.91 11.0681 28.7423 11.1621 28.5004 11.3956ZM25.0767 13.3193C24.9547 13.4731 24.961 13.55 24.9646 13.7496C25.0296 13.9968 25.1072 14.0898 25.308 14.245C25.5054 14.326 25.577 14.3105 25.778 14.2341C25.9889 14.1019 25.9889 14.1019 26.1179 13.8979C26.1541 13.613 26.1644 13.5013 25.9986 13.2651C25.6472 13.0183 25.3984 13.0424 25.0767 13.3193ZM21.0853 16.8485C21.0162 17.076 21.0015 17.1935 21.0961 17.4126C21.2521 17.6062 21.3478 17.7034 21.5987 17.7416C21.8251 17.7099 21.9485 17.6256 22.1265 17.4849C22.2191 17.2997 22.2132 17.1073 22.1843 16.9063C22.0806 16.7438 22.0097 16.6455 21.8373 16.5592C21.4853 16.5186 21.322 16.5835 21.0853 16.8485ZM28.4896 18.7577C28.3965 18.9438 28.3963 19.135 28.4317 19.3363C28.6008 19.5454 28.7277 19.6685 28.9957 19.7051C29.1984 19.6817 29.3111 19.6277 29.4608 19.4879C29.5666 19.3462 29.5961 19.2221 29.6067 19.047C29.5733 18.8329 29.4536 18.7311 29.2994 18.5841C28.9818 18.4253 28.7267 18.5206 28.4896 18.7577ZM26.9856 26.6839C26.917 26.9098 26.9032 27.0289 26.9928 27.248C27.119 27.3994 27.2074 27.4768 27.3905 27.5517C27.6384 27.5517 27.762 27.5174 27.9654 27.3745C28.1003 27.1823 28.124 27.0828 28.1097 26.8536C28.0703 26.6778 27.9804 26.5759 27.8533 26.4525C27.5007 26.2762 27.2304 26.4099 26.9856 26.6839ZM22.1265 28.0724C22.0045 28.2262 22.0108 28.3031 22.0144 28.5027C22.0807 28.7546 22.1449 28.8485 22.3579 28.9981C22.5203 29.0355 22.6582 29.0346 22.8207 28.9981C22.9832 28.8943 23.0815 28.8235 23.1677 28.651C23.2035 28.311 23.2035 28.311 23.0484 28.0182C22.697 27.7714 22.4483 27.7955 22.1265 28.0724Z" fill="white"/>
<path d="M7.39379 9.82268C8.01917 10.06 8.44546 10.5022 8.72426 11.1027C8.97537 11.6824 8.91978 12.2687 8.72109 12.8558C8.61643 13.1064 8.48761 13.2965 8.30126 13.4929C8.25137 13.5462 8.25137 13.5462 8.20048 13.6007C7.7323 14.0544 7.19758 14.2191 6.55502 14.2199C6.35397 14.1794 6.28511 14.1165 6.16095 13.9557C6.09987 13.7317 6.08142 13.6049 6.16818 13.388C6.32392 13.2063 6.46129 13.1602 6.69693 13.1277C7.09743 13.0687 7.34802 12.942 7.6071 12.625C7.7677 12.3492 7.81964 12.0748 7.78064 11.7572C7.6649 11.3422 7.45816 11.1031 7.08648 10.8894C6.90556 10.8291 6.76293 10.8217 6.5731 10.8135C6.29102 10.7923 6.12396 10.7635 5.92956 10.5423C5.84014 10.3634 5.85473 10.2186 5.87171 10.0216C6.23085 9.56658 6.88871 9.67055 7.39379 9.82268Z" fill="white"/>
<path d="M9.57387 16.5014C9.76241 16.6562 9.85404 16.7669 9.88118 17.0112C9.85822 17.2455 9.79833 17.3204 9.63172 17.4849C9.43965 17.5409 9.43965 17.5409 9.21956 17.5717C8.62903 17.6697 8.15553 17.8718 7.78064 18.3527C7.52821 18.7397 7.44384 19.1594 7.41549 19.6147C7.39562 19.8041 7.38131 19.85 7.25641 20.0052C7.01894 20.1214 6.88734 20.1219 6.62371 20.0884C6.46783 19.9964 6.41237 19.9258 6.36183 19.7521C6.23835 18.9973 6.50678 18.2827 6.91295 17.6585C7.52726 16.8688 8.55514 16.3239 9.57387 16.5014Z" fill="white"/>
<path d="M10.8946 19.304C11.0954 19.3557 11.1812 19.4665 11.3093 19.6255C11.3633 19.8106 11.3633 19.8106 11.3924 20.0125C11.4893 20.5237 11.6533 20.9095 12.0866 21.2166C12.3494 21.3725 12.6022 21.4499 12.903 21.5029C12.9545 21.5122 13.006 21.5216 13.0591 21.5312C13.1071 21.5388 13.1551 21.5465 13.2046 21.5544C13.3532 21.5983 13.4127 21.645 13.5074 21.7662C13.5748 21.9828 13.575 22.0868 13.4966 22.3014C13.3491 22.5251 13.3491 22.5251 13.1603 22.5762C12.447 22.6399 11.7657 22.3729 11.213 21.9328C10.6068 21.375 10.3582 20.7384 10.2622 19.9435C10.2746 19.5153 10.484 19.3286 10.8946 19.304Z" fill="white"/>
<path d="M12.4662 7.7652C12.6224 7.86933 12.7289 7.94361 12.8133 8.11233C12.8555 8.70401 12.6784 9.2223 12.2926 9.67443C11.8061 10.1386 11.3913 10.2699 10.7281 10.2817C10.5196 10.2467 10.4538 10.1867 10.3259 10.0216C10.2573 9.81123 10.2567 9.70682 10.3297 9.49724C10.4767 9.27397 10.582 9.26039 10.8393 9.20435C11.1328 9.13889 11.3221 9.07552 11.5406 8.86445C11.6527 8.65234 11.7112 8.48459 11.7395 8.24612C11.7769 8.02551 11.8305 7.9593 12.0034 7.82305C12.1685 7.74052 12.2831 7.74724 12.4662 7.7652Z" fill="white"/>
</svg>
