<svg width="28" height="28" viewBox="0 0 28 28" fill="none" xmlns="http://www.w3.org/2000/svg">
<g clip-path="url(#clip0_1105_129)">
<path d="M5.84873 -0.0650607C5.8995 -0.0699564 5.95027 -0.0748522 6.00257 -0.0798963C6.17373 -0.0960067 6.34496 -0.110824 6.51625 -0.125438C6.57626 -0.130726 6.63628 -0.136015 6.69811 -0.141463C8.33358 -0.28449 9.97187 -0.370308 11.6124 -0.426646C11.7302 -0.430721 11.8479 -0.434939 11.9657 -0.439177C15.5646 -0.566851 19.0145 -0.667307 21.8132 1.9378C22.2806 2.38407 22.7097 2.86205 23.1294 3.35296C23.1638 3.39298 23.1982 3.433 23.2336 3.47423C25.7093 6.36303 25.7093 6.36303 25.7103 7.19012C25.7105 7.25276 25.7107 7.3154 25.7109 7.37994C25.7109 7.44907 25.7109 7.5182 25.7108 7.58942C25.7109 7.66336 25.7111 7.73729 25.7113 7.81123C25.7117 8.01485 25.7118 8.21846 25.7119 8.42208C25.712 8.64151 25.7124 8.86093 25.7128 9.08036C25.7135 9.56034 25.7138 10.0403 25.7141 10.5203C25.7142 10.8199 25.7145 11.1194 25.7147 11.419C25.7154 12.248 25.7159 13.0771 25.7161 13.9061C25.7161 13.9592 25.7161 14.0123 25.7162 14.067C25.7162 14.1202 25.7162 14.1734 25.7162 14.2282C25.7162 14.336 25.7162 14.4438 25.7163 14.5516C25.7163 14.6051 25.7163 14.6586 25.7163 14.7137C25.7165 15.5806 25.7175 16.4476 25.7187 17.3145C25.72 18.2041 25.7207 19.0936 25.7208 19.9832C25.7208 20.4829 25.7212 20.9825 25.7221 21.4822C25.723 21.9076 25.7233 22.333 25.7228 22.7584C25.7226 22.9755 25.7227 23.1926 25.7234 23.4097C25.7241 23.6084 25.7241 23.8071 25.7234 24.0058C25.7232 24.1119 25.7239 24.218 25.7246 24.324C25.724 24.4184 25.724 24.4184 25.7235 24.5147C25.7235 24.569 25.7235 24.6233 25.7236 24.6793C25.6923 24.9071 25.59 25.0506 25.4297 25.2109C25.321 25.224 25.321 25.224 25.1863 25.2233C25.136 25.2233 25.0856 25.2233 25.0337 25.2233C24.9793 25.2227 24.9248 25.2221 24.8687 25.2216C24.813 25.2214 24.7573 25.2212 24.7 25.2211C24.5217 25.2205 24.3434 25.2191 24.165 25.2177C24.0443 25.2172 23.9236 25.2167 23.8029 25.2162C23.5066 25.215 23.2104 25.2132 22.9141 25.2109C22.9146 25.2807 22.9152 25.3505 22.9158 25.4224C22.9178 25.6818 22.919 25.9412 22.9201 26.2005C22.9206 26.3127 22.9214 26.4249 22.9223 26.5371C22.9236 26.6985 22.9243 26.8599 22.9247 27.0213C22.9253 27.0714 22.9259 27.1214 22.9265 27.1729C22.9265 27.4612 22.9172 27.6845 22.7395 27.9237C22.5958 28.0345 22.4877 28.0206 22.3076 28.0207C22.2375 28.0212 22.1674 28.0217 22.0952 28.0221C22.0169 28.0218 21.9387 28.0215 21.8604 28.0211C21.7776 28.0214 21.6949 28.0217 21.6121 28.022C21.3841 28.0228 21.156 28.0226 20.928 28.0222C20.6823 28.0219 20.4366 28.0226 20.1909 28.0232C19.7093 28.0241 19.2277 28.0242 18.7461 28.0239C18.3548 28.0236 17.9635 28.0237 17.5722 28.024C17.5166 28.0241 17.461 28.0241 17.4037 28.0241C17.2907 28.0242 17.1777 28.0243 17.0647 28.0244C16.0045 28.0251 14.9442 28.0248 13.8839 28.0242C12.9131 28.0237 11.9424 28.0244 10.9716 28.0257C9.97567 28.027 8.97973 28.0276 7.9838 28.0272C7.42432 28.027 6.86484 28.0271 6.30537 28.0281C5.82909 28.0289 5.35282 28.0289 4.87655 28.028C4.6334 28.0275 4.39027 28.0274 4.14713 28.0282C3.92472 28.029 3.70234 28.0287 3.47994 28.0277C3.3993 28.0275 3.31867 28.0276 3.23804 28.0282C3.12877 28.0289 3.01949 28.0281 2.91022 28.0273C2.84942 28.0273 2.78862 28.0273 2.72598 28.0273C2.53323 27.9934 2.4702 27.934 2.35156 27.7812C2.28604 27.5846 2.28927 27.406 2.28984 27.2014C2.28974 27.1585 2.28965 27.1155 2.28955 27.0713C2.28929 26.9261 2.28943 26.781 2.28956 26.6359C2.28946 26.5313 2.28933 26.4267 2.28919 26.3221C2.28885 26.0336 2.28886 25.7452 2.28892 25.4568C2.28894 25.1461 2.28863 24.8354 2.28837 24.5248C2.28792 23.9157 2.28777 23.3067 2.28774 22.6977C2.28771 22.2028 2.2876 21.7079 2.28743 21.2131C2.28702 20.0395 2.28669 18.8659 2.28672 17.6923C2.28672 17.6548 2.28672 17.6172 2.28672 17.5786C2.28672 17.3882 2.28673 17.1979 2.28673 17.0076C2.28674 16.9698 2.28674 16.932 2.28674 16.893C2.28674 16.8166 2.28674 16.7401 2.28674 16.6637C2.28678 15.4742 2.28637 14.2846 2.28562 13.0951C2.28478 11.7594 2.28431 10.4236 2.28436 9.08789C2.28438 8.38038 2.28423 7.67287 2.28364 6.96536C2.28314 6.36304 2.28302 5.76072 2.28339 5.1584C2.28357 4.8509 2.28357 4.54341 2.2831 4.23591C2.28267 3.95464 2.28275 3.67339 2.28323 3.39212C2.28331 3.29014 2.28321 3.18817 2.2829 3.08619C2.28252 2.94799 2.28281 2.8098 2.28326 2.6716C2.28299 2.63165 2.28272 2.59171 2.28244 2.55055C2.28397 2.33341 2.3009 2.16053 2.40625 1.96868C2.5801 1.85278 2.62116 1.8458 2.81986 1.84689C2.87022 1.8469 2.92057 1.84691 2.97245 1.84692C3.05372 1.84776 3.05372 1.84776 3.13663 1.84863C3.22003 1.84886 3.22003 1.84886 3.30513 1.8491C3.48288 1.84971 3.66063 1.85108 3.83838 1.85247C3.95883 1.85302 4.07927 1.85352 4.19972 1.85397C4.49513 1.85517 4.79053 1.857 5.08594 1.85931C5.08508 1.79685 5.08508 1.79685 5.0842 1.73312C5.08192 1.5439 5.0805 1.35469 5.0791 1.16546C5.07818 1.09993 5.07727 1.03441 5.07632 0.966897C5.0758 0.871993 5.0758 0.871993 5.07526 0.775171C5.0744 0.687965 5.0744 0.687965 5.07352 0.598998C5.08949 0.391248 5.13379 0.237989 5.26804 0.0765333C5.42992 -0.0592262 5.64514 -0.0475141 5.84873 -0.0650607ZM6.07031 0.984308C6.07031 8.65423 6.07031 16.3242 6.07031 24.2265C12.2243 24.2265 18.3783 24.2265 24.7187 24.2265C24.7187 18.7042 24.7187 13.1818 24.7187 7.49212C22.6614 7.47407 20.6041 7.45603 18.4844 7.43743C18.2503 7.20338 18.2047 7.1153 18.2023 6.80444C18.2017 6.75324 18.2012 6.70205 18.2007 6.6493C18.2003 6.59302 18.2 6.53674 18.1997 6.47876C18.1992 6.41857 18.1986 6.35838 18.198 6.29637C18.1963 6.10115 18.195 5.90594 18.1936 5.71072C18.1926 5.59035 18.1916 5.46998 18.1905 5.34961C18.1868 4.90281 18.1835 4.45601 18.1802 4.00921C18.1723 3.01099 18.1644 2.01277 18.1562 0.984308C14.1679 0.984308 10.1795 0.984308 6.07031 0.984308ZM19.1406 1.69525C19.1406 3.28337 19.1406 4.8715 19.1406 6.50775C20.7287 6.50775 22.3169 6.50775 23.9531 6.50775C23.692 6.20107 23.692 6.20107 23.4177 5.91073C23.3801 5.87293 23.3425 5.83513 23.3037 5.79619C23.2635 5.75614 23.2234 5.7161 23.182 5.67484C23.1388 5.63158 23.0957 5.58832 23.0512 5.54375C22.9096 5.40188 22.7677 5.26021 22.6259 5.11855C22.5272 5.01979 22.4284 4.92103 22.3297 4.82225C22.1235 4.61591 21.9171 4.40966 21.7107 4.20349C21.4718 3.96491 21.2331 3.72614 20.9946 3.48727C20.7648 3.2572 20.5348 3.02728 20.3048 2.79743C20.207 2.69963 20.1092 2.60179 20.0114 2.5039C19.8754 2.36774 19.7392 2.23175 19.6029 2.0958C19.5622 2.05498 19.5215 2.01416 19.4796 1.97211C19.4427 1.93539 19.4058 1.89867 19.3678 1.86084C19.3357 1.82867 19.3035 1.7965 19.2703 1.76336C19.2055 1.68912 19.2054 1.68912 19.1406 1.69525ZM3.28125 2.84368C3.28125 10.8204 3.28125 18.7971 3.28125 27.0156C9.43523 27.0156 15.5892 27.0156 21.9297 27.0156C21.9297 26.42 21.9297 25.8245 21.9297 25.2109C21.7233 25.2106 21.5168 25.2102 21.3042 25.2099C19.4124 25.2069 17.5206 25.2031 15.6289 25.1983C15.3811 25.1977 15.1333 25.1971 14.8855 25.1965C14.8115 25.1963 14.8115 25.1963 14.736 25.1962C13.9365 25.1942 13.1371 25.1929 12.3377 25.1917C11.5178 25.1905 10.6978 25.1887 9.87789 25.1863C9.37171 25.1849 8.86554 25.1839 8.35936 25.1836C8.01253 25.1833 7.6657 25.1824 7.31887 25.181C7.11859 25.1803 6.91832 25.1798 6.71804 25.18C6.50114 25.1802 6.28426 25.1792 6.06736 25.178C5.97193 25.1784 5.97193 25.1784 5.87456 25.1788C5.8166 25.1783 5.75863 25.1778 5.69891 25.1772C5.64882 25.1771 5.59873 25.177 5.54713 25.1769C5.38494 25.1516 5.31135 25.1074 5.19531 24.9921C5.11697 24.8056 5.13348 24.6037 5.13304 24.404C5.13289 24.3667 5.13273 24.3294 5.13257 24.291C5.13211 24.1655 5.13204 24.04 5.13197 23.9145C5.13172 23.8239 5.13145 23.7332 5.13115 23.6426C5.13041 23.3931 5.13001 23.1435 5.12965 22.894C5.12922 22.6251 5.12847 22.3561 5.12776 22.0872C5.12656 21.6211 5.12557 21.155 5.12471 20.689C5.12347 20.0151 5.12193 19.3412 5.12032 18.6673C5.11771 17.574 5.11535 16.4808 5.11313 15.3875C5.11098 14.3253 5.10872 13.2632 5.1063 12.201C5.10615 12.1356 5.106 12.0701 5.10585 12.0027C5.1051 11.6744 5.10435 11.3461 5.1036 11.0178C5.09736 8.29307 5.09154 5.56838 5.08594 2.84368C4.49039 2.84368 3.89484 2.84368 3.28125 2.84368Z" fill="white"/>
<path d="M11.5509 17.2188C11.5973 17.2187 11.6436 17.2185 11.6914 17.2183C11.8473 17.2179 12.0032 17.2178 12.1592 17.2177C12.2707 17.2174 12.3823 17.2172 12.4938 17.2169C12.7973 17.2162 13.1008 17.2158 13.4043 17.2156C13.5939 17.2154 13.7834 17.2152 13.9729 17.2149C14.5657 17.2142 15.1584 17.2137 15.7512 17.2134C16.4359 17.2132 17.1206 17.2122 17.8053 17.2107C18.3342 17.2095 18.8632 17.2089 19.3921 17.2088C19.7082 17.2088 20.0242 17.2085 20.3403 17.2075C20.6376 17.2066 20.9348 17.2065 21.2321 17.207C21.3413 17.207 21.4504 17.2068 21.5595 17.2062C21.7085 17.2055 21.8574 17.2058 22.0064 17.2064C22.0712 17.2058 22.0712 17.2058 22.1373 17.2051C22.3996 17.2074 22.5846 17.2452 22.8047 17.3906C22.893 17.5892 22.9283 17.7106 22.8799 17.9238C22.7909 18.0694 22.7352 18.1264 22.5859 18.2109C22.4271 18.2269 22.2801 18.2335 22.1213 18.2325C22.0503 18.233 22.0503 18.233 21.9779 18.2335C21.819 18.2344 21.6601 18.2341 21.5012 18.2339C21.3874 18.2343 21.2735 18.2347 21.1597 18.2353C20.8504 18.2365 20.541 18.2366 20.2316 18.2365C19.9736 18.2365 19.7155 18.237 19.4574 18.2374C18.8486 18.2385 18.2398 18.2387 17.6311 18.2383C17.0026 18.2379 16.3742 18.2392 15.7458 18.2412C15.2065 18.2429 14.6673 18.2435 14.1281 18.2433C13.8059 18.2432 13.4837 18.2435 13.1615 18.2448C12.8586 18.246 12.5557 18.2459 12.2527 18.2448C12.1414 18.2446 12.0302 18.2449 11.9189 18.2457C11.7672 18.2467 11.6155 18.246 11.4637 18.2449C11.4196 18.2456 11.3754 18.2462 11.3299 18.2469C11.1061 18.2434 11.005 18.2212 10.8281 18.0792C10.7207 17.94 10.6822 17.887 10.688 17.7153C10.7187 17.4999 10.7187 17.4999 10.8179 17.3666C11.0498 17.201 11.2777 17.2185 11.5509 17.2188Z" fill="white"/>
<path d="M11.4942 14.4298C11.5644 14.4295 11.5644 14.4295 11.636 14.4293C11.7937 14.4288 11.9514 14.4287 12.1092 14.4286C12.2219 14.4284 12.3346 14.4281 12.4473 14.4278C12.7542 14.4271 13.0611 14.4267 13.368 14.4265C13.5596 14.4263 13.7512 14.4261 13.9428 14.4259C14.5418 14.4251 15.1408 14.4246 15.7398 14.4244C16.4321 14.4241 17.1243 14.4232 17.8166 14.4216C18.3512 14.4204 18.8857 14.4199 19.4203 14.4198C19.7398 14.4197 20.0593 14.4194 20.3788 14.4184C20.6793 14.4175 20.9798 14.4174 21.2804 14.4179C21.3907 14.4179 21.5011 14.4177 21.6115 14.4172C21.7621 14.4165 21.9126 14.4168 22.0631 14.4174C22.1069 14.4169 22.1507 14.4165 22.1959 14.416C22.4441 14.4182 22.6102 14.4424 22.8047 14.6015C22.9063 14.826 22.933 14.9315 22.8491 15.1655C22.75 15.3124 22.75 15.3124 22.5859 15.4218C22.4315 15.4328 22.2824 15.4373 22.1279 15.4368C22.0806 15.4371 22.0333 15.4374 21.9846 15.4377C21.8255 15.4385 21.6665 15.4385 21.5074 15.4386C21.3936 15.439 21.2798 15.4395 21.166 15.44C20.8564 15.4412 20.5468 15.4416 20.2372 15.4419C20.0439 15.4421 19.8506 15.4425 19.6573 15.4428C18.9833 15.4442 18.3092 15.4449 17.6352 15.4451C17.0064 15.4453 16.3775 15.4469 15.7487 15.4492C15.2092 15.4511 14.6698 15.452 14.1303 15.452C13.808 15.452 13.4856 15.4525 13.1632 15.4541C12.86 15.4555 12.5569 15.4556 12.2537 15.4548C12.1424 15.4547 12.031 15.455 11.9196 15.4559C11.7678 15.457 11.616 15.4564 11.4641 15.4554C11.4199 15.4562 11.3757 15.4569 11.3302 15.4576C11.1062 15.4543 11.0051 15.4322 10.8281 15.2902C10.7207 15.151 10.6822 15.0979 10.688 14.9262C10.7187 14.7109 10.7187 14.7109 10.8213 14.5776C11.0422 14.4152 11.2286 14.4295 11.4942 14.4298Z" fill="white"/>
<path d="M11.4634 11.6141C11.5108 11.6138 11.5581 11.6134 11.607 11.613C11.7657 11.612 11.9244 11.613 12.0832 11.614C12.197 11.6137 12.3108 11.6133 12.4246 11.6128C12.7338 11.6118 13.0429 11.6125 13.352 11.6136C13.6754 11.6145 13.9987 11.614 14.3221 11.6137C14.8651 11.6135 15.4081 11.6143 15.9512 11.6158C16.5792 11.6176 17.2072 11.6176 17.8353 11.6167C18.4392 11.6158 19.043 11.6162 19.6469 11.6171C19.904 11.6175 20.1611 11.6174 20.4183 11.617C20.721 11.6166 21.0237 11.6173 21.3264 11.6187C21.4376 11.6191 21.5488 11.6191 21.66 11.6187C21.8116 11.6183 21.9631 11.6191 22.1148 11.6203C22.1589 11.6199 22.203 11.6194 22.2485 11.619C22.4524 11.622 22.5739 11.641 22.7487 11.7498C22.892 11.9018 22.9141 11.9872 22.9141 12.1954C22.8535 12.3612 22.8081 12.4812 22.6631 12.5867C22.4684 12.6549 22.2766 12.6481 22.0729 12.6471C22.0262 12.6473 21.9795 12.6475 21.9315 12.6478C21.7748 12.6483 21.6182 12.6481 21.4615 12.6479C21.3494 12.6481 21.2372 12.6484 21.125 12.6487C20.82 12.6495 20.5151 12.6495 20.2101 12.6494C19.9557 12.6493 19.7012 12.6496 19.4468 12.6498C18.8467 12.6504 18.2466 12.6505 17.6465 12.6501C17.027 12.6498 16.4075 12.6505 15.788 12.6516C15.2565 12.6526 14.7249 12.6529 14.1934 12.6528C13.8757 12.6527 13.5581 12.6528 13.2405 12.6536C12.9419 12.6542 12.6433 12.6541 12.3446 12.6534C12.2349 12.6533 12.1253 12.6534 12.0156 12.6539C11.866 12.6545 11.7165 12.654 11.5669 12.6533C11.5016 12.6539 11.5016 12.6539 11.435 12.6546C11.1175 12.6514 10.9412 12.5819 10.7188 12.3594C10.6751 11.9787 10.6751 11.9787 10.8279 11.7799C11.0389 11.6112 11.2045 11.6103 11.4634 11.6141Z" fill="white"/>
<path d="M11.4658 8.82508C11.5373 8.8245 11.5373 8.8245 11.6102 8.8239C11.7698 8.82294 11.9294 8.82393 12.0891 8.82492C12.2035 8.82464 12.3179 8.82424 12.4324 8.82373C12.7432 8.82272 13.054 8.82343 13.3649 8.8245C13.6899 8.8254 14.015 8.82492 14.34 8.82464C14.8859 8.82439 15.4317 8.82526 15.9776 8.82679C16.609 8.82854 17.2404 8.82854 17.8719 8.8276C18.4789 8.82673 19.086 8.8271 19.693 8.82803C19.9515 8.82841 20.2101 8.82835 20.4686 8.82795C20.7729 8.82753 21.0772 8.82819 21.3815 8.82969C21.4933 8.83006 21.6051 8.83007 21.7169 8.82967C21.8693 8.8292 22.0216 8.83007 22.1739 8.83129C22.2184 8.83083 22.2629 8.83038 22.3088 8.82992C22.5038 8.8328 22.6176 8.84218 22.776 8.96074C22.8859 9.11551 22.9103 9.21639 22.9141 9.40631C22.8502 9.59094 22.8096 9.70147 22.6357 9.79765C22.4281 9.85788 22.23 9.85891 22.0158 9.85769C21.9695 9.85787 21.9232 9.85804 21.8756 9.85821C21.7206 9.85865 21.5656 9.8583 21.4107 9.85796C21.2996 9.85811 21.1884 9.8583 21.0773 9.85854C20.7755 9.85904 20.4737 9.85884 20.1719 9.8585C19.8563 9.85822 19.5406 9.85848 19.2249 9.85865C18.6947 9.85885 18.1646 9.85859 17.6344 9.85807C17.0213 9.85747 16.4082 9.85766 15.795 9.85827C15.2688 9.85876 14.7426 9.85883 14.2164 9.85855C13.902 9.85837 13.5877 9.85835 13.2733 9.85871C12.9777 9.85903 12.6822 9.85881 12.3867 9.85818C12.2781 9.85803 12.1696 9.85808 12.0611 9.85832C11.9131 9.85861 11.7651 9.85824 11.6171 9.85769C11.574 9.85794 11.5309 9.85818 11.4866 9.85843C11.2085 9.85644 10.9918 9.83592 10.7837 9.64215C10.6895 9.45864 10.6902 9.3363 10.7188 9.13287C10.9315 8.84593 11.1276 8.82014 11.4658 8.82508Z" fill="white"/>
<path d="M11.6084 20.0083C11.6544 20.0082 11.7004 20.008 11.7478 20.0079C11.9022 20.0076 12.0565 20.0076 12.2109 20.0076C12.3215 20.0075 12.4321 20.0073 12.5426 20.0071C12.8432 20.0066 13.1437 20.0065 13.4443 20.0064C13.695 20.0064 13.9458 20.0062 14.1965 20.006C14.788 20.0056 15.3795 20.0054 15.9709 20.0055C16.5815 20.0055 17.192 20.0049 17.8026 20.0041C18.3264 20.0033 18.8503 20.003 19.3742 20.0031C19.6872 20.0031 20.0003 20.0029 20.3133 20.0024C20.6076 20.0018 20.9019 20.0018 21.1963 20.0022C21.3044 20.0023 21.4125 20.0021 21.5205 20.0018C21.668 20.0014 21.8154 20.0017 21.9628 20.0021C22.0057 20.0018 22.0486 20.0015 22.0927 20.0012C22.3644 20.0029 22.5714 20.032 22.791 20.1967C22.8828 20.3207 22.9031 20.4088 22.9141 20.5625C22.8603 20.7507 22.8014 20.8864 22.6406 21C22.4834 21.0163 22.3379 21.0226 22.1805 21.0215C22.133 21.0219 22.0855 21.0222 22.0365 21.0225C21.8767 21.0235 21.7169 21.0232 21.557 21.0229C21.4427 21.0233 21.3284 21.0238 21.214 21.0243C20.903 21.0256 20.5919 21.0257 20.2808 21.0256C20.0214 21.0256 19.7619 21.0261 19.5025 21.0265C18.8905 21.0276 18.2785 21.0277 17.6665 21.0274C17.0347 21.027 16.4029 21.0283 15.7711 21.0303C15.2291 21.032 14.6871 21.0326 14.1451 21.0324C13.8211 21.0323 13.4972 21.0326 13.1733 21.0339C12.8687 21.0351 12.5641 21.035 12.2595 21.0339C12.1476 21.0337 12.0358 21.034 11.9239 21.0348C11.7713 21.0358 11.6188 21.0351 11.4662 21.034C11.3996 21.035 11.3996 21.035 11.3316 21.036C11.1106 21.0326 11.0048 21.0097 10.8278 20.8731C10.7188 20.7265 10.7188 20.7265 10.688 20.5351C10.7235 20.3139 10.7756 20.2232 10.9375 20.0703C11.1574 19.9983 11.3794 20.0078 11.6084 20.0083Z" fill="white"/>
<path d="M8.59701 4.14741C8.65506 4.14688 8.71311 4.14636 8.77292 4.14582C8.83564 4.14558 8.89836 4.14535 8.96298 4.14511C9.05979 4.14464 9.05979 4.14464 9.15855 4.14417C9.29522 4.14365 9.43189 4.14329 9.56856 4.14308C9.77741 4.14255 9.98622 4.14086 10.1951 4.13913C10.3278 4.13877 10.4606 4.13849 10.5934 4.13828C10.6557 4.1376 10.7181 4.13693 10.7824 4.13623C11.3451 4.13781 11.3451 4.13781 11.5938 4.32028C11.7043 4.49339 11.7172 4.63154 11.7181 4.83477C11.7187 4.89391 11.7192 4.95305 11.7197 5.01399C11.7197 5.07762 11.7196 5.14126 11.7196 5.20682C11.7198 5.27249 11.72 5.33817 11.7203 5.40583C11.7206 5.54475 11.7206 5.68367 11.7204 5.82259C11.7202 6.03491 11.7215 6.24719 11.7229 6.4595C11.723 6.59451 11.723 6.72952 11.723 6.86453C11.7235 6.92795 11.724 6.99136 11.7245 7.05669C11.7212 7.64442 11.7212 7.64442 11.5391 7.87497C11.2463 8.03722 10.8925 8.00008 10.5664 7.99887C10.5044 7.99898 10.4424 7.99908 10.3785 7.99919C10.2478 7.99926 10.117 7.99906 9.98622 7.99861C9.78616 7.99802 9.58612 7.9986 9.38606 7.9993C9.25885 7.99923 9.13164 7.99909 9.00443 7.99887C8.94466 7.99909 8.8849 7.99932 8.82333 7.99954C8.76747 7.9992 8.71162 7.99885 8.65407 7.9985C8.60515 7.99841 8.55623 7.99832 8.50582 7.99824C8.30753 7.97837 8.15853 7.92077 7.99601 7.80588C7.89974 7.66803 7.90845 7.56166 7.90759 7.39455C7.9069 7.32957 7.9062 7.2646 7.90549 7.19765C7.90565 7.12741 7.90581 7.05717 7.90598 6.9848C7.90569 6.91272 7.9054 6.84064 7.90511 6.76638C7.90462 6.6138 7.90475 6.46123 7.90529 6.30865C7.90592 6.11327 7.90482 5.91796 7.90322 5.72259C7.90198 5.53607 7.90235 5.34955 7.90256 5.16303C7.90194 5.0929 7.90133 5.02277 7.9007 4.95051C7.90121 4.88537 7.90172 4.82022 7.90225 4.7531C7.90226 4.69579 7.90227 4.63848 7.90228 4.57943C7.93676 4.39102 7.99953 4.32782 8.14844 4.21091C8.31307 4.15603 8.42486 4.14867 8.59701 4.14741ZM8.91406 5.1406C8.91406 5.75419 8.91406 6.36778 8.91406 6.99997C9.50961 6.99997 10.1052 6.99997 10.7188 6.99997C10.7188 6.38638 10.7188 5.77278 10.7188 5.1406C10.1232 5.1406 9.52766 5.1406 8.91406 5.1406Z" fill="white"/>
<path d="M8.84912 14.4239C8.90372 14.4228 8.95832 14.4216 9.01457 14.4205C9.52929 14.4177 9.52929 14.4177 9.73437 14.6016C9.81861 14.7994 9.85757 14.9236 9.80957 15.1348C9.72386 15.2751 9.65534 15.3359 9.51562 15.422C9.29932 15.4572 9.08167 15.4498 8.86279 15.4493C8.80347 15.4508 8.74415 15.4524 8.68303 15.454C8.24992 15.4551 8.24992 15.4551 8.0271 15.2974C7.8793 15.0715 7.89171 14.9769 7.92969 14.711C8.18451 14.3797 8.46212 14.4259 8.84912 14.4239Z" fill="white"/>
<path d="M8.84912 17.213C8.8978 17.2119 8.94648 17.2107 8.99663 17.2096C9.28369 17.2079 9.48753 17.2268 9.73437 17.3907C9.83395 17.5509 9.8446 17.6433 9.83691 17.8316C9.78043 18.0213 9.72351 18.0877 9.57031 18.211C9.34574 18.2559 9.11869 18.244 8.89014 18.2418C8.82821 18.2431 8.76628 18.2444 8.70247 18.2457C8.25144 18.245 8.25144 18.245 8.02539 18.0863C7.87985 17.8602 7.89183 17.7651 7.92969 17.5001C8.17071 17.176 8.48067 17.2151 8.84912 17.213Z" fill="white"/>
<path d="M8.85938 11.6178C8.91845 11.6172 8.97753 11.6166 9.03839 11.616C9.46647 11.6199 9.46647 11.6199 9.68994 11.75C9.81985 11.9037 9.84375 11.9943 9.84375 12.1954C9.73742 12.4864 9.73742 12.4864 9.58142 12.5867C9.44153 12.6403 9.33374 12.647 9.18408 12.6474C9.1052 12.6476 9.1052 12.6476 9.02472 12.6479C8.97016 12.6474 8.91559 12.647 8.85938 12.6466C8.77753 12.6472 8.77753 12.6472 8.69403 12.6479C8.64144 12.6477 8.58885 12.6476 8.53467 12.6474C8.4868 12.6473 8.43893 12.6472 8.38962 12.6471C8.24597 12.6316 8.16001 12.6018 8.03906 12.5235C7.92356 12.3503 7.91156 12.2429 7.89914 12.0386C8.0241 11.5615 8.45882 11.6089 8.85938 11.6178Z" fill="white"/>
<path d="M8.89014 8.82852C8.98335 8.82763 8.98335 8.82763 9.07845 8.82671C9.53499 8.83075 9.53499 8.83075 9.69591 8.96077C9.81783 9.11425 9.83984 9.21051 9.84375 9.40616C9.78104 9.58734 9.7396 9.69963 9.57074 9.79731C9.33309 9.86428 9.10511 9.86164 8.85938 9.86075C8.78641 9.86207 8.78641 9.86207 8.71198 9.86342C8.44222 9.86362 8.2578 9.85518 8.03906 9.6796C7.90082 9.54135 7.91048 9.4405 7.89914 9.25128C8.0252 8.76201 8.48168 8.81992 8.89014 8.82852Z" fill="white"/>
<path d="M8.85596 20.0055C8.89963 20.0048 8.9433 20.0041 8.9883 20.0034C9.26962 20.0027 9.48521 20.0252 9.7207 20.1935C9.82177 20.3349 9.83684 20.4445 9.84375 20.6173C9.76861 20.7747 9.69337 20.877 9.57031 21.0001C9.33666 21.0267 9.10121 21.0203 8.86621 21.0206C8.80072 21.0219 8.73523 21.0233 8.66776 21.0247C8.6048 21.0249 8.54185 21.0251 8.47699 21.0253C8.3904 21.026 8.3904 21.026 8.30206 21.0267C8.11133 20.9937 8.04775 20.9316 7.92969 20.7813C7.88956 20.6137 7.89861 20.4582 7.92969 20.2892C8.15781 19.9633 8.49475 20.0058 8.85596 20.0055Z" fill="white"/>
</g>
<defs>
<clipPath id="clip0_1105_129">
<rect width="28" height="28" fill="white"/>
</clipPath>
</defs>
</svg>
