<svg width="40" height="40" viewBox="0 0 40 40" fill="none" xmlns="http://www.w3.org/2000/svg">
<g clip-path="url(#clip0_892_112835)">
<path d="M23.7497 2.42182C23.7984 2.45767 23.8472 2.49352 23.8974 2.53046C24.6664 3.12695 25.1779 4.02889 25.6129 4.88167C25.7443 5.13931 25.879 5.39526 26.0132 5.65149C26.0532 5.72829 26.0532 5.72829 26.0941 5.80664C26.3371 6.27147 26.594 6.72771 26.8552 7.18256C27.23 7.83752 27.5834 8.50112 27.929 9.17189C28.1943 9.68437 28.4725 10.1878 28.7595 10.6884C29.1899 11.4399 29.5969 12.2022 29.9997 12.9687C30.3948 13.7203 30.7931 14.4684 31.2155 15.205C31.6819 16.0185 32.1213 16.8452 32.5595 17.6741C32.6157 17.7805 32.672 17.887 32.7283 17.9934C32.7694 18.0712 32.7694 18.0712 32.8114 18.1506C33.1577 18.8048 33.5137 19.4537 33.8695 20.1028C34.0781 20.4845 34.2849 20.8673 34.4919 21.2499C34.8546 21.9203 35.2188 22.5899 35.5843 23.2588C35.7858 23.6278 35.9865 23.9972 36.1859 24.3673C36.6047 25.1443 37.0281 25.9178 37.4655 26.6845C37.8912 27.4317 38.2938 28.1891 38.6874 28.9535C38.8252 29.2208 38.9655 29.4862 39.1098 29.75C39.9307 31.2526 40.2984 32.8364 39.8776 34.541C39.6008 35.4104 39.1865 36.1796 38.5935 36.8749C38.5435 36.9396 38.4935 37.0043 38.4421 37.0709C37.5322 38.1703 36.055 38.7422 34.6714 38.89C34.2078 38.9243 33.7429 38.9172 33.2782 38.9166C33.1592 38.9168 33.0401 38.917 32.9211 38.9172C32.5952 38.9177 32.2693 38.9176 31.9434 38.9176C31.5915 38.9175 31.2395 38.918 30.8875 38.9183C30.1984 38.919 29.5093 38.9192 28.8202 38.9192C28.2598 38.9193 27.6994 38.9194 27.1391 38.9197C25.5492 38.9204 23.9593 38.9207 22.3694 38.9207C22.2409 38.9207 22.2409 38.9207 22.1098 38.9207C22.024 38.9207 21.9383 38.9207 21.8499 38.9207C20.4604 38.9206 19.0709 38.9214 17.6813 38.9225C16.2534 38.9236 14.8255 38.9241 13.3976 38.9241C12.5964 38.924 11.7952 38.9243 10.994 38.9251C10.3118 38.9258 9.62962 38.926 8.9474 38.9255C8.59964 38.9252 8.25189 38.9252 7.90413 38.9259C7.58514 38.9265 7.26616 38.9264 6.94717 38.9257C6.8324 38.9256 6.71764 38.9257 6.60287 38.9262C4.65288 38.9331 2.99493 38.4744 1.5622 37.1093C0.262205 35.729 -0.0566358 34.0781 -0.00922303 32.2461C0.0484166 30.8583 0.968703 29.5114 1.64349 28.3382C1.94232 27.8178 2.22531 27.2914 2.4997 26.7578C2.85174 26.074 3.22293 25.4038 3.60474 24.7363C3.89971 24.2182 4.17989 23.694 4.45283 23.164C4.75614 22.5753 5.07073 21.9954 5.40009 21.4208C5.83054 20.6694 6.23752 19.907 6.64033 19.1406C7.03538 18.389 7.43369 17.6409 7.85615 16.9042C8.32257 16.0908 8.76195 15.2641 9.20009 14.4352C9.25635 14.3287 9.31263 14.2223 9.36891 14.1159C9.39633 14.064 9.42376 14.0121 9.45202 13.9586C9.79835 13.3044 10.1543 12.6556 10.5101 12.0065C10.7188 11.6247 10.9255 11.242 11.1325 10.8593C11.4953 10.1889 11.8594 9.51935 12.2249 8.85048C12.4264 8.48149 12.6271 8.11209 12.8265 7.74195C13.295 6.87286 13.7698 6.00817 14.2584 5.15026C14.2975 5.08162 14.3366 5.01299 14.3768 4.94227C14.4153 4.8749 14.4537 4.80753 14.4933 4.73812C14.5729 4.59583 14.6506 4.45246 14.7266 4.30824C14.9603 3.86523 15.2038 3.47483 15.5368 3.10053C15.5776 3.05396 15.6183 3.00739 15.6603 2.95941C15.9575 2.62679 16.2619 2.34785 16.6403 2.10932C16.6842 2.07719 16.7281 2.04507 16.7734 2.01197C18.8632 0.553615 21.8266 0.890705 23.7497 2.42182ZM18.281 11.4843C17.6538 12.3301 17.6325 13.1743 17.6357 14.1989C17.6355 14.3132 17.6352 14.4275 17.6349 14.5418C17.6342 14.8501 17.6345 15.1584 17.635 15.4667C17.6354 15.7906 17.635 16.1145 17.6347 16.4384C17.6345 16.9821 17.6348 17.5259 17.6356 18.0696C17.6364 18.6967 17.6362 19.3238 17.6353 19.9508C17.6346 20.4909 17.6345 21.031 17.6349 21.5711C17.6351 21.8929 17.6352 22.2148 17.6347 22.5366C17.6342 22.8393 17.6345 23.1419 17.6354 23.4446C17.6356 23.5551 17.6356 23.6657 17.6352 23.7762C17.6327 24.6794 17.6329 25.6428 18.2822 26.3412C18.8452 26.8669 19.384 27.1069 20.156 27.1093C20.8338 27.0569 21.3697 26.7128 21.8259 26.2206C22.2798 25.6497 22.3528 24.9723 22.3539 24.2602C22.3542 24.1619 22.3546 24.0637 22.3549 23.9625C22.3549 23.8551 22.3548 23.7476 22.3548 23.6401C22.355 23.5259 22.3553 23.4116 22.3556 23.2973C22.3563 22.9881 22.3565 22.6788 22.3565 22.3695C22.3566 22.1759 22.3567 21.9824 22.357 21.7888C22.3577 21.1127 22.358 20.4366 22.3579 19.7604C22.3579 19.1317 22.3587 18.5029 22.3599 17.8741C22.361 17.333 22.3614 16.7919 22.3613 16.2508C22.3613 15.9282 22.3615 15.6056 22.3624 15.283C22.3631 14.9793 22.3631 14.6757 22.3626 14.3721C22.3625 14.2612 22.3627 14.1502 22.3631 14.0393C22.367 13.0808 22.3257 12.2621 21.7185 11.4843C21.2285 11.0035 20.6912 10.774 20.0095 10.747C19.3337 10.7658 18.7525 10.9913 18.281 11.4843ZM18.281 30.2343C17.7957 30.9468 17.668 31.4784 17.7341 32.3437C17.8803 32.9391 18.2704 33.453 18.775 33.7948C19.3848 34.1289 20.0085 34.2302 20.6851 34.0508C21.3316 33.8036 21.8864 33.3222 22.1774 32.6904C22.3738 32.0813 22.3691 31.3926 22.0895 30.8154C22.0208 30.6981 21.9495 30.5822 21.8747 30.4687C21.828 30.3962 21.7812 30.3237 21.7331 30.249C21.2514 29.7672 20.6967 29.5287 20.0192 29.5019C19.3377 29.5146 18.7568 29.7368 18.281 30.2343Z" fill="white"/>
</g>
<defs>
<clipPath id="clip0_892_112835">
<rect width="40" height="40" fill="white"/>
</clipPath>
</defs>
</svg>
